<?xml version="1.0" encoding="UTF-8" standalone="no"?>
<!-- Created with Inkscape (http://www.inkscape.org/) -->

<svg
   xmlns:dc="http://purl.org/dc/elements/1.1/"
   xmlns:cc="http://creativecommons.org/ns#"
   xmlns:rdf="http://www.w3.org/1999/02/22-rdf-syntax-ns#"
   xmlns:svg="http://www.w3.org/2000/svg"
   xmlns="http://www.w3.org/2000/svg"
   xmlns:xlink="http://www.w3.org/1999/xlink"
   xmlns:sodipodi="http://sodipodi.sourceforge.net/DTD/sodipodi-0.dtd"
   xmlns:inkscape="http://www.inkscape.org/namespaces/inkscape"
   width="1023.9995"
   height="428.64011"
   id="svg4611"
   version="1.1"
   inkscape:version="0.48.5 r10040"
   sodipodi:docname="smoking_fireball_02.svg">
  <defs
     id="defs4613">
    <radialGradient
       inkscape:collect="always"
       xlink:href="#linearGradient25629"
       id="radialGradient32259"
       gradientUnits="userSpaceOnUse"
       gradientTransform="matrix(0,0.9421926,-1,0,3676.4288,5242.6685)"
       cx="-795.81506"
       cy="4484.2861"
       fx="-795.81506"
       fy="4484.2861"
       r="100.35714" />
    <linearGradient
       id="linearGradient25629">
      <stop
         style="stop-color:#ffffff;stop-opacity:1"
         offset="0"
         id="stop25631" />
      <stop
         id="stop25637"
         offset="0.69999999"
         style="stop-color:#ffff00;stop-opacity:1" />
      <stop
         style="stop-color:#ffff00;stop-opacity:0"
         offset="1"
         id="stop25633" />
    </linearGradient>
    <radialGradient
       inkscape:collect="always"
       xlink:href="#linearGradient25629"
       id="radialGradient32261"
       gradientUnits="userSpaceOnUse"
       gradientTransform="matrix(0,0.9421926,-1,0,3676.4288,5242.6685)"
       cx="-795.81506"
       cy="4484.2861"
       fx="-795.81506"
       fy="4484.2861"
       r="100.35714" />
    <linearGradient
       id="linearGradient4635">
      <stop
         style="stop-color:#ffffff;stop-opacity:1"
         offset="0"
         id="stop4637" />
      <stop
         id="stop4639"
         offset="0.69999999"
         style="stop-color:#ffff00;stop-opacity:1" />
      <stop
         style="stop-color:#ffff00;stop-opacity:0"
         offset="1"
         id="stop4641" />
    </linearGradient>
    <radialGradient
       inkscape:collect="always"
       xlink:href="#linearGradient25629"
       id="radialGradient32263"
       gradientUnits="userSpaceOnUse"
       gradientTransform="matrix(0,0.9421926,-1,0,3676.4288,5242.6685)"
       cx="-795.81506"
       cy="4484.2861"
       fx="-795.81506"
       fy="4484.2861"
       r="100.35714" />
    <linearGradient
       id="linearGradient4644">
      <stop
         style="stop-color:#ffffff;stop-opacity:1"
         offset="0"
         id="stop4646" />
      <stop
         id="stop4648"
         offset="0.69999999"
         style="stop-color:#ffff00;stop-opacity:1" />
      <stop
         style="stop-color:#ffff00;stop-opacity:0"
         offset="1"
         id="stop4650" />
    </linearGradient>
    <radialGradient
       inkscape:collect="always"
       xlink:href="#linearGradient25629"
       id="radialGradient32265"
       gradientUnits="userSpaceOnUse"
       gradientTransform="matrix(0,0.9421926,-1,0,3676.4288,5242.6685)"
       cx="-795.81506"
       cy="4484.2861"
       fx="-795.81506"
       fy="4484.2861"
       r="100.35714" />
    <linearGradient
       id="linearGradient4653">
      <stop
         style="stop-color:#ffffff;stop-opacity:1"
         offset="0"
         id="stop4655" />
      <stop
         id="stop4657"
         offset="0.69999999"
         style="stop-color:#ffff00;stop-opacity:1" />
      <stop
         style="stop-color:#ffff00;stop-opacity:0"
         offset="1"
         id="stop4659" />
    </linearGradient>
    <radialGradient
       inkscape:collect="always"
       xlink:href="#linearGradient25629"
       id="radialGradient32267"
       gradientUnits="userSpaceOnUse"
       gradientTransform="matrix(0,0.9421926,-1,0,3676.4288,5242.6685)"
       cx="-795.81506"
       cy="4484.2861"
       fx="-795.81506"
       fy="4484.2861"
       r="100.35714" />
    <linearGradient
       id="linearGradient4662">
      <stop
         style="stop-color:#ffffff;stop-opacity:1"
         offset="0"
         id="stop4664" />
      <stop
         id="stop4666"
         offset="0.69999999"
         style="stop-color:#ffff00;stop-opacity:1" />
      <stop
         style="stop-color:#ffff00;stop-opacity:0"
         offset="1"
         id="stop4668" />
    </linearGradient>
    <radialGradient
       inkscape:collect="always"
       xlink:href="#linearGradient25629"
       id="radialGradient32269"
       gradientUnits="userSpaceOnUse"
       gradientTransform="matrix(0,0.9421926,-1,0,3676.4288,5242.6685)"
       cx="-795.81506"
       cy="4484.2861"
       fx="-795.81506"
       fy="4484.2861"
       r="100.35714" />
    <linearGradient
       id="linearGradient4671">
      <stop
         style="stop-color:#ffffff;stop-opacity:1"
         offset="0"
         id="stop4673" />
      <stop
         id="stop4675"
         offset="0.69999999"
         style="stop-color:#ffff00;stop-opacity:1" />
      <stop
         style="stop-color:#ffff00;stop-opacity:0"
         offset="1"
         id="stop4677" />
    </linearGradient>
    <radialGradient
       inkscape:collect="always"
       xlink:href="#linearGradient25629"
       id="radialGradient6112"
       gradientUnits="userSpaceOnUse"
       gradientTransform="matrix(0,0.9421926,-1,0,3676.4288,5242.6685)"
       cx="-795.81506"
       cy="4484.2861"
       fx="-795.81506"
       fy="4484.2861"
       r="100.35714" />
  </defs>
  <sodipodi:namedview
     id="base"
     pagecolor="#ffffff"
     bordercolor="#666666"
     borderopacity="1.0"
     inkscape:pageopacity="0.0"
     inkscape:pageshadow="2"
     inkscape:zoom="0.7"
     inkscape:cx="452.63913"
     inkscape:cy="249.14896"
     inkscape:document-units="px"
     inkscape:current-layer="layer1"
     showgrid="false"
     inkscape:window-width="1920"
     inkscape:window-height="1017"
     inkscape:window-x="-8"
     inkscape:window-y="-8"
     inkscape:window-maximized="1" />
  <metadata
     id="metadata4616">
    <rdf:RDF>
      <cc:Work
         rdf:about="">
        <dc:format>image/svg+xml</dc:format>
        <dc:type
           rdf:resource="http://purl.org/dc/dcmitype/StillImage" />
        <dc:title />
      </cc:Work>
    </rdf:RDF>
  </metadata>
  <g
     inkscape:label="Layer 1"
     inkscape:groupmode="layer"
     id="layer1"
     transform="translate(511.99977,456.34655)">
    <g
       id="g31085"
       transform="matrix(1.3276229,0,0,1.3276229,7649.7433,1348.8292)"
       gds_color="smoke"
       gds_switchable="smoke">
      <rect
         style="opacity:0;color:#000000;fill:#dbe3e2;fill-opacity:1;fill-rule:nonzero;stroke:none;stroke-width:20;marker:none;visibility:visible;display:inline;overflow:visible;enable-background:accumulate"
         id="rect31087"
         width="565.45239"
         height="269.11905"
         x="-5941.7861"
         y="-1332.8334" />
      <g
         id="g31089"
         transform="matrix(1.0748991,0,0,1.0748991,-4871.0679,-1218.1729)">
        <path
           sodipodi:type="arc"
           style="opacity:0.24122805;color:#000000;fill:#000000;fill-opacity:1;fill-rule:nonzero;stroke:none;stroke-width:20;marker:none;visibility:visible;display:inline;overflow:visible;enable-background:accumulate"
           id="path31091"
           sodipodi:cx="-3812.8572"
           sodipodi:cy="2730"
           sodipodi:rx="115.71429"
           sodipodi:ry="115.71429"
           d="m -3697.1429,2730 a 115.71429,115.71429 0 1 1 -231.4286,0 115.71429,115.71429 0 1 1 231.4286,0 z"
           transform="matrix(0.26122072,0,0,0.26122072,126.74134,-698.44784)" />
      </g>
      <g
         transform="translate(-4965.2635,-1256.4776)"
         id="g31093">
        <path
           transform="matrix(0.26122072,0,0,0.26122072,126.74134,-698.44784)"
           d="m -3697.1429,2730 a 115.71429,115.71429 0 1 1 -231.4286,0 115.71429,115.71429 0 1 1 231.4286,0 z"
           sodipodi:ry="115.71429"
           sodipodi:rx="115.71429"
           sodipodi:cy="2730"
           sodipodi:cx="-3812.8572"
           id="path31095"
           style="opacity:0.24122805;color:#000000;fill:#000000;fill-opacity:1;fill-rule:nonzero;stroke:none;stroke-width:20;marker:none;visibility:visible;display:inline;overflow:visible;enable-background:accumulate"
           sodipodi:type="arc" />
      </g>
      <g
         transform="translate(-6106.9742,-1213.7145)"
         id="g31097">
        <path
           transform="matrix(0.07176598,0,0,0.07176598,838.2143,-181.2364)"
           d="m -3697.1429,2730 a 115.71429,115.71429 0 1 1 -231.4286,0 115.71429,115.71429 0 1 1 231.4286,0 z"
           sodipodi:ry="115.71429"
           sodipodi:rx="115.71429"
           sodipodi:cy="2730"
           sodipodi:cx="-3812.8572"
           id="path31099"
           style="opacity:0.09210528;color:#000000;fill:#000000;fill-opacity:1;fill-rule:nonzero;stroke:none;stroke-width:20;marker:none;visibility:visible;display:inline;overflow:visible;enable-background:accumulate"
           sodipodi:type="arc" />
      </g>
      <g
         transform="translate(-4660.5924,-1213.7145)"
         id="g31101">
        <path
           sodipodi:type="arc"
           style="opacity:0.24122805;color:#000000;fill:#000000;fill-opacity:1;fill-rule:nonzero;stroke:none;stroke-width:20;marker:none;visibility:visible;display:inline;overflow:visible;enable-background:accumulate"
           id="path31103"
           sodipodi:cx="-3812.8572"
           sodipodi:cy="2730"
           sodipodi:rx="115.71429"
           sodipodi:ry="115.71429"
           d="m -3697.1429,2730 a 115.71429,115.71429 0 1 1 -231.4286,0 115.71429,115.71429 0 1 1 231.4286,0 z"
           transform="matrix(0.32001702,0,0,0.32001702,0.21251212,-858.96174)" />
      </g>
      <g
         transform="matrix(1.4924207,0,0,1.4924207,-5008.6371,-1199.9362)"
         id="g31105">
        <path
           sodipodi:type="arc"
           style="opacity:0.24122805;color:#000000;fill:#000000;fill-opacity:1;fill-rule:nonzero;stroke:none;stroke-width:20;marker:none;visibility:visible;display:inline;overflow:visible;enable-background:accumulate"
           id="path31107"
           sodipodi:cx="-3812.8572"
           sodipodi:cy="2730"
           sodipodi:rx="115.71429"
           sodipodi:ry="115.71429"
           d="m -3697.1429,2730 a 115.71429,115.71429 0 1 1 -231.4286,0 115.71429,115.71429 0 1 1 231.4286,0 z"
           transform="matrix(0.22855611,0,0,0.22855611,374.07323,-609.27345)" />
      </g>
      <g
         id="g31109"
         transform="translate(-5261.3819,-1158.1225)">
        <path
           transform="matrix(0.22855611,0,0,0.22855611,374.07323,-609.27345)"
           d="m -3697.1429,2730 a 115.71429,115.71429 0 1 1 -231.4286,0 115.71429,115.71429 0 1 1 231.4286,0 z"
           sodipodi:ry="115.71429"
           sodipodi:rx="115.71429"
           sodipodi:cy="2730"
           sodipodi:cx="-3812.8572"
           id="path31111"
           style="opacity:0.24122805;color:#000000;fill:#000000;fill-opacity:1;fill-rule:nonzero;stroke:none;stroke-width:20;marker:none;visibility:visible;display:inline;overflow:visible;enable-background:accumulate"
           sodipodi:type="arc" />
      </g>
      <g
         id="g31113"
         transform="translate(-5625.9214,-1243.6487)">
        <path
           sodipodi:type="arc"
           style="opacity:0.24122805;color:#000000;fill:#000000;fill-opacity:1;fill-rule:nonzero;stroke:none;stroke-width:20;marker:none;visibility:visible;display:inline;overflow:visible;enable-background:accumulate"
           id="path31115"
           sodipodi:cx="-3812.8572"
           sodipodi:cy="2730"
           sodipodi:rx="115.71429"
           sodipodi:ry="115.71429"
           d="m -3697.1429,2730 a 115.71429,115.71429 0 1 1 -231.4286,0 115.71429,115.71429 0 1 1 231.4286,0 z"
           transform="matrix(0.18935858,0,0,0.18935858,588.18053,-502.26419)" />
      </g>
      <g
         id="g31117"
         transform="matrix(1,0,0,-1,-1288.1431,-2888.3237)">
        <g
           id="g31119"
           transform="matrix(1.0748991,0,0,1.0748991,-4169.0049,-1709.9488)">
          <path
             sodipodi:type="arc"
             style="opacity:0.24122805;color:#000000;fill:#000000;fill-opacity:1;fill-rule:nonzero;stroke:none;stroke-width:20;marker:none;visibility:visible;display:inline;overflow:visible;enable-background:accumulate"
             id="path31121"
             sodipodi:cx="-3812.8572"
             sodipodi:cy="2730"
             sodipodi:rx="115.71429"
             sodipodi:ry="115.71429"
             d="m -3697.1429,2730 a 115.71429,115.71429 0 1 1 -231.4286,0 115.71429,115.71429 0 1 1 231.4286,0 z"
             transform="matrix(0.18935858,0,0,0.18935858,588.18053,-502.26419)" />
        </g>
        <g
           transform="translate(-4312.1204,-1748.2535)"
           id="g31123">
          <path
             transform="matrix(0.18935858,0,0,0.18935858,588.18053,-502.26419)"
             d="m -3697.1429,2730 a 115.71429,115.71429 0 1 1 -231.4286,0 115.71429,115.71429 0 1 1 231.4286,0 z"
             sodipodi:ry="115.71429"
             sodipodi:rx="115.71429"
             sodipodi:cy="2730"
             sodipodi:cx="-3812.8572"
             id="path31125"
             style="opacity:0.24122805;color:#000000;fill:#000000;fill-opacity:1;fill-rule:nonzero;stroke:none;stroke-width:20;marker:none;visibility:visible;display:inline;overflow:visible;enable-background:accumulate"
             sodipodi:type="arc" />
        </g>
        <g
           transform="translate(-3548.831,-1705.4904)"
           id="g31127">
          <path
             transform="matrix(0.26122072,0,0,0.26122072,126.74134,-698.44784)"
             d="m -3697.1429,2730 a 115.71429,115.71429 0 1 1 -231.4286,0 115.71429,115.71429 0 1 1 231.4286,0 z"
             sodipodi:ry="115.71429"
             sodipodi:rx="115.71429"
             sodipodi:cy="2730"
             sodipodi:cx="-3812.8572"
             id="path31129"
             style="opacity:0.24122805;color:#000000;fill:#000000;fill-opacity:1;fill-rule:nonzero;stroke:none;stroke-width:20;marker:none;visibility:visible;display:inline;overflow:visible;enable-background:accumulate"
             sodipodi:type="arc" />
        </g>
        <g
           id="g31131"
           transform="translate(-4007.4493,-1705.4904)">
          <path
             transform="matrix(0.22855611,0,0,0.22855611,374.07323,-609.27345)"
             d="m -3697.1429,2730 a 115.71429,115.71429 0 1 1 -231.4286,0 115.71429,115.71429 0 1 1 231.4286,0 z"
             sodipodi:ry="115.71429"
             sodipodi:rx="115.71429"
             sodipodi:cy="2730"
             sodipodi:cx="-3812.8572"
             id="path31133"
             style="opacity:0.24122805;color:#000000;fill:#000000;fill-opacity:1;fill-rule:nonzero;stroke:none;stroke-width:20;marker:none;visibility:visible;display:inline;overflow:visible;enable-background:accumulate"
             sodipodi:type="arc" />
        </g>
        <g
           transform="matrix(1.4924207,0,0,1.4924207,-4668.1812,-1691.7121)"
           id="g31135">
          <path
             sodipodi:type="arc"
             style="opacity:0.14473685;color:#000000;fill:#000000;fill-opacity:1;fill-rule:nonzero;stroke:none;stroke-width:20;marker:none;visibility:visible;display:inline;overflow:visible;enable-background:accumulate"
             id="path31137"
             sodipodi:cx="-3812.8572"
             sodipodi:cy="2730"
             sodipodi:rx="115.71429"
             sodipodi:ry="115.71429"
             d="m -3697.1429,2730 a 115.71429,115.71429 0 1 1 -231.4286,0 115.71429,115.71429 0 1 1 231.4286,0 z"
             transform="matrix(0.12402936,0,0,0.12402936,684.50856,-323.91542)" />
        </g>
        <g
           id="g31139"
           transform="translate(-4608.2388,-1649.8984)">
          <path
             transform="matrix(0.12402936,0,0,0.12402936,684.50856,-323.91542)"
             d="m -3697.1429,2730 a 115.71429,115.71429 0 1 1 -231.4286,0 115.71429,115.71429 0 1 1 231.4286,0 z"
             sodipodi:ry="115.71429"
             sodipodi:rx="115.71429"
             sodipodi:cy="2730"
             sodipodi:cx="-3812.8572"
             id="path31141"
             style="opacity:0.14473685;color:#000000;fill:#000000;fill-opacity:1;fill-rule:nonzero;stroke:none;stroke-width:20;marker:none;visibility:visible;display:inline;overflow:visible;enable-background:accumulate"
             sodipodi:type="arc" />
        </g>
        <g
           id="g31143"
           transform="translate(-4972.7784,-1735.4246)">
          <path
             sodipodi:type="arc"
             style="opacity:0.09210528;color:#000000;fill:#000000;fill-opacity:1;fill-rule:nonzero;stroke:none;stroke-width:20;marker:none;visibility:visible;display:inline;overflow:visible;enable-background:accumulate"
             id="path31145"
             sodipodi:cx="-3812.8572"
             sodipodi:cy="2730"
             sodipodi:rx="115.71429"
             sodipodi:ry="115.71429"
             d="m -3697.1429,2730 a 115.71429,115.71429 0 1 1 -231.4286,0 115.71429,115.71429 0 1 1 231.4286,0 z"
             transform="matrix(0.07176598,0,0,0.07176598,838.2143,-181.2364)" />
        </g>
      </g>
      <g
         transform="matrix(1,0,0,-1,-2636.762,-2888.3237)"
         id="g31147">
        <g
           transform="matrix(1.0748991,0,0,1.0748991,-3401.9367,-1709.9488)"
           id="g31149">
          <path
             transform="matrix(0.07176598,0,0,0.07176598,838.2143,-181.2364)"
             d="m -3697.1429,2730 a 115.71429,115.71429 0 1 1 -231.4286,0 115.71429,115.71429 0 1 1 231.4286,0 z"
             sodipodi:ry="115.71429"
             sodipodi:rx="115.71429"
             sodipodi:cy="2730"
             sodipodi:cx="-3812.8572"
             id="path31151"
             style="opacity:0.09210528;color:#000000;fill:#000000;fill-opacity:1;fill-rule:nonzero;stroke:none;stroke-width:20;marker:none;visibility:visible;display:inline;overflow:visible;enable-background:accumulate"
             sodipodi:type="arc" />
        </g>
        <g
           id="g31153"
           transform="translate(-3598.5016,-1748.2535)">
          <path
             sodipodi:type="arc"
             style="opacity:0.09210528;color:#000000;fill:#000000;fill-opacity:1;fill-rule:nonzero;stroke:none;stroke-width:20;marker:none;visibility:visible;display:inline;overflow:visible;enable-background:accumulate"
             id="path31155"
             sodipodi:cx="-3812.8572"
             sodipodi:cy="2730"
             sodipodi:rx="115.71429"
             sodipodi:ry="115.71429"
             d="m -3697.1429,2730 a 115.71429,115.71429 0 1 1 -231.4286,0 115.71429,115.71429 0 1 1 231.4286,0 z"
             transform="matrix(0.07176598,0,0,0.07176598,838.2143,-181.2364)" />
        </g>
        <g
           id="g31157"
           transform="translate(-2835.2121,-1705.4904)">
          <path
             sodipodi:type="arc"
             style="opacity:0.24122805;color:#000000;fill:#000000;fill-opacity:1;fill-rule:nonzero;stroke:none;stroke-width:20;marker:none;visibility:visible;display:inline;overflow:visible;enable-background:accumulate"
             id="path31159"
             sodipodi:cx="-3812.8572"
             sodipodi:cy="2730"
             sodipodi:rx="115.71429"
             sodipodi:ry="115.71429"
             d="m -3697.1429,2730 a 115.71429,115.71429 0 1 1 -231.4286,0 115.71429,115.71429 0 1 1 231.4286,0 z"
             transform="matrix(0.18935858,0,0,0.18935858,588.18053,-502.26419)" />
        </g>
        <g
           transform="translate(-3293.8304,-1705.4904)"
           id="g31161">
          <path
             sodipodi:type="arc"
             style="opacity:0.14473685;color:#000000;fill:#000000;fill-opacity:1;fill-rule:nonzero;stroke:none;stroke-width:20;marker:none;visibility:visible;display:inline;overflow:visible;enable-background:accumulate"
             id="path31163"
             sodipodi:cx="-3812.8572"
             sodipodi:cy="2730"
             sodipodi:rx="115.71429"
             sodipodi:ry="115.71429"
             d="m -3697.1429,2730 a 115.71429,115.71429 0 1 1 -231.4286,0 115.71429,115.71429 0 1 1 231.4286,0 z"
             transform="matrix(0.12402936,0,0,0.12402936,684.50856,-323.91542)" />
        </g>
        <g
           transform="matrix(1.4924207,0,0,1.4924207,-1424.188,-1691.7121)"
           id="g31165">
          <path
             sodipodi:type="arc"
             style="opacity:0.24122805;color:#000000;fill:#000000;fill-opacity:1;fill-rule:nonzero;stroke:none;stroke-width:20;marker:none;visibility:visible;display:inline;overflow:visible;enable-background:accumulate"
             id="path31167"
             sodipodi:cx="-3812.8572"
             sodipodi:cy="2730"
             sodipodi:rx="115.71429"
             sodipodi:ry="115.71429"
             d="m -3697.1429,2730 a 115.71429,115.71429 0 1 1 -231.4286,0 115.71429,115.71429 0 1 1 231.4286,0 z"
             transform="matrix(0.32001702,0,0,0.32001702,0.21251212,-858.96174)" />
        </g>
        <g
           id="g31169"
           transform="translate(-1989.62,-1649.8984)">
          <path
             transform="matrix(0.32001702,0,0,0.32001702,0.21251212,-858.96174)"
             d="m -3697.1429,2730 a 115.71429,115.71429 0 1 1 -231.4286,0 115.71429,115.71429 0 1 1 231.4286,0 z"
             sodipodi:ry="115.71429"
             sodipodi:rx="115.71429"
             sodipodi:cy="2730"
             sodipodi:cx="-3812.8572"
             id="path31171"
             style="opacity:0.24122805;color:#000000;fill:#000000;fill-opacity:1;fill-rule:nonzero;stroke:none;stroke-width:20;marker:none;visibility:visible;display:inline;overflow:visible;enable-background:accumulate"
             sodipodi:type="arc" />
        </g>
        <g
           transform="translate(-2354.1594,-1735.4246)"
           id="g31173">
          <path
             transform="matrix(0.26122072,0,0,0.26122072,126.74134,-698.44784)"
             d="m -3697.1429,2730 a 115.71429,115.71429 0 1 1 -231.4286,0 115.71429,115.71429 0 1 1 231.4286,0 z"
             sodipodi:ry="115.71429"
             sodipodi:rx="115.71429"
             sodipodi:cy="2730"
             sodipodi:cx="-3812.8572"
             id="path31175"
             style="opacity:0.24122805;color:#000000;fill:#000000;fill-opacity:1;fill-rule:nonzero;stroke:none;stroke-width:20;marker:none;visibility:visible;display:inline;overflow:visible;enable-background:accumulate"
             sodipodi:type="arc" />
        </g>
      </g>
    </g>
    <g
       transform="matrix(4.0265346,0,0,4.0265346,325.10203,1658.9382)"
       id="g30783"
       gds_color="fireball">
      <path
         sodipodi:nodetypes="ccccc"
         inkscape:connector-curvature="0"
         id="path30785"
         d="m -207.89634,-525.3363 140.302117,0 0,106.45385 -140.302117,0 z"
         style="opacity:0;color:#000000;fill:#cccccc;fill-opacity:1;fill-rule:nonzero;stroke:none;stroke-width:20;marker:none;visibility:visible;display:inline;overflow:visible;enable-background:accumulate" />
      <g
         transform="translate(171.22321,-96.005955)"
         id="g30787">
        <g
           id="g30789">
          <path
             style="color:#000000;fill:#ff8655;fill-opacity:1;fill-rule:nonzero;stroke:none;stroke-width:20;marker:none;visibility:visible;display:inline;overflow:visible;enable-background:accumulate"
             d="m -511.4375,1904.5 c -5.02235,0 -7.84375,1.2188 -7.84375,1.2188 -20.71419,2.857 -22.14279,8.5624 -10,8.5624 12.1429,0 32.1339,-7.8526 23.5625,-9.2812 -2.14288,-0.3571 -4.04463,-0.5 -5.71875,-0.5 z m 26.5625,8.1875 c -3.23327,0.6376 -9.96569,19.4156 -14.65625,26.4375 -6.19763,9.2779 -34.59864,12.2896 -56.75,-6.9062 -15.66275,-13.5734 -62.58755,-3.6967 -71.28125,14.5937 -2.78489,-4.5119 -5.37213,-8.3165 -7.8125,-11.5 1.00322,-0.6384 2.0211,-1.3393 3.03125,-2.125 C -614.16101,1919.0453 -646.5,1917 -646.5,1917 c -1.89631,1.7239 -6.00487,0.5916 -7.33788,2.1596 -8.23198,2.2895 -14.38021,15.6529 -19.59962,29.9029 -6.35615,17.2523 -48.72868,27.2305 -46.0625,51.5937 -0.31994,0.4515 -0.62376,0.9191 -0.9375,1.375 -10.10091,-1.9986 -23.82475,-3.6246 -33.84375,-1.3124 -15.74803,3.634 -32.53179,27.8158 -13.75,67.3124 1.78874,12.9768 8.33489,28.8124 31.46875,33.125 0.59849,2.0872 1.2615,4.1496 1.96875,6.1876 -5.50864,2.0036 -11.88696,7.7114 -19.6875,14.0937 -6.3702,5.212 -9.42895,9.2279 -10.84375,12.1875 -10.39183,13.3009 -12.6875,26.0227 -12.6875,30.875 0,7.5761 12.625,19.1875 12.625,19.1875 0,0 -6.06012,-14.6551 3.03125,-30.3125 9.09137,-15.6573 20.69146,-7.5558 35.84375,-2 0.93279,0.342 1.76467,0.5531 2.53125,0.6875 0.1284,0.08 0.27541,0.14 0.40625,0.2187 1.80575,4.6281 3.8971,9.1152 6.25,13.4376 4.88712,16.9374 -1.27143,23.495 -5.71875,25.7187 -5.71428,2.8571 -27.14285,11.4241 -20,14.2813 7.14286,2.8568 15.70982,12.8526 34.28125,4.2812 13.31767,-6.1466 22.95278,0.9242 27.34375,-4.0625 19.11764,13.4171 42.39912,21.2813 67.53125,21.2813 0.59396,0 1.18929,-0.023 1.78125,-0.031 10.55198,12.8897 12.65615,25.2708 6.8125,27.2187 -9.09137,3.0308 -11.09375,7.0626 -11.09375,7.0626 0,0 20.20162,13.132 34.34375,0 14.14214,-13.1323 14.13357,-23.2118 7.0625,-36.3438 -0.3618,-0.6719 -0.68188,-1.3236 -1,-1.9688 0.51072,-0.029 1.02229,-0.058 1.53125,-0.094 1.21137,4.2993 8.13541,9.4324 18.09375,11.875 22.43342,10.9931 79.91304,11.1816 81.15625,4.3437 0,0 -17.70059,-4.7019 -27.84375,-7.8437 -6.90817,-2.1398 -8.27448,-4.2845 -8.125,-6.6875 4.07068,-4.784 2.56108,-9.4426 0.0312,-11.9062 -0.27242,-0.2655 -0.54911,-0.454 -0.90625,-0.5626 -0.28203,-0.086 -0.60177,-0.1239 -0.9375,-0.125 -0.24814,-0.2429 -0.4942,-0.4699 -0.78125,-0.7187 -2.96128,-2.5664 -5.88603,-3.9873 -8.84375,-4.5937 7.80849,-4.6495 15.02572,-10.1699 21.53125,-16.4376 11.26045,-1.5358 26.66004,-2.0646 42.375,6.3126 48.77454,18.1947 67.28125,-10.3126 67.28125,-10.3126 0,0 -69.90218,-4.2653 -84.625,-31 7.06966,-15.1268 11.03125,-32.0145 11.03125,-49.8124 0,-10.229 -1.30258,-20.1403 -3.75,-29.5938 13.44159,-1.5093 27.6507,-7.6882 39.25,-18.5625 16.16244,-15.1523 7.0625,-23.25 7.0625,-23.25 0,0 -14.15006,8.0929 -30.3125,5.0625 -11.35791,-2.1296 -16.23804,-10.717 -25.84375,-11.0938 -2.42026,-7.3993 -5.54644,-14.483 -9.3125,-21.1562 8.90752,-5.4434 17.3603,-15.1771 19,-25.3438 2.52538,-15.657 4.0625,-21.2187 4.0625,-21.2187 0,0 -20.70939,3.5383 -24.75,9.0937 -3.01167,4.1416 -11.10095,9.1324 -22.75,7.2188 -4.10004,-3.6437 -8.44988,-7.0135 -13.03125,-10.0625 4.77194,0.4941 10.06647,-0.1086 18.125,-3.7813 24.66516,-11.2391 24.33323,-33.8229 24.03125,-44.2187 -0.11831,-4.0728 -0.66386,-5.8371 -1.53125,-6 -0.0968,-0.018 -0.2082,-0.021 -0.3125,0 z m 169.0625,43.0313 c -1.14063,0.025 -1.75,0.094 -1.75,0.094 -8.91704,4.5244 -14.51274,18.9639 0.5,23.2813 15.01266,4.317 35.02914,-10.7328 46.3125,-11.9063 -10.97359,-12.1123 3.17971,0.5749 -22.375,-7.5 -11.0465,-3.7205 -19.2656,-4.0453 -22.6875,-3.9687 z m -422.96875,55.75 c 4.5151,-0.1244 8.51142,1.0279 11.34375,2.0624 -7.44184,14.0059 -12.14806,29.6929 -13.375,46.3438 -7.86276,7.0917 -12.37942,7.7366 -17.46875,2.5625 -5.34203,-10.6694 -8.77871,-28.4901 1.125,-41 5.9375,-7.5 12.56567,-9.8089 18.375,-9.9687 z m 377.875,52.125 c -17.51255,0.5648 -22.58913,3.3869 -16.375,7.9062 6.21413,4.5194 35.00947,9.0363 40.09375,0.5625 5.08429,-8.4738 -23.71875,-8.4687 -23.71875,-8.4687 z m 27.46875,29.625 c -15.54318,0.1774 -20.6272,5.9822 -11.90625,11.0312 10.73348,6.2142 36.71629,5.6613 37.28125,-2.8125 0.56493,-8.4738 -13,-7.3437 -13,-7.3437 -4.6606,-0.6359 -8.78811,-0.9161 -12.375,-0.875 z m -348.6875,160.25 c -0.23991,0.015 -0.47322,0.049 -0.71875,0.094 -7.85718,1.4286 -5.71875,7.875 -5.71875,7.875 4.99997,10.7143 19.99554,22.1339 19.28125,13.5625 -0.69197,-8.3036 -5.40652,-21.9842 -12.84375,-21.5312 z m 57.75,12 c -1.17623,-2e-4 -2.26345,0.2989 -3.15625,0.9687 -5.71442,4.2856 0,13.5625 0,13.5625 8.5714,12.1429 24.29467,11.4419 21.4375,2.1562 -2.4107,-7.8348 -11.92957,-16.6873 -18.28125,-16.6874 z"
             transform="matrix(0.26458334,0,0,0.26458334,-171.22326,-929.91075)"
             id="path30791"
             inkscape:connector-curvature="0"
             sodipodi:nodetypes="scscscscccccccccccccscscsccccccscscccssccccsccccccccccscscsccccccccsccccccccccccsccssccsscccccsccccsc" />
        </g>
        <g
           id="g30793" />
      </g>
      <g
         transform="matrix(0.5,-0.8660254,0.8660254,0.5,364.72321,-447.85355)"
         id="g30795">
        <path
           inkscape:connector-curvature="0"
           id="path30797"
           d="m -246.88155,-501.20014 c -12.84197,0 -23.25026,10.40828 -23.25026,23.25026 0,0.16494 0.005,0.33197 0.008,0.49609 -1.98133,1.89744 -3.21634,4.56414 -3.21634,7.52409 0,2.8742 1.16125,5.48137 3.04271,7.36701 -0.59222,1.89254 -0.90951,3.90668 -0.90951,5.99445 0,11.07067 8.97979,20.05044 20.05046,20.05044 0.10045,0 0.19756,-0.007 0.29766,-0.008 1.89115,1.00304 4.34873,1.61232 7.03626,1.61232 0.76419,0 1.51304,-0.0556 2.23242,-0.14886 2.91233,1.45788 6.19534,2.28203 9.67383,2.28203 11.95632,0 21.64622,-9.68988 21.64622,-21.6462 0,-1.4334 -0.13932,-2.83649 -0.40514,-4.192 2.79946,-1.61655 4.68809,-4.63786 4.68809,-8.10287 0,-3.31374 -1.72526,-6.22606 -4.32429,-7.88789 0.0279,-0.39634 0.0413,-0.79544 0.0413,-1.1989 0,-7.9552 -5.515,-14.61831 -12.93151,-16.37935 0.0675,-0.41143 0.10749,-0.82624 0.10749,-1.25677 0,-4.28067 -3.47494,-7.7556 -7.7556,-7.7556 -2.2274,0 -4.22513,0.94297 -5.63893,2.44739 -3.1282,-1.56604 -6.65677,-2.44739 -10.39317,-2.44739 z"
           style="color:#000000;fill:#ffffff;fill-opacity:1;fill-rule:nonzero;stroke:none;stroke-width:20;marker:none;visibility:visible;display:inline;overflow:visible;enable-background:accumulate" />
        <path
           transform="matrix(0.26458334,0,0,0.26458334,-17.29762,-1651.4597)"
           d="m -779.83774,4435.3247 a 87.88327,87.88327 0 1 1 -175.76654,0 87.88327,87.88327 0 1 1 175.76654,0 z"
           sodipodi:ry="87.88327"
           sodipodi:rx="87.88327"
           sodipodi:cy="4435.3247"
           sodipodi:cx="-867.72101"
           id="path30799"
           style="color:#000000;fill:#ffcc00;fill-opacity:1;fill-rule:nonzero;stroke:none;stroke-width:20;marker:none;visibility:visible;display:inline;overflow:visible;enable-background:accumulate"
           sodipodi:type="arc" />
        <path
           transform="matrix(0.26458334,0,0,0.26458334,-17.29762,-1651.4597)"
           d="m -729.33011,4524.2183 a 81.822357,81.822357 0 1 1 -163.64471,0 81.822357,81.822357 0 1 1 163.64471,0 z"
           sodipodi:ry="81.822357"
           sodipodi:rx="81.822357"
           sodipodi:cy="4524.2183"
           sodipodi:cx="-811.15247"
           id="path30801"
           style="color:#000000;fill:#ffcc00;fill-opacity:1;fill-rule:nonzero;stroke:none;stroke-width:20;marker:none;visibility:visible;display:inline;overflow:visible;enable-background:accumulate"
           sodipodi:type="arc" />
        <path
           transform="matrix(0.26458334,0,0,0.26458334,-17.29762,-1651.4597)"
           d="m -808.12204,4516.1367 a 75.761444,75.761444 0 1 1 -151.52289,0 75.761444,75.761444 0 1 1 151.52289,0 z"
           sodipodi:ry="75.761444"
           sodipodi:rx="75.761444"
           sodipodi:cy="4516.1367"
           sodipodi:cx="-883.88348"
           id="path30803"
           style="color:#000000;fill:#ffcc00;fill-opacity:1;fill-rule:nonzero;stroke:none;stroke-width:20;marker:none;visibility:visible;display:inline;overflow:visible;enable-background:accumulate"
           sodipodi:type="arc" />
        <path
           transform="matrix(0.26458334,0,0,0.26458334,-17.29762,-1651.4597)"
           d="m -888.93425,4465.6294 a 39.39595,39.39595 0 1 1 -78.7919,0 39.39595,39.39595 0 1 1 78.7919,0 z"
           sodipodi:ry="39.39595"
           sodipodi:rx="39.39595"
           sodipodi:cy="4465.6294"
           sodipodi:cx="-928.3302"
           id="path30805"
           style="color:#000000;fill:#ffcc00;fill-opacity:1;fill-rule:nonzero;stroke:none;stroke-width:20;marker:none;visibility:visible;display:inline;overflow:visible;enable-background:accumulate"
           sodipodi:type="arc" />
        <path
           transform="matrix(0.26458334,0,0,0.26458334,-17.29762,-1651.4597)"
           d="m -777.81745,4376.7358 a 29.294424,29.294424 0 1 1 -58.58885,0 29.294424,29.294424 0 1 1 58.58885,0 z"
           sodipodi:ry="29.294424"
           sodipodi:rx="29.294424"
           sodipodi:cy="4376.7358"
           sodipodi:cx="-807.11188"
           id="path30807"
           style="color:#000000;fill:#ffcc00;fill-opacity:1;fill-rule:nonzero;stroke:none;stroke-width:20;marker:none;visibility:visible;display:inline;overflow:visible;enable-background:accumulate"
           sodipodi:type="arc" />
        <path
           transform="matrix(0.26458334,0,0,0.26458334,-17.29762,-1651.4597)"
           d="m -713.16767,4477.751 a 35.355339,35.355339 0 1 1 -70.71068,0 35.355339,35.355339 0 1 1 70.71068,0 z"
           sodipodi:ry="35.355339"
           sodipodi:rx="35.355339"
           sodipodi:cy="4477.751"
           sodipodi:cx="-748.52301"
           id="path30809"
           style="color:#000000;fill:#ffcc00;fill-opacity:1;fill-rule:nonzero;stroke:none;stroke-width:20;marker:none;visibility:visible;display:inline;overflow:visible;enable-background:accumulate"
           sodipodi:type="arc" />
        <path
           transform="matrix(0.26458334,0,0,0.26458334,-17.29762,-1651.4597)"
           d="m -815.2924,4572.7056 a 40.86153,25.253813 0 1 1 -81.72306,0 40.86153,25.253813 0 1 1 81.72306,0 z"
           sodipodi:ry="25.253813"
           sodipodi:rx="40.86153"
           sodipodi:cy="4572.7056"
           sodipodi:cx="-856.15393"
           id="path30811"
           style="opacity:0.42307691;color:#000000;fill:#ffcc00;fill-opacity:1;fill-rule:nonzero;stroke:none;stroke-width:20;marker:none;visibility:visible;display:inline;overflow:visible;enable-background:accumulate"
           sodipodi:type="arc" />
        <g
           transform="matrix(-0.98182419,-0.18979268,0.18979268,-0.98182419,-461.51592,-368.61541)"
           id="g30813">
          <path
             sodipodi:type="arc"
             style="color:#000000;fill:#ffcc00;fill-opacity:1;fill-rule:nonzero;stroke:none;stroke-width:20;marker:none;visibility:visible;display:inline;overflow:visible;enable-background:accumulate"
             id="path30815"
             sodipodi:cx="-792.96973"
             sodipodi:cy="4443.4058"
             sodipodi:rx="63.63961"
             sodipodi:ry="63.63961"
             d="m -729.33012,4443.4058 a 63.63961,63.63961 0 1 1 -127.27922,0 63.63961,63.63961 0 1 1 127.27922,0 z"
             transform="matrix(0.26458334,0,0,0.26458334,-5e-5,-1025.9167)" />
          <path
             inkscape:connector-curvature="0"
             style="color:#000000;fill:#ffff00;fill-opacity:1;fill-rule:nonzero;stroke:none;stroke-width:20;marker:none;visibility:visible;display:inline;overflow:visible;enable-background:accumulate"
             d="m -609.5625,1965.375 c -17.29829,0.4003 -34.35845,7.8329 -46.59375,21.9375 -4.17085,4.8081 -7.48252,10.0442 -9.96875,15.5625 -8.93721,1.4095 -17.60382,4.1906 -25.71875,8.25 -0.75691,-3.8843 -2.66131,-8.6453 -1.03125,-11.4688 7.35904,-12.7462 21.0503,-19.3226 33.9375,-17.5 -13.90701,-7.5566 -31.38335,-2.694 -39.34375,11.0938 -4.20594,7.2849 -4.90569,15.6297 -2.65625,23.0938 -11.02949,7.2795 -20.56713,17.1816 -27.625,29.4062 -24.26829,42.0339 -9.87769,95.763 32.15625,120.0312 0.52186,0.3013 1.06217,0.5607 1.59375,0.8438 1.56878,6.4596 4.73922,12.5055 9.375,17.5 -6.12535,-11.5834 -6.34762,-25.9398 0.6875,-38.125 10.8789,-18.8428 34.9698,-25.3163 53.8125,-14.4375 3.53306,2.0398 6.62054,4.559 9.25,7.4063 -3.34576,-6.364 -8.4693,-11.8894 -15.15625,-15.75 -18.8428,-10.8789 -42.9336,-4.4366 -53.8125,14.4062 -2.7676,4.7936 -4.42661,9.9237 -5.03125,15.0938 -41.71025,-49.7233 -27.03492,-123.1192 25.875,-139.1876 -4.06709,16.2779 -1.56579,33.7421 7.21875,48.3126 -7.52873,-20.9568 -3.84885,-45.2633 11.78125,-63.2813 23.03116,-26.5498 63.23154,-29.4061 89.78125,-6.375 5.19533,4.5068 9.47963,9.6597 12.84375,15.25 -3.56376,-9.9332 -9.67969,-19.0926 -18.21875,-26.5 -12.44521,-10.7959 -27.89306,-15.9157 -43.15625,-15.5625 z m 52.625,6.9375 c -4.87825,0.1207 -9.67955,1.2641 -14.09375,3.3125 8.3507,-1.87 17.41102,-0.7411 25.40625,3.875 16.91019,9.7631 22.66936,31.4023 12.90625,48.3125 -3.77735,6.5426 -9.31934,11.3864 -15.6875,14.3437 9.31013,-2.0856 17.72847,-7.8984 22.875,-16.8124 3.05097,-5.2846 4.59932,-11.0181 4.75,-16.7188 39.23198,26.2484 51.88175,78.8086 27.9375,120.2812 -1.56557,2.7117 -3.2724,5.296 -5.0625,7.7813 0.82254,-10.6617 -2.30909,-19.6573 -9.34375,-23.7187 -1.05619,-0.6098 -2.16101,-1.0851 -3.3125,-1.4376 9.21767,8.5558 8.8367,28.0255 -1.46875,45.875 -10.30505,17.8489 -26.98179,27.8912 -39,24.1876 0.88117,0.8212 1.8497,1.5462 2.90625,2.1562 3.08838,1.7831 6.63344,2.423 10.375,2.0938 -23.72444,21.8615 -59.77134,26.8584 -89.1875,9.875 -24.59268,-14.1986 -38.23206,-40.1162 -37.90625,-66.625 -6.26666,31.0213 7.45277,63.9267 36.375,80.625 36.23615,20.9209 82.6103,8.4861 103.53125,-27.75 0.19111,-0.3311 0.37802,-0.667 0.5625,-1 6.84839,-4.2923 13.45654,-11.1792 18.53125,-19.9688 1.44026,-2.4946 2.69711,-5.0382 3.75,-7.5625 10.27704,-6.7729 19.17453,-15.9859 25.75,-27.375 22.59462,-39.135 9.1975,-89.1866 -29.9375,-111.7813 -4.70012,-2.7135 -9.55467,-4.8996 -14.5,-6.5937 4.4e-4,-12.2167 -6.31873,-24.1105 -17.65625,-30.6563 -5.83008,-3.3658 -12.22797,-4.8739 -18.5,-4.7187 z"
             transform="matrix(-0.17337548,-0.19986317,0.19986317,-0.17337548,-720.75527,379.97623)"
             id="path30817" />
        </g>
        <path
           transform="matrix(0.26458334,0,0,0.26458334,-17.29762,-1651.4597)"
           d="m -782.14283,4468.2144 a 53.214287,53.214287 0 1 1 -106.42857,0 53.214287,53.214287 0 1 1 106.42857,0 z"
           sodipodi:ry="53.214287"
           sodipodi:rx="53.214287"
           sodipodi:cy="4468.2144"
           sodipodi:cx="-835.35712"
           id="path30819"
           style="color:#000000;fill:#ffcc00;fill-opacity:1;fill-rule:nonzero;stroke:none;stroke-width:20;marker:none;visibility:visible;display:inline;overflow:visible;enable-background:accumulate"
           sodipodi:type="arc" />
        <path
           transform="matrix(0.26458334,0,0,0.26458334,-25.80209,-1655.4285)"
           d="m -707.85715,4495.3569 a 100.35714,100.35714 0 1 1 -200.71428,0 100.35714,100.35714 0 1 1 200.71428,0 z"
           sodipodi:ry="100.35714"
           sodipodi:rx="100.35714"
           sodipodi:cy="4495.3569"
           sodipodi:cx="-808.21429"
           id="path30821"
           style="color:#000000;fill:url(#radialGradient6112);fill-opacity:1;fill-rule:nonzero;stroke:none;stroke-width:20;marker:none;visibility:visible;display:inline;overflow:visible;enable-background:accumulate"
           sodipodi:type="arc" />
        <path
           transform="matrix(0.26458334,0,0,0.26458334,-17.29762,-1651.4597)"
           d="m -770.7464,4514.6216 a 41.921329,41.921329 0 1 1 -83.84265,0 41.921329,41.921329 0 1 1 83.84265,0 z"
           sodipodi:ry="41.921329"
           sodipodi:rx="41.921329"
           sodipodi:cy="4514.6216"
           sodipodi:cx="-812.66772"
           id="path30823"
           style="opacity:0.38938054;color:#000000;fill:#ffffff;fill-opacity:1;fill-rule:nonzero;stroke:none;stroke-width:20;marker:none;visibility:visible;display:inline;overflow:visible;enable-background:accumulate"
           sodipodi:type="arc" />
        <path
           transform="matrix(0.26458334,0,0,0.26458334,-15.15946,-1653.3306)"
           d="m -755.5941,4463.6089 a 45.456863,45.456863 0 1 1 -90.91373,0 45.456863,45.456863 0 1 1 90.91373,0 z"
           sodipodi:ry="45.456863"
           sodipodi:rx="45.456863"
           sodipodi:cy="4463.6089"
           sodipodi:cx="-801.05096"
           id="path30825"
           style="opacity:0.38938054;color:#000000;fill:#ffffff;fill-opacity:1;fill-rule:nonzero;stroke:none;stroke-width:20;marker:none;visibility:visible;display:inline;overflow:visible;enable-background:accumulate"
           sodipodi:type="arc" />
        <path
           transform="matrix(0.26458334,0,0,0.26458334,-22.10847,-1651.727)"
           d="m -791.95959,4500.9849 a 59.598999,59.598999 0 1 1 -119.198,0 59.598999,59.598999 0 1 1 119.198,0 z"
           sodipodi:ry="59.598999"
           sodipodi:rx="59.598999"
           sodipodi:cy="4500.9849"
           sodipodi:cx="-851.55859"
           id="path30827"
           style="opacity:0.38938054;color:#000000;fill:#ffffff;fill-opacity:1;fill-rule:nonzero;stroke:none;stroke-width:20;marker:none;visibility:visible;display:inline;overflow:visible;enable-background:accumulate"
           sodipodi:type="arc" />
        <path
           transform="matrix(0.26458334,0,0,0.26458334,-17.03035,-1651.9942)"
           d="m -806.10175,4451.4873 a 35.355339,35.355339 0 1 1 -70.71068,0 35.355339,35.355339 0 1 1 70.71068,0 z"
           sodipodi:ry="35.355339"
           sodipodi:rx="35.355339"
           sodipodi:cy="4451.4873"
           sodipodi:cx="-841.45709"
           id="path30829"
           style="opacity:0.38938054;color:#000000;fill:#ffffff;fill-opacity:1;fill-rule:nonzero;stroke:none;stroke-width:20;marker:none;visibility:visible;display:inline;overflow:visible;enable-background:accumulate"
           sodipodi:type="arc" />
        <path
           transform="matrix(0.26458334,0,0,0.26458334,-17.29762,-1651.4597)"
           d="m -849.53832,4430.2739 a 30.304577,30.304577 0 1 1 -60.60915,0 30.304577,30.304577 0 1 1 60.60915,0 z"
           sodipodi:ry="30.304577"
           sodipodi:rx="30.304577"
           sodipodi:cy="4430.2739"
           sodipodi:cx="-879.8429"
           id="path30831"
           style="opacity:0.38938054;color:#000000;fill:#ffffff;fill-opacity:1;fill-rule:nonzero;stroke:none;stroke-width:20;marker:none;visibility:visible;display:inline;overflow:visible;enable-background:accumulate"
           sodipodi:type="arc" />
        <path
           inkscape:connector-curvature="0"
           id="path30833"
           d="m -216.42966,-477.8672 c 0.1833,0.83466 0.28112,1.70651 0.28112,2.59623 0,5.65218 -3.89896,10.38778 -9.15293,11.67474 1.01847,1.12638 1.60922,1.99397 1.94304,2.69544 4.80954,-1.57499 8.28476,-6.10008 8.28476,-11.43498 0,-1.99691 -0.49478,-3.87397 -1.35599,-5.53143 z"
           style="color:#000000;fill:#ffffff;fill-opacity:1;fill-rule:nonzero;stroke:none;stroke-width:20;marker:none;visibility:visible;display:inline;overflow:visible;enable-background:accumulate" />
        <path
           inkscape:connector-curvature="0"
           id="path30835"
           d="m -262.38448,-465.81212 c -0.51846,1.56247 -0.80201,3.23273 -0.80201,4.96922 0,8.70892 7.05859,15.7675 15.76751,15.7675 8.01443,0 14.63069,-5.97625 15.63522,-13.71698 -2.08781,6.26322 -8.00057,10.78177 -14.96549,10.78177 -8.70893,0 -15.76752,-7.05861 -15.76752,-15.76753 0,-0.68876 0.0466,-1.36853 0.13229,-2.03398 z"
           style="color:#000000;fill:#ffffff;fill-opacity:1;fill-rule:nonzero;stroke:none;stroke-width:20;marker:none;visibility:visible;display:inline;overflow:visible;enable-background:accumulate" />
        <path
           inkscape:connector-curvature="0"
           id="path30837"
           d="m -232.31292,-468.06108 c -0.47418,0 -0.94709,0.0332 -1.4056,0.0909 5.46285,0.69011 9.69036,5.35487 9.69036,11.00503 0,5.64996 -4.22775,10.30642 -9.69036,10.99674 0.45867,0.0578 0.93124,0.0909 1.4056,0.0909 6.12576,0 11.08769,-4.96192 11.08769,-11.08768 0,-6.12577 -4.96193,-11.09597 -11.08769,-11.09597 z"
           style="color:#000000;fill:#ffffff;fill-opacity:1;fill-rule:nonzero;stroke:none;stroke-width:20;marker:none;visibility:visible;display:inline;overflow:visible;enable-background:accumulate" />
        <path
           inkscape:connector-curvature="0"
           id="path30839"
           d="m -239.66338,-483.55574 c -5.16631,0 -9.35964,4.18505 -9.35964,9.35138 0,0.95377 0.14813,1.86986 0.41342,2.73677 -0.004,-0.11104 -0.008,-0.21878 -0.008,-0.33073 0,-5.46153 4.42727,-9.8888 9.8888,-9.8888 3.01111,0 5.70204,1.34974 7.51582,3.47266 -1.50134,-3.16037 -4.71853,-5.34128 -8.45013,-5.34128 z"
           style="color:#000000;fill:#ffffff;fill-opacity:1;fill-rule:nonzero;stroke:none;stroke-width:20;marker:none;visibility:visible;display:inline;overflow:visible;enable-background:accumulate" />
      </g>
    </g>
  </g>
</svg>
