<?xml version="1.0" encoding="UTF-8" standalone="no"?>
<!-- Created with Inkscape (http://www.inkscape.org/) -->

<svg
   xmlns:dc="http://purl.org/dc/elements/1.1/"
   xmlns:cc="http://creativecommons.org/ns#"
   xmlns:rdf="http://www.w3.org/1999/02/22-rdf-syntax-ns#"
   xmlns:svg="http://www.w3.org/2000/svg"
   xmlns="http://www.w3.org/2000/svg"
   xmlns:xlink="http://www.w3.org/1999/xlink"
   xmlns:sodipodi="http://sodipodi.sourceforge.net/DTD/sodipodi-0.dtd"
   xmlns:inkscape="http://www.inkscape.org/namespaces/inkscape"
   width="1023.9995"
   height="428.64011"
   id="svg4611"
   version="1.1"
   inkscape:version="0.48.5 r10040"
   sodipodi:docname="smoking_fireball_04.svg">
  <defs
     id="defs4613">
    <radialGradient
       inkscape:collect="always"
       xlink:href="#linearGradient25629"
       id="radialGradient32259"
       gradientUnits="userSpaceOnUse"
       gradientTransform="matrix(0,0.9421926,-1,0,3676.4288,5242.6685)"
       cx="-795.81506"
       cy="4484.2861"
       fx="-795.81506"
       fy="4484.2861"
       r="100.35714" />
    <linearGradient
       id="linearGradient25629">
      <stop
         style="stop-color:#ffffff;stop-opacity:1"
         offset="0"
         id="stop25631" />
      <stop
         id="stop25637"
         offset="0.69999999"
         style="stop-color:#ffff00;stop-opacity:1" />
      <stop
         style="stop-color:#ffff00;stop-opacity:0"
         offset="1"
         id="stop25633" />
    </linearGradient>
    <radialGradient
       inkscape:collect="always"
       xlink:href="#linearGradient25629"
       id="radialGradient32261"
       gradientUnits="userSpaceOnUse"
       gradientTransform="matrix(0,0.9421926,-1,0,3676.4288,5242.6685)"
       cx="-795.81506"
       cy="4484.2861"
       fx="-795.81506"
       fy="4484.2861"
       r="100.35714" />
    <linearGradient
       id="linearGradient4635">
      <stop
         style="stop-color:#ffffff;stop-opacity:1"
         offset="0"
         id="stop4637" />
      <stop
         id="stop4639"
         offset="0.69999999"
         style="stop-color:#ffff00;stop-opacity:1" />
      <stop
         style="stop-color:#ffff00;stop-opacity:0"
         offset="1"
         id="stop4641" />
    </linearGradient>
    <radialGradient
       inkscape:collect="always"
       xlink:href="#linearGradient25629"
       id="radialGradient32263"
       gradientUnits="userSpaceOnUse"
       gradientTransform="matrix(0,0.9421926,-1,0,3676.4288,5242.6685)"
       cx="-795.81506"
       cy="4484.2861"
       fx="-795.81506"
       fy="4484.2861"
       r="100.35714" />
    <linearGradient
       id="linearGradient4644">
      <stop
         style="stop-color:#ffffff;stop-opacity:1"
         offset="0"
         id="stop4646" />
      <stop
         id="stop4648"
         offset="0.69999999"
         style="stop-color:#ffff00;stop-opacity:1" />
      <stop
         style="stop-color:#ffff00;stop-opacity:0"
         offset="1"
         id="stop4650" />
    </linearGradient>
    <radialGradient
       inkscape:collect="always"
       xlink:href="#linearGradient25629"
       id="radialGradient32265"
       gradientUnits="userSpaceOnUse"
       gradientTransform="matrix(0,0.9421926,-1,0,3676.4288,5242.6685)"
       cx="-795.81506"
       cy="4484.2861"
       fx="-795.81506"
       fy="4484.2861"
       r="100.35714" />
    <linearGradient
       id="linearGradient4653">
      <stop
         style="stop-color:#ffffff;stop-opacity:1"
         offset="0"
         id="stop4655" />
      <stop
         id="stop4657"
         offset="0.69999999"
         style="stop-color:#ffff00;stop-opacity:1" />
      <stop
         style="stop-color:#ffff00;stop-opacity:0"
         offset="1"
         id="stop4659" />
    </linearGradient>
    <radialGradient
       inkscape:collect="always"
       xlink:href="#linearGradient25629"
       id="radialGradient32267"
       gradientUnits="userSpaceOnUse"
       gradientTransform="matrix(0,0.9421926,-1,0,3676.4288,5242.6685)"
       cx="-795.81506"
       cy="4484.2861"
       fx="-795.81506"
       fy="4484.2861"
       r="100.35714" />
    <linearGradient
       id="linearGradient4662">
      <stop
         style="stop-color:#ffffff;stop-opacity:1"
         offset="0"
         id="stop4664" />
      <stop
         id="stop4666"
         offset="0.69999999"
         style="stop-color:#ffff00;stop-opacity:1" />
      <stop
         style="stop-color:#ffff00;stop-opacity:0"
         offset="1"
         id="stop4668" />
    </linearGradient>
    <radialGradient
       inkscape:collect="always"
       xlink:href="#linearGradient25629"
       id="radialGradient32269"
       gradientUnits="userSpaceOnUse"
       gradientTransform="matrix(0,0.9421926,-1,0,3676.4288,5242.6685)"
       cx="-795.81506"
       cy="4484.2861"
       fx="-795.81506"
       fy="4484.2861"
       r="100.35714" />
    <linearGradient
       id="linearGradient4671">
      <stop
         style="stop-color:#ffffff;stop-opacity:1"
         offset="0"
         id="stop4673" />
      <stop
         id="stop4675"
         offset="0.69999999"
         style="stop-color:#ffff00;stop-opacity:1" />
      <stop
         style="stop-color:#ffff00;stop-opacity:0"
         offset="1"
         id="stop4677" />
    </linearGradient>
  </defs>
  <sodipodi:namedview
     id="base"
     pagecolor="#ffffff"
     bordercolor="#666666"
     borderopacity="1.0"
     inkscape:pageopacity="0.0"
     inkscape:pageshadow="2"
     inkscape:zoom="0.98994949"
     inkscape:cx="464.48584"
     inkscape:cy="224.02008"
     inkscape:document-units="px"
     inkscape:current-layer="layer1"
     showgrid="false"
     inkscape:window-width="1920"
     inkscape:window-height="1017"
     inkscape:window-x="-8"
     inkscape:window-y="-8"
     inkscape:window-maximized="1" />
  <metadata
     id="metadata4616">
    <rdf:RDF>
      <cc:Work
         rdf:about="">
        <dc:format>image/svg+xml</dc:format>
        <dc:type
           rdf:resource="http://purl.org/dc/dcmitype/StillImage" />
        <dc:title />
      </cc:Work>
    </rdf:RDF>
  </metadata>
  <g
     inkscape:label="Layer 1"
     inkscape:groupmode="layer"
     id="layer1"
     transform="translate(511.99927,-400.93375)">
    <g
       id="g31269"
       transform="matrix(1.3276229,0,0,1.3276229,5939.5755,2206.1095)"
       gds_color="smoke"
       gds_switchable="smoke">
      <rect
         style="opacity:0;color:#000000;fill:#dbe3e2;fill-opacity:1;fill-rule:nonzero;stroke:none;stroke-width:20;marker:none;visibility:visible;display:inline;overflow:visible;enable-background:accumulate"
         id="rect31271"
         width="565.45239"
         height="269.11905"
         x="-4653.6431"
         y="-1332.8334" />
      <g
         id="g31273"
         transform="matrix(1.0748991,0,0,1.0748991,-4169.0049,-1218.1729)">
        <path
           sodipodi:type="arc"
           style="opacity:0.24122805;color:#000000;fill:#000000;fill-opacity:1;fill-rule:nonzero;stroke:none;stroke-width:20;marker:none;visibility:visible;display:inline;overflow:visible;enable-background:accumulate"
           id="path31275"
           sodipodi:cx="-3812.8572"
           sodipodi:cy="2730"
           sodipodi:rx="115.71429"
           sodipodi:ry="115.71429"
           d="m -3697.1429,2730 a 115.71429,115.71429 0 1 1 -231.4286,0 115.71429,115.71429 0 1 1 231.4286,0 z"
           transform="matrix(0.18935858,0,0,0.18935858,588.18053,-502.26419)" />
      </g>
      <g
         transform="translate(-4312.1204,-1256.4776)"
         id="g31277">
        <path
           transform="matrix(0.18935858,0,0,0.18935858,588.18053,-502.26419)"
           d="m -3697.1429,2730 a 115.71429,115.71429 0 1 1 -231.4286,0 115.71429,115.71429 0 1 1 231.4286,0 z"
           sodipodi:ry="115.71429"
           sodipodi:rx="115.71429"
           sodipodi:cy="2730"
           sodipodi:cx="-3812.8572"
           id="path31279"
           style="opacity:0.24122805;color:#000000;fill:#000000;fill-opacity:1;fill-rule:nonzero;stroke:none;stroke-width:20;marker:none;visibility:visible;display:inline;overflow:visible;enable-background:accumulate"
           sodipodi:type="arc" />
      </g>
      <g
         transform="translate(-3548.831,-1213.7145)"
         id="g31281">
        <path
           transform="matrix(0.26122072,0,0,0.26122072,126.74134,-698.44784)"
           d="m -3697.1429,2730 a 115.71429,115.71429 0 1 1 -231.4286,0 115.71429,115.71429 0 1 1 231.4286,0 z"
           sodipodi:ry="115.71429"
           sodipodi:rx="115.71429"
           sodipodi:cy="2730"
           sodipodi:cx="-3812.8572"
           id="path31283"
           style="opacity:0.24122805;color:#000000;fill:#000000;fill-opacity:1;fill-rule:nonzero;stroke:none;stroke-width:20;marker:none;visibility:visible;display:inline;overflow:visible;enable-background:accumulate"
           sodipodi:type="arc" />
      </g>
      <g
         id="g31285"
         transform="translate(-4007.4493,-1213.7145)">
        <path
           transform="matrix(0.22855611,0,0,0.22855611,374.07323,-609.27345)"
           d="m -3697.1429,2730 a 115.71429,115.71429 0 1 1 -231.4286,0 115.71429,115.71429 0 1 1 231.4286,0 z"
           sodipodi:ry="115.71429"
           sodipodi:rx="115.71429"
           sodipodi:cy="2730"
           sodipodi:cx="-3812.8572"
           id="path31287"
           style="opacity:0.24122805;color:#000000;fill:#000000;fill-opacity:1;fill-rule:nonzero;stroke:none;stroke-width:20;marker:none;visibility:visible;display:inline;overflow:visible;enable-background:accumulate"
           sodipodi:type="arc" />
      </g>
      <g
         transform="matrix(1.4924207,0,0,1.4924207,-4668.1812,-1199.9362)"
         id="g31289">
        <path
           sodipodi:type="arc"
           style="opacity:0.14473685;color:#000000;fill:#000000;fill-opacity:1;fill-rule:nonzero;stroke:none;stroke-width:20;marker:none;visibility:visible;display:inline;overflow:visible;enable-background:accumulate"
           id="path31291"
           sodipodi:cx="-3812.8572"
           sodipodi:cy="2730"
           sodipodi:rx="115.71429"
           sodipodi:ry="115.71429"
           d="m -3697.1429,2730 a 115.71429,115.71429 0 1 1 -231.4286,0 115.71429,115.71429 0 1 1 231.4286,0 z"
           transform="matrix(0.12402936,0,0,0.12402936,684.50856,-323.91542)" />
      </g>
      <g
         id="g31293"
         transform="translate(-4608.2388,-1158.1225)">
        <path
           transform="matrix(0.12402936,0,0,0.12402936,684.50856,-323.91542)"
           d="m -3697.1429,2730 a 115.71429,115.71429 0 1 1 -231.4286,0 115.71429,115.71429 0 1 1 231.4286,0 z"
           sodipodi:ry="115.71429"
           sodipodi:rx="115.71429"
           sodipodi:cy="2730"
           sodipodi:cx="-3812.8572"
           id="path31295"
           style="opacity:0.14473685;color:#000000;fill:#000000;fill-opacity:1;fill-rule:nonzero;stroke:none;stroke-width:20;marker:none;visibility:visible;display:inline;overflow:visible;enable-background:accumulate"
           sodipodi:type="arc" />
      </g>
      <g
         id="g31297"
         transform="translate(-4972.7784,-1243.6487)">
        <path
           sodipodi:type="arc"
           style="opacity:0.09210528;color:#000000;fill:#000000;fill-opacity:1;fill-rule:nonzero;stroke:none;stroke-width:20;marker:none;visibility:visible;display:inline;overflow:visible;enable-background:accumulate"
           id="path31299"
           sodipodi:cx="-3812.8572"
           sodipodi:cy="2730"
           sodipodi:rx="115.71429"
           sodipodi:ry="115.71429"
           d="m -3697.1429,2730 a 115.71429,115.71429 0 1 1 -231.4286,0 115.71429,115.71429 0 1 1 231.4286,0 z"
           transform="matrix(0.07176598,0,0,0.07176598,838.2143,-181.2364)" />
      </g>
      <g
         id="g31301"
         transform="matrix(1,0,0,-1,-1348.6189,-2888.3237)">
        <g
           id="g31303"
           transform="matrix(1.0748991,0,0,1.0748991,-3401.9367,-1709.9488)">
          <path
             sodipodi:type="arc"
             style="opacity:0.09210528;color:#000000;fill:#000000;fill-opacity:1;fill-rule:nonzero;stroke:none;stroke-width:20;marker:none;visibility:visible;display:inline;overflow:visible;enable-background:accumulate"
             id="path31305"
             sodipodi:cx="-3812.8572"
             sodipodi:cy="2730"
             sodipodi:rx="115.71429"
             sodipodi:ry="115.71429"
             d="m -3697.1429,2730 a 115.71429,115.71429 0 1 1 -231.4286,0 115.71429,115.71429 0 1 1 231.4286,0 z"
             transform="matrix(0.07176598,0,0,0.07176598,838.2143,-181.2364)" />
        </g>
        <g
           transform="translate(-3598.5016,-1748.2535)"
           id="g31307">
          <path
             transform="matrix(0.07176598,0,0,0.07176598,838.2143,-181.2364)"
             d="m -3697.1429,2730 a 115.71429,115.71429 0 1 1 -231.4286,0 115.71429,115.71429 0 1 1 231.4286,0 z"
             sodipodi:ry="115.71429"
             sodipodi:rx="115.71429"
             sodipodi:cy="2730"
             sodipodi:cx="-3812.8572"
             id="path31309"
             style="opacity:0.09210528;color:#000000;fill:#000000;fill-opacity:1;fill-rule:nonzero;stroke:none;stroke-width:20;marker:none;visibility:visible;display:inline;overflow:visible;enable-background:accumulate"
             sodipodi:type="arc" />
        </g>
        <g
           transform="translate(-2835.2121,-1705.4904)"
           id="g31311">
          <path
             transform="matrix(0.18935858,0,0,0.18935858,588.18053,-502.26419)"
             d="m -3697.1429,2730 a 115.71429,115.71429 0 1 1 -231.4286,0 115.71429,115.71429 0 1 1 231.4286,0 z"
             sodipodi:ry="115.71429"
             sodipodi:rx="115.71429"
             sodipodi:cy="2730"
             sodipodi:cx="-3812.8572"
             id="path31313"
             style="opacity:0.24122805;color:#000000;fill:#000000;fill-opacity:1;fill-rule:nonzero;stroke:none;stroke-width:20;marker:none;visibility:visible;display:inline;overflow:visible;enable-background:accumulate"
             sodipodi:type="arc" />
        </g>
        <g
           id="g31315"
           transform="translate(-3293.8304,-1705.4904)">
          <path
             transform="matrix(0.12402936,0,0,0.12402936,684.50856,-323.91542)"
             d="m -3697.1429,2730 a 115.71429,115.71429 0 1 1 -231.4286,0 115.71429,115.71429 0 1 1 231.4286,0 z"
             sodipodi:ry="115.71429"
             sodipodi:rx="115.71429"
             sodipodi:cy="2730"
             sodipodi:cx="-3812.8572"
             id="path31317"
             style="opacity:0.14473685;color:#000000;fill:#000000;fill-opacity:1;fill-rule:nonzero;stroke:none;stroke-width:20;marker:none;visibility:visible;display:inline;overflow:visible;enable-background:accumulate"
             sodipodi:type="arc" />
        </g>
        <g
           id="g31319"
           transform="matrix(1.4924207,0,0,1.4924207,-1424.188,-1691.7121)">
          <path
             transform="matrix(0.32001702,0,0,0.32001702,0.21251212,-858.96174)"
             d="m -3697.1429,2730 a 115.71429,115.71429 0 1 1 -231.4286,0 115.71429,115.71429 0 1 1 231.4286,0 z"
             sodipodi:ry="115.71429"
             sodipodi:rx="115.71429"
             sodipodi:cy="2730"
             sodipodi:cx="-3812.8572"
             id="path31321"
             style="opacity:0.24122805;color:#000000;fill:#000000;fill-opacity:1;fill-rule:nonzero;stroke:none;stroke-width:20;marker:none;visibility:visible;display:inline;overflow:visible;enable-background:accumulate"
             sodipodi:type="arc" />
        </g>
        <g
           transform="translate(-1989.62,-1649.8984)"
           id="g31323">
          <path
             sodipodi:type="arc"
             style="opacity:0.24122805;color:#000000;fill:#000000;fill-opacity:1;fill-rule:nonzero;stroke:none;stroke-width:20;marker:none;visibility:visible;display:inline;overflow:visible;enable-background:accumulate"
             id="path31325"
             sodipodi:cx="-3812.8572"
             sodipodi:cy="2730"
             sodipodi:rx="115.71429"
             sodipodi:ry="115.71429"
             d="m -3697.1429,2730 a 115.71429,115.71429 0 1 1 -231.4286,0 115.71429,115.71429 0 1 1 231.4286,0 z"
             transform="matrix(0.32001702,0,0,0.32001702,0.21251212,-858.96174)" />
        </g>
        <g
           id="g31327"
           transform="translate(-2354.1594,-1735.4246)">
          <path
             sodipodi:type="arc"
             style="opacity:0.24122805;color:#000000;fill:#000000;fill-opacity:1;fill-rule:nonzero;stroke:none;stroke-width:20;marker:none;visibility:visible;display:inline;overflow:visible;enable-background:accumulate"
             id="path31329"
             sodipodi:cx="-3812.8572"
             sodipodi:cy="2730"
             sodipodi:rx="115.71429"
             sodipodi:ry="115.71429"
             d="m -3697.1429,2730 a 115.71429,115.71429 0 1 1 -231.4286,0 115.71429,115.71429 0 1 1 231.4286,0 z"
             transform="matrix(0.26122072,0,0,0.26122072,126.74134,-698.44784)" />
        </g>
      </g>
      <g
         transform="matrix(1,0,0,-1,1288.1431,-2888.3237)"
         id="g31331">
        <g
           transform="matrix(1.0748991,0,0,1.0748991,-4871.0679,-1709.9488)"
           id="g31333">
          <path
             transform="matrix(0.26122072,0,0,0.26122072,126.74134,-698.44784)"
             d="m -3697.1429,2730 a 115.71429,115.71429 0 1 1 -231.4286,0 115.71429,115.71429 0 1 1 231.4286,0 z"
             sodipodi:ry="115.71429"
             sodipodi:rx="115.71429"
             sodipodi:cy="2730"
             sodipodi:cx="-3812.8572"
             id="path31335"
             style="opacity:0.24122805;color:#000000;fill:#000000;fill-opacity:1;fill-rule:nonzero;stroke:none;stroke-width:20;marker:none;visibility:visible;display:inline;overflow:visible;enable-background:accumulate"
             sodipodi:type="arc" />
        </g>
        <g
           id="g31337"
           transform="translate(-4965.2635,-1748.2535)">
          <path
             sodipodi:type="arc"
             style="opacity:0.24122805;color:#000000;fill:#000000;fill-opacity:1;fill-rule:nonzero;stroke:none;stroke-width:20;marker:none;visibility:visible;display:inline;overflow:visible;enable-background:accumulate"
             id="path31339"
             sodipodi:cx="-3812.8572"
             sodipodi:cy="2730"
             sodipodi:rx="115.71429"
             sodipodi:ry="115.71429"
             d="m -3697.1429,2730 a 115.71429,115.71429 0 1 1 -231.4286,0 115.71429,115.71429 0 1 1 231.4286,0 z"
             transform="matrix(0.26122072,0,0,0.26122072,126.74134,-698.44784)" />
        </g>
        <g
           id="g31341"
           transform="translate(-6106.9742,-1705.4904)">
          <path
             sodipodi:type="arc"
             style="opacity:0.09210528;color:#000000;fill:#000000;fill-opacity:1;fill-rule:nonzero;stroke:none;stroke-width:20;marker:none;visibility:visible;display:inline;overflow:visible;enable-background:accumulate"
             id="path31343"
             sodipodi:cx="-3812.8572"
             sodipodi:cy="2730"
             sodipodi:rx="115.71429"
             sodipodi:ry="115.71429"
             d="m -3697.1429,2730 a 115.71429,115.71429 0 1 1 -231.4286,0 115.71429,115.71429 0 1 1 231.4286,0 z"
             transform="matrix(0.07176598,0,0,0.07176598,838.2143,-181.2364)" />
        </g>
        <g
           id="g31345"
           transform="translate(-4660.5924,-1705.4904)">
          <path
             transform="matrix(0.32001702,0,0,0.32001702,0.21251212,-858.96174)"
             d="m -3697.1429,2730 a 115.71429,115.71429 0 1 1 -231.4286,0 115.71429,115.71429 0 1 1 231.4286,0 z"
             sodipodi:ry="115.71429"
             sodipodi:rx="115.71429"
             sodipodi:cy="2730"
             sodipodi:cx="-3812.8572"
             id="path31347"
             style="opacity:0.24122805;color:#000000;fill:#000000;fill-opacity:1;fill-rule:nonzero;stroke:none;stroke-width:20;marker:none;visibility:visible;display:inline;overflow:visible;enable-background:accumulate"
             sodipodi:type="arc" />
        </g>
        <g
           id="g31349"
           transform="matrix(1.4924207,0,0,1.4924207,-5008.6371,-1691.7121)">
          <path
             transform="matrix(0.22855611,0,0,0.22855611,374.07323,-609.27345)"
             d="m -3697.1429,2730 a 115.71429,115.71429 0 1 1 -231.4286,0 115.71429,115.71429 0 1 1 231.4286,0 z"
             sodipodi:ry="115.71429"
             sodipodi:rx="115.71429"
             sodipodi:cy="2730"
             sodipodi:cx="-3812.8572"
             id="path31351"
             style="opacity:0.24122805;color:#000000;fill:#000000;fill-opacity:1;fill-rule:nonzero;stroke:none;stroke-width:20;marker:none;visibility:visible;display:inline;overflow:visible;enable-background:accumulate"
             sodipodi:type="arc" />
        </g>
        <g
           transform="translate(-5261.3819,-1649.8984)"
           id="g31353">
          <path
             sodipodi:type="arc"
             style="opacity:0.24122805;color:#000000;fill:#000000;fill-opacity:1;fill-rule:nonzero;stroke:none;stroke-width:20;marker:none;visibility:visible;display:inline;overflow:visible;enable-background:accumulate"
             id="path31355"
             sodipodi:cx="-3812.8572"
             sodipodi:cy="2730"
             sodipodi:rx="115.71429"
             sodipodi:ry="115.71429"
             d="m -3697.1429,2730 a 115.71429,115.71429 0 1 1 -231.4286,0 115.71429,115.71429 0 1 1 231.4286,0 z"
             transform="matrix(0.22855611,0,0,0.22855611,374.07323,-609.27345)" />
        </g>
        <g
           transform="translate(-5625.9214,-1735.4246)"
           id="g31357">
          <path
             transform="matrix(0.18935858,0,0,0.18935858,588.18053,-502.26419)"
             d="m -3697.1429,2730 a 115.71429,115.71429 0 1 1 -231.4286,0 115.71429,115.71429 0 1 1 231.4286,0 z"
             sodipodi:ry="115.71429"
             sodipodi:rx="115.71429"
             sodipodi:cy="2730"
             sodipodi:cx="-3812.8572"
             id="path31359"
             style="opacity:0.24122805;color:#000000;fill:#000000;fill-opacity:1;fill-rule:nonzero;stroke:none;stroke-width:20;marker:none;visibility:visible;display:inline;overflow:visible;enable-background:accumulate"
             sodipodi:type="arc" />
        </g>
      </g>
    </g>
    <g
       transform="matrix(4.0265346,0,0,4.0265346,-1132.9105,2516.2185)"
       id="g30899"
       gds_color="fireball">
      <path
         sodipodi:nodetypes="ccccc"
         inkscape:connector-curvature="0"
         id="path30901"
         d="m 154.20486,-525.3363 140.30211,0 0,106.45385 -140.30211,0 z"
         style="opacity:0;color:#000000;fill:#cccccc;fill-opacity:1;fill-rule:nonzero;stroke:none;stroke-width:20;marker:none;visibility:visible;display:inline;overflow:visible;enable-background:accumulate" />
      <g
         transform="translate(533.32441,-96.005955)"
         id="g30903">
        <g
           id="g30905" />
        <g
           id="g30907">
          <path
             inkscape:connector-curvature="0"
             style="color:#000000;fill:#ff8655;fill-opacity:1;fill-rule:nonzero;stroke:none;stroke-width:20;marker:none;visibility:visible;display:inline;overflow:visible;enable-background:accumulate"
             d="m 874.6875,1898.8438 c -13.22683,12.0242 -2.41575,18.0107 8.40625,9.5937 10.82196,-8.4171 -8.40625,-9.5937 -8.40625,-9.5937 z m -147.5,4.2812 c -8.6593,0.084 -18.3915,4.2074 -29.1875,24 0,0 6.06569,10.0898 18.1875,-5.0625 12.12181,-15.1523 20.22272,-9.084 35.375,-10.0937 15.15231,-1.0104 4.02806,-7.0626 -8.09375,-7.0626 -4.9245,0 -10.35647,-1.8385 -16.28125,-1.7812 z m 80.84375,3.8125 c 0,0 1.00776,7.0758 -9.09375,18.1875 -9.90266,10.893 -40.20274,-1.5138 -52.8125,23.6875 -8.09324,-10.4904 -5.72121,-17.9885 3.15625,-21.6875 12.12185,-5.0507 22.22651,0.9984 12.125,-5.0625 -10.10154,-6.0609 -40.40861,-6.0684 -49.5,10.0937 -1.84998,3.2892 -2.72208,6.4151 -2.84375,9.3438 -18.0179,-5.561 -32.10215,7.6745 -36.59375,19.9375 -4.39654,11.9334 -24.79215,22.2479 -23.34375,39.125 -13.65104,19.2209 -21.6875,42.6896 -21.6875,68.0625 0,16.8392 3.53714,32.8574 9.90625,47.3438 0.0554,1.0207 0.10628,2.0489 0.1875,3.0624 -4.57674,2.6285 -7.92551,5.7832 -10.40625,9.0313 -22.92348,17.7326 -11.91853,65.6293 -2.03125,49.5625 9.38149,-15.2449 12.64497,-28.4516 7.125,-33.4062 2.53547,-1.2821 5.41697,-2.7715 8.84375,-4.5626 -7.50591,22.3228 22.97052,51.3479 24.25,66.0626 1.42851,16.4283 0,19.2812 0,19.2812 0,0 5.01782,10.0221 12.875,-11.4062 1.7305,-4.7196 3.38119,-8.1389 4.8125,-10.875 19.70123,15.2197 44.34053,24.3323 71.125,24.5 8.73539,15.6567 1.58404,20.7428 6.53125,19.0937 5.70622,-1.9022 23.91654,-10.9556 26.875,-22.9687 5.6384,-0.07 11.17264,-0.5381 16.59375,-1.375 13.28817,8.5295 57.50904,22.8437 63.59375,22.8437 6.56599,0 21.21018,-26.2769 28.28125,-29.8125 7.07107,-3.5355 12.11215,16.1626 22.71875,21.7188 10.6066,5.5558 33.8512,3.5304 42.4375,0.5 8.5863,-3.0307 18.17386,-13.625 25.75,-13.625 7.57614,0 -1.00475,-7.0561 -19.1875,-1.5 -18.18274,5.5558 -27.25238,7.5606 -36.34375,1.5 -9.09137,-6.0609 -22.74809,-28.2915 -35.375,-27.2813 -12.62691,1.0102 -12.10707,10.1082 -23.21875,5.5625 -5.4494,-2.2293 -5.20824,-5.4327 -5.375,-7.9375 12.33491,-0.8518 28.85505,-5.0442 40.9375,-16.0937 0.41502,0 1.1875,0 1.1875,0 0,0 -0.0979,-0.3023 -0.34375,-0.8126 1.04414,-1.0013 2.06486,-2.0448 3.03125,-3.1562 20.20312,-23.2335 10.84375,-23.1875 10.84375,-23.1875 0,0 -12.52958,13.3229 -26.0625,17.9063 -2.80197,-0.8428 -6.20796,-1.514 -10.375,-1.875 10.84684,-17.8218 17.125,-38.7392 17.125,-61.125 0,-1.7648 -0.0481,-3.5047 -0.125,-5.25 20.99839,1.0225 56.8588,-18.8864 80.65625,-28.9063 27.14285,-11.4286 28.58965,14.2768 42.87495,18.5625 14.2859,4.2857 40,-18.5756 40,-35.7188 0,-17.1426 -8.5808,-22.8387 -21.4374,-27.125 -12.8575,-4.2853 -5.7188,4.2813 -5.7188,4.2813 0,0 22.8708,15.7097 7.1562,24.2813 -15.7141,8.5713 -37.1695,-10.0134 -44.3124,-17.1563 -7.14306,-7.1428 -24.28577,-7.1379 -40.00005,5.7187 -0.63444,0.5192 -1.23774,0.9608 -1.84375,1.4376 -0.28197,-0.2638 -0.5,-0.4063 -0.5,-0.4063 0,0 -21.21335,5.0305 -40.40625,2 -11.60137,-1.8318 -19.50503,-6.2208 -26.625,-6.75 -2.56187,-12.2619 -7.04096,-23.8082 -13.09375,-34.3437 2.44682,-2.92 5.93345,-5.7541 11.25,-7.6876 17.01301,-6.1862 37.13241,-13.1598 34.8125,-34.8124 -2.31999,-21.6531 -18.5625,-20.0938 -18.5625,-20.0938 0,0 12.37915,26.2891 -11.59375,27.0625 -18.40484,0.5936 -34.53469,-11.9964 -49.78125,-9.8437 -1.34631,-0.3146 -2.7106,-0.6799 -4.125,-1.1563 -8.51739,-2.8687 -15.27719,-3.7053 -19.53125,-3.9063 -3.8093,-1.5601 -7.72176,-2.9334 -11.71875,-4.0937 2.06941,-2.7759 4.36793,-6.7278 7.28125,-12.3437 10.49442,-20.2301 -10.375,-32.4063 -10.375,-32.4063 z m 179.125,14.5 c -10.00002,0 -11.442,12.8437 -27.15625,12.8437 -15.71429,0 -24.27232,0.018 -12.84375,2.875 11.42857,2.8575 22.83034,14.2767 35.6875,8.5626 12.85712,-5.7147 5.71409,-1.4376 20.00005,8.5624 14.2857,10 25.7366,0 38.5937,-14.2812 12.8572,-14.2857 9.9821,-15.7232 -2.875,-11.4375 -12.8572,4.2857 -24.2813,7.1563 -24.2813,7.1563 -19.99972,-14.2859 -17.12496,-14.2813 -27.12495,-14.2813 z m -365.3125,216.875 c -0.33069,1.0703 -0.60443,2.1128 -0.8125,3.0937 -0.99293,0.023 -0.45268,-1.2484 0.8125,-3.0937 z m 394.78125,21.75 c -6.057,-0.068 -13.1018,2.6082 -21.625,10.5 0,0 -11.12657,4.0431 -17.1875,9.0937 -6.06093,5.0508 18.20183,12.1333 32.3437,5.0626 14.1422,-7.0714 20.1927,8.082 38.375,3.0312 18.183,-5.0508 20.2188,-16.1875 20.2188,-16.1875 0,0 -8.0864,2.0313 -21.2188,2.0313 -9.0278,0 -17.5809,-13.3821 -30.9062,-13.5313 z m -365.78125,67.0313 c -0.13813,0.01 -0.26489,0.037 -0.40625,0.062 -4.52367,0.8226 -3.28125,4.5 -3.28125,4.5 2.87867,6.1688 11.50499,12.7472 11.09375,7.8126 -0.39839,-4.7808 -3.12436,-12.6359 -7.40625,-12.375 z m 52.375,1.25 c -1.0806,-2e-4 -2.08602,0.2597 -2.90625,0.875 -5.2498,3.9371 0,12.4687 0,12.4687 7.87453,11.1557 22.34359,10.4995 19.71875,1.9687 -2.21469,-7.1975 -10.97729,-15.3123 -16.8125,-15.3124 z m 35.8125,16.875 c -6.65872,-0.1667 -6.65625,5.1562 -6.65625,5.1562 4.04061,15.1523 13.11643,23.2378 20.1875,15.1562 7.07107,-8.0812 -4.04378,-19.2085 -12.125,-20.2187 -0.50508,-0.063 -0.96234,-0.083 -1.40625,-0.094 z"
             transform="matrix(0.26458334,0,0,0.26458334,-533.32446,-929.91075)"
             id="path30909" />
        </g>
      </g>
      <g
         transform="matrix(-1,0,0,-1,-38.632768,-940.01119)"
         id="g30911">
        <path
           inkscape:connector-curvature="0"
           id="path30913"
           d="m -246.88155,-501.20014 c -12.84197,0 -23.25026,10.40828 -23.25026,23.25026 0,0.16494 0.005,0.33197 0.008,0.49609 -1.98133,1.89744 -3.21634,4.56414 -3.21634,7.52409 0,2.8742 1.16125,5.48137 3.04271,7.36701 -0.59222,1.89254 -0.90951,3.90668 -0.90951,5.99445 0,11.07067 8.97979,20.05044 20.05046,20.05044 0.10045,0 0.19756,-0.007 0.29766,-0.008 1.89115,1.00304 4.34873,1.61232 7.03626,1.61232 0.76419,0 1.51304,-0.0556 2.23242,-0.14886 2.91233,1.45788 6.19534,2.28203 9.67383,2.28203 11.95632,0 21.64622,-9.68988 21.64622,-21.6462 0,-1.4334 -0.13932,-2.83649 -0.40514,-4.192 2.79946,-1.61655 4.68809,-4.63786 4.68809,-8.10287 0,-3.31374 -1.72526,-6.22606 -4.32429,-7.88789 0.0279,-0.39634 0.0413,-0.79544 0.0413,-1.1989 0,-7.9552 -5.515,-14.61831 -12.93151,-16.37935 0.0675,-0.41143 0.10749,-0.82624 0.10749,-1.25677 0,-4.28067 -3.47494,-7.7556 -7.7556,-7.7556 -2.2274,0 -4.22513,0.94297 -5.63893,2.44739 -3.1282,-1.56604 -6.65677,-2.44739 -10.39317,-2.44739 z"
           style="color:#000000;fill:#ffffff;fill-opacity:1;fill-rule:nonzero;stroke:none;stroke-width:20;marker:none;visibility:visible;display:inline;overflow:visible;enable-background:accumulate" />
        <path
           transform="matrix(0.26458334,0,0,0.26458334,-17.29762,-1651.4597)"
           d="m -779.83774,4435.3247 a 87.88327,87.88327 0 1 1 -175.76654,0 87.88327,87.88327 0 1 1 175.76654,0 z"
           sodipodi:ry="87.88327"
           sodipodi:rx="87.88327"
           sodipodi:cy="4435.3247"
           sodipodi:cx="-867.72101"
           id="path30915"
           style="color:#000000;fill:#ffcc00;fill-opacity:1;fill-rule:nonzero;stroke:none;stroke-width:20;marker:none;visibility:visible;display:inline;overflow:visible;enable-background:accumulate"
           sodipodi:type="arc" />
        <path
           transform="matrix(0.26458334,0,0,0.26458334,-17.29762,-1651.4597)"
           d="m -729.33011,4524.2183 a 81.822357,81.822357 0 1 1 -163.64471,0 81.822357,81.822357 0 1 1 163.64471,0 z"
           sodipodi:ry="81.822357"
           sodipodi:rx="81.822357"
           sodipodi:cy="4524.2183"
           sodipodi:cx="-811.15247"
           id="path30917"
           style="color:#000000;fill:#ffcc00;fill-opacity:1;fill-rule:nonzero;stroke:none;stroke-width:20;marker:none;visibility:visible;display:inline;overflow:visible;enable-background:accumulate"
           sodipodi:type="arc" />
        <path
           transform="matrix(0.26458334,0,0,0.26458334,-17.29762,-1651.4597)"
           d="m -808.12204,4516.1367 a 75.761444,75.761444 0 1 1 -151.52289,0 75.761444,75.761444 0 1 1 151.52289,0 z"
           sodipodi:ry="75.761444"
           sodipodi:rx="75.761444"
           sodipodi:cy="4516.1367"
           sodipodi:cx="-883.88348"
           id="path30919"
           style="color:#000000;fill:#ffcc00;fill-opacity:1;fill-rule:nonzero;stroke:none;stroke-width:20;marker:none;visibility:visible;display:inline;overflow:visible;enable-background:accumulate"
           sodipodi:type="arc" />
        <path
           transform="matrix(0.26458334,0,0,0.26458334,-17.29762,-1651.4597)"
           d="m -888.93425,4465.6294 a 39.39595,39.39595 0 1 1 -78.7919,0 39.39595,39.39595 0 1 1 78.7919,0 z"
           sodipodi:ry="39.39595"
           sodipodi:rx="39.39595"
           sodipodi:cy="4465.6294"
           sodipodi:cx="-928.3302"
           id="path30921"
           style="color:#000000;fill:#ffcc00;fill-opacity:1;fill-rule:nonzero;stroke:none;stroke-width:20;marker:none;visibility:visible;display:inline;overflow:visible;enable-background:accumulate"
           sodipodi:type="arc" />
        <path
           transform="matrix(0.26458334,0,0,0.26458334,-17.29762,-1651.4597)"
           d="m -777.81745,4376.7358 a 29.294424,29.294424 0 1 1 -58.58885,0 29.294424,29.294424 0 1 1 58.58885,0 z"
           sodipodi:ry="29.294424"
           sodipodi:rx="29.294424"
           sodipodi:cy="4376.7358"
           sodipodi:cx="-807.11188"
           id="path30923"
           style="color:#000000;fill:#ffcc00;fill-opacity:1;fill-rule:nonzero;stroke:none;stroke-width:20;marker:none;visibility:visible;display:inline;overflow:visible;enable-background:accumulate"
           sodipodi:type="arc" />
        <path
           transform="matrix(0.26458334,0,0,0.26458334,-17.29762,-1651.4597)"
           d="m -713.16767,4477.751 a 35.355339,35.355339 0 1 1 -70.71068,0 35.355339,35.355339 0 1 1 70.71068,0 z"
           sodipodi:ry="35.355339"
           sodipodi:rx="35.355339"
           sodipodi:cy="4477.751"
           sodipodi:cx="-748.52301"
           id="path30925"
           style="color:#000000;fill:#ffcc00;fill-opacity:1;fill-rule:nonzero;stroke:none;stroke-width:20;marker:none;visibility:visible;display:inline;overflow:visible;enable-background:accumulate"
           sodipodi:type="arc" />
        <path
           transform="matrix(0.26458334,0,0,0.26458334,-17.29762,-1651.4597)"
           d="m -815.2924,4572.7056 a 40.86153,25.253813 0 1 1 -81.72306,0 40.86153,25.253813 0 1 1 81.72306,0 z"
           sodipodi:ry="25.253813"
           sodipodi:rx="40.86153"
           sodipodi:cy="4572.7056"
           sodipodi:cx="-856.15393"
           id="path30927"
           style="opacity:0.42307691;color:#000000;fill:#ffcc00;fill-opacity:1;fill-rule:nonzero;stroke:none;stroke-width:20;marker:none;visibility:visible;display:inline;overflow:visible;enable-background:accumulate"
           sodipodi:type="arc" />
        <g
           transform="matrix(-0.98182419,-0.18979268,0.18979268,-0.98182419,-461.51592,-368.61541)"
           id="g30929">
          <path
             sodipodi:type="arc"
             style="color:#000000;fill:#ffcc00;fill-opacity:1;fill-rule:nonzero;stroke:none;stroke-width:20;marker:none;visibility:visible;display:inline;overflow:visible;enable-background:accumulate"
             id="path30931"
             sodipodi:cx="-792.96973"
             sodipodi:cy="4443.4058"
             sodipodi:rx="63.63961"
             sodipodi:ry="63.63961"
             d="m -729.33012,4443.4058 a 63.63961,63.63961 0 1 1 -127.27922,0 63.63961,63.63961 0 1 1 127.27922,0 z"
             transform="matrix(0.26458334,0,0,0.26458334,-5e-5,-1025.9167)" />
          <path
             inkscape:connector-curvature="0"
             style="color:#000000;fill:#ffff00;fill-opacity:1;fill-rule:nonzero;stroke:none;stroke-width:20;marker:none;visibility:visible;display:inline;overflow:visible;enable-background:accumulate"
             d="m 730.53125,1960.375 c -45.18924,0 -81.8125,36.6233 -81.8125,81.8125 0,5.4177 0.52919,10.7225 1.53125,15.8437 -10.59396,6.1045 -17.71875,17.5234 -17.71875,30.625 0,11.968 5.96291,22.5407 15.0625,28.9376 -5.79481,-6.297 -9.34375,-14.7054 -9.34375,-23.9376 0,-19.5261 15.84879,-35.3437 35.375,-35.3437 7.55471,0 14.53603,2.3699 20.28125,6.4063 -6.46129,-7.02 -15.70695,-11.4063 -26,-11.4063 -6.10194,0 -11.86274,1.5614 -16.875,4.2813 3.10822,-47.1074 42.32502,-84.3751 90.21875,-84.375 3.14284,0 6.2231,0.1836 9.28125,0.5 -9.6612,4.6178 -15.875,11.8376 -15.875,19.9687 0,1.2196 0.13571,2.4204 0.40625,3.5937 2.80063,-12.2604 19.85785,-21.6875 40.46875,-21.6874 20.6101,0 37.63589,9.4276 40.4375,21.6874 0.27061,-1.1736 0.40625,-2.3737 0.40625,-3.5937 0,-3.5712 -1.21325,-6.9521 -3.375,-10.0313 30.79497,9.6152 53.15625,38.3456 53.15625,72.3126 0,28.397 -15.62972,53.1527 -38.75,66.125 29.9986,-10.0836 51.625,-38.416 51.625,-71.8126 0,-41.8418 -33.93935,-75.7812 -75.78125,-75.7812 -0.39712,0 -0.79209,0.024 -1.1875,0.031 -7.13915,-3.7792 -16.38987,-6.0937 -26.53125,-6.0937 -2.89926,0 -5.73989,0.2078 -8.46875,0.5625 -10.99481,-5.5025 -23.39471,-8.625 -36.53125,-8.625 z m 83.84375,119.4062 c -3.83845,6.0795 -6.0625,13.2786 -6.0625,21 0,21.7578 17.64846,39.4063 39.40625,39.4063 5.5352,0 10.78279,-1.1261 15.5625,-3.1875 -22.2034,60.9729 -93.06402,84.9496 -133.4375,47.1875 16.11636,-4.6221 29.96698,-15.4923 38.1875,-30.375 -14.38471,16.9984 -37.26839,25.9332 -60.6875,21.4063 -34.50836,-6.6707 -57.07691,-40.0543 -50.40625,-74.5626 1.30534,-6.7525 3.62199,-13.0414 6.78125,-18.75 -6.8205,8.0529 -11.6983,17.9326 -13.84375,29.0313 -6.67068,34.5084 15.86664,67.8606 50.375,74.5313 6.23858,1.2058 12.45633,1.4457 18.46875,0.8437 5.68678,7.0328 12.43069,13.1588 20,18.1563 -2.98544,2.5975 -6.11487,6.625 -9.375,6.625 -14.71808,-1e-4 -27.25992,-8.5843 -32.125,-20.6563 0.40917,15.8222 13.36044,28.5312 29.28125,28.5313 8.41988,0 15.97239,-3.5606 21.3125,-9.25 11.81961,5.9126 25.16462,9.2499 39.28125,9.25 48.53658,0 87.875,-39.3385 87.875,-87.875 0,-0.5952 -0.0423,-1.1869 -0.0625,-1.7813 4.8031,-4.5863 8.46312,-10.4004 10.46875,-16.9063 -6.96881,11.0964 -19.30476,18.4688 -33.375,18.4688 -21.75779,0 -39.40625,-17.6173 -39.40625,-39.375 0,-4.0796 0.63019,-8.018 1.78125,-11.7188 z"
             transform="matrix(0.25977432,-0.05021598,0.05021598,0.25977432,-501.4617,-365.9995)"
             id="path30933" />
        </g>
        <path
           transform="matrix(0.26458334,0,0,0.26458334,-17.29762,-1651.4597)"
           d="m -782.14283,4468.2144 a 53.214287,53.214287 0 1 1 -106.42857,0 53.214287,53.214287 0 1 1 106.42857,0 z"
           sodipodi:ry="53.214287"
           sodipodi:rx="53.214287"
           sodipodi:cy="4468.2144"
           sodipodi:cx="-835.35712"
           id="path30935"
           style="color:#000000;fill:#ffcc00;fill-opacity:1;fill-rule:nonzero;stroke:none;stroke-width:20;marker:none;visibility:visible;display:inline;overflow:visible;enable-background:accumulate"
           sodipodi:type="arc" />
        <path
           transform="matrix(0.26458334,0,0,0.26458334,-25.80209,-1655.4285)"
           d="m -707.85715,4495.3569 a 100.35714,100.35714 0 1 1 -200.71428,0 100.35714,100.35714 0 1 1 200.71428,0 z"
           sodipodi:ry="100.35714"
           sodipodi:rx="100.35714"
           sodipodi:cy="4495.3569"
           sodipodi:cx="-808.21429"
           id="path30937"
           style="color:#000000;fill:url(#radialGradient32263);fill-opacity:1;fill-rule:nonzero;stroke:none;stroke-width:20;marker:none;visibility:visible;display:inline;overflow:visible;enable-background:accumulate"
           sodipodi:type="arc" />
        <path
           transform="matrix(0.26458334,0,0,0.26458334,-17.29762,-1651.4597)"
           d="m -770.7464,4514.6216 a 41.921329,41.921329 0 1 1 -83.84265,0 41.921329,41.921329 0 1 1 83.84265,0 z"
           sodipodi:ry="41.921329"
           sodipodi:rx="41.921329"
           sodipodi:cy="4514.6216"
           sodipodi:cx="-812.66772"
           id="path30939"
           style="opacity:0.38938054;color:#000000;fill:#ffffff;fill-opacity:1;fill-rule:nonzero;stroke:none;stroke-width:20;marker:none;visibility:visible;display:inline;overflow:visible;enable-background:accumulate"
           sodipodi:type="arc" />
        <path
           transform="matrix(0.26458334,0,0,0.26458334,-15.15946,-1653.3306)"
           d="m -755.5941,4463.6089 a 45.456863,45.456863 0 1 1 -90.91373,0 45.456863,45.456863 0 1 1 90.91373,0 z"
           sodipodi:ry="45.456863"
           sodipodi:rx="45.456863"
           sodipodi:cy="4463.6089"
           sodipodi:cx="-801.05096"
           id="path30941"
           style="opacity:0.38938054;color:#000000;fill:#ffffff;fill-opacity:1;fill-rule:nonzero;stroke:none;stroke-width:20;marker:none;visibility:visible;display:inline;overflow:visible;enable-background:accumulate"
           sodipodi:type="arc" />
        <path
           transform="matrix(0.26458334,0,0,0.26458334,-22.10847,-1651.727)"
           d="m -791.95959,4500.9849 a 59.598999,59.598999 0 1 1 -119.198,0 59.598999,59.598999 0 1 1 119.198,0 z"
           sodipodi:ry="59.598999"
           sodipodi:rx="59.598999"
           sodipodi:cy="4500.9849"
           sodipodi:cx="-851.55859"
           id="path30943"
           style="opacity:0.38938054;color:#000000;fill:#ffffff;fill-opacity:1;fill-rule:nonzero;stroke:none;stroke-width:20;marker:none;visibility:visible;display:inline;overflow:visible;enable-background:accumulate"
           sodipodi:type="arc" />
        <path
           transform="matrix(0.26458334,0,0,0.26458334,-17.03035,-1651.9942)"
           d="m -806.10175,4451.4873 a 35.355339,35.355339 0 1 1 -70.71068,0 35.355339,35.355339 0 1 1 70.71068,0 z"
           sodipodi:ry="35.355339"
           sodipodi:rx="35.355339"
           sodipodi:cy="4451.4873"
           sodipodi:cx="-841.45709"
           id="path30945"
           style="opacity:0.38938054;color:#000000;fill:#ffffff;fill-opacity:1;fill-rule:nonzero;stroke:none;stroke-width:20;marker:none;visibility:visible;display:inline;overflow:visible;enable-background:accumulate"
           sodipodi:type="arc" />
        <path
           transform="matrix(0.26458334,0,0,0.26458334,-17.29762,-1651.4597)"
           d="m -849.53832,4430.2739 a 30.304577,30.304577 0 1 1 -60.60915,0 30.304577,30.304577 0 1 1 60.60915,0 z"
           sodipodi:ry="30.304577"
           sodipodi:rx="30.304577"
           sodipodi:cy="4430.2739"
           sodipodi:cx="-879.8429"
           id="path30947"
           style="opacity:0.38938054;color:#000000;fill:#ffffff;fill-opacity:1;fill-rule:nonzero;stroke:none;stroke-width:20;marker:none;visibility:visible;display:inline;overflow:visible;enable-background:accumulate"
           sodipodi:type="arc" />
        <path
           inkscape:connector-curvature="0"
           id="path30949"
           d="m -216.42966,-477.8672 c 0.1833,0.83466 0.28112,1.70651 0.28112,2.59623 0,5.65218 -3.89896,10.38778 -9.15293,11.67474 1.01847,1.12638 1.60922,1.99397 1.94304,2.69544 4.80954,-1.57499 8.28476,-6.10008 8.28476,-11.43498 0,-1.99691 -0.49478,-3.87397 -1.35599,-5.53143 z"
           style="color:#000000;fill:#ffffff;fill-opacity:1;fill-rule:nonzero;stroke:none;stroke-width:20;marker:none;visibility:visible;display:inline;overflow:visible;enable-background:accumulate" />
        <path
           inkscape:connector-curvature="0"
           id="path30951"
           d="m -262.38448,-465.81212 c -0.51846,1.56247 -0.80201,3.23273 -0.80201,4.96922 0,8.70892 7.05859,15.7675 15.76751,15.7675 8.01443,0 14.63069,-5.97625 15.63522,-13.71698 -2.08781,6.26322 -8.00057,10.78177 -14.96549,10.78177 -8.70893,0 -15.76752,-7.05861 -15.76752,-15.76753 0,-0.68876 0.0466,-1.36853 0.13229,-2.03398 z"
           style="color:#000000;fill:#ffffff;fill-opacity:1;fill-rule:nonzero;stroke:none;stroke-width:20;marker:none;visibility:visible;display:inline;overflow:visible;enable-background:accumulate" />
        <path
           inkscape:connector-curvature="0"
           id="path30953"
           d="m -232.31292,-468.06108 c -0.47418,0 -0.94709,0.0332 -1.4056,0.0909 5.46285,0.69011 9.69036,5.35487 9.69036,11.00503 0,5.64996 -4.22775,10.30642 -9.69036,10.99674 0.45867,0.0578 0.93124,0.0909 1.4056,0.0909 6.12576,0 11.08769,-4.96192 11.08769,-11.08768 0,-6.12577 -4.96193,-11.09597 -11.08769,-11.09597 z"
           style="color:#000000;fill:#ffffff;fill-opacity:1;fill-rule:nonzero;stroke:none;stroke-width:20;marker:none;visibility:visible;display:inline;overflow:visible;enable-background:accumulate" />
        <path
           inkscape:connector-curvature="0"
           id="path30955"
           d="m -239.66338,-483.55574 c -5.16631,0 -9.35964,4.18505 -9.35964,9.35138 0,0.95377 0.14813,1.86986 0.41342,2.73677 -0.004,-0.11104 -0.008,-0.21878 -0.008,-0.33073 0,-5.46153 4.42727,-9.8888 9.8888,-9.8888 3.01111,0 5.70204,1.34974 7.51582,3.47266 -1.50134,-3.16037 -4.71853,-5.34128 -8.45013,-5.34128 z"
           style="color:#000000;fill:#ffffff;fill-opacity:1;fill-rule:nonzero;stroke:none;stroke-width:20;marker:none;visibility:visible;display:inline;overflow:visible;enable-background:accumulate" />
      </g>
    </g>
  </g>
</svg>
