<?xml version="1.0" encoding="UTF-8" standalone="no"?>
<!-- Created with Inkscape (http://www.inkscape.org/) -->

<svg
   xmlns:dc="http://purl.org/dc/elements/1.1/"
   xmlns:cc="http://creativecommons.org/ns#"
   xmlns:rdf="http://www.w3.org/1999/02/22-rdf-syntax-ns#"
   xmlns:svg="http://www.w3.org/2000/svg"
   xmlns="http://www.w3.org/2000/svg"
   xmlns:xlink="http://www.w3.org/1999/xlink"
   xmlns:sodipodi="http://sodipodi.sourceforge.net/DTD/sodipodi-0.dtd"
   xmlns:inkscape="http://www.inkscape.org/namespaces/inkscape"
   width="1023.9995"
   height="428.64011"
   id="svg4611"
   version="1.1"
   inkscape:version="0.48.5 r10040"
   sodipodi:docname="smoking_fireball_03.svg">
  <defs
     id="defs4613">
    <radialGradient
       inkscape:collect="always"
       xlink:href="#linearGradient25629"
       id="radialGradient32259"
       gradientUnits="userSpaceOnUse"
       gradientTransform="matrix(0,0.9421926,-1,0,3676.4288,5242.6685)"
       cx="-795.81506"
       cy="4484.2861"
       fx="-795.81506"
       fy="4484.2861"
       r="100.35714" />
    <linearGradient
       id="linearGradient25629">
      <stop
         style="stop-color:#ffffff;stop-opacity:1"
         offset="0"
         id="stop25631" />
      <stop
         id="stop25637"
         offset="0.69999999"
         style="stop-color:#ffff00;stop-opacity:1" />
      <stop
         style="stop-color:#ffff00;stop-opacity:0"
         offset="1"
         id="stop25633" />
    </linearGradient>
    <radialGradient
       inkscape:collect="always"
       xlink:href="#linearGradient25629"
       id="radialGradient32261"
       gradientUnits="userSpaceOnUse"
       gradientTransform="matrix(0,0.9421926,-1,0,3676.4288,5242.6685)"
       cx="-795.81506"
       cy="4484.2861"
       fx="-795.81506"
       fy="4484.2861"
       r="100.35714" />
    <linearGradient
       id="linearGradient4635">
      <stop
         style="stop-color:#ffffff;stop-opacity:1"
         offset="0"
         id="stop4637" />
      <stop
         id="stop4639"
         offset="0.69999999"
         style="stop-color:#ffff00;stop-opacity:1" />
      <stop
         style="stop-color:#ffff00;stop-opacity:0"
         offset="1"
         id="stop4641" />
    </linearGradient>
    <radialGradient
       inkscape:collect="always"
       xlink:href="#linearGradient25629"
       id="radialGradient32263"
       gradientUnits="userSpaceOnUse"
       gradientTransform="matrix(0,0.9421926,-1,0,3676.4288,5242.6685)"
       cx="-795.81506"
       cy="4484.2861"
       fx="-795.81506"
       fy="4484.2861"
       r="100.35714" />
    <linearGradient
       id="linearGradient4644">
      <stop
         style="stop-color:#ffffff;stop-opacity:1"
         offset="0"
         id="stop4646" />
      <stop
         id="stop4648"
         offset="0.69999999"
         style="stop-color:#ffff00;stop-opacity:1" />
      <stop
         style="stop-color:#ffff00;stop-opacity:0"
         offset="1"
         id="stop4650" />
    </linearGradient>
    <radialGradient
       inkscape:collect="always"
       xlink:href="#linearGradient25629"
       id="radialGradient32265"
       gradientUnits="userSpaceOnUse"
       gradientTransform="matrix(0,0.9421926,-1,0,3676.4288,5242.6685)"
       cx="-795.81506"
       cy="4484.2861"
       fx="-795.81506"
       fy="4484.2861"
       r="100.35714" />
    <linearGradient
       id="linearGradient4653">
      <stop
         style="stop-color:#ffffff;stop-opacity:1"
         offset="0"
         id="stop4655" />
      <stop
         id="stop4657"
         offset="0.69999999"
         style="stop-color:#ffff00;stop-opacity:1" />
      <stop
         style="stop-color:#ffff00;stop-opacity:0"
         offset="1"
         id="stop4659" />
    </linearGradient>
    <radialGradient
       inkscape:collect="always"
       xlink:href="#linearGradient25629"
       id="radialGradient32267"
       gradientUnits="userSpaceOnUse"
       gradientTransform="matrix(0,0.9421926,-1,0,3676.4288,5242.6685)"
       cx="-795.81506"
       cy="4484.2861"
       fx="-795.81506"
       fy="4484.2861"
       r="100.35714" />
    <linearGradient
       id="linearGradient4662">
      <stop
         style="stop-color:#ffffff;stop-opacity:1"
         offset="0"
         id="stop4664" />
      <stop
         id="stop4666"
         offset="0.69999999"
         style="stop-color:#ffff00;stop-opacity:1" />
      <stop
         style="stop-color:#ffff00;stop-opacity:0"
         offset="1"
         id="stop4668" />
    </linearGradient>
    <radialGradient
       inkscape:collect="always"
       xlink:href="#linearGradient25629"
       id="radialGradient32269"
       gradientUnits="userSpaceOnUse"
       gradientTransform="matrix(0,0.9421926,-1,0,3676.4288,5242.6685)"
       cx="-795.81506"
       cy="4484.2861"
       fx="-795.81506"
       fy="4484.2861"
       r="100.35714" />
    <linearGradient
       id="linearGradient4671">
      <stop
         style="stop-color:#ffffff;stop-opacity:1"
         offset="0"
         id="stop4673" />
      <stop
         id="stop4675"
         offset="0.69999999"
         style="stop-color:#ffff00;stop-opacity:1" />
      <stop
         style="stop-color:#ffff00;stop-opacity:0"
         offset="1"
         id="stop4677" />
    </linearGradient>
    <radialGradient
       inkscape:collect="always"
       xlink:href="#linearGradient25629"
       id="radialGradient6114"
       gradientUnits="userSpaceOnUse"
       gradientTransform="matrix(0,0.9421926,-1,0,3676.4288,5242.6685)"
       cx="-795.81506"
       cy="4484.2861"
       fx="-795.81506"
       fy="4484.2861"
       r="100.35714" />
  </defs>
  <sodipodi:namedview
     id="base"
     pagecolor="#ffffff"
     bordercolor="#666666"
     borderopacity="1.0"
     inkscape:pageopacity="0.0"
     inkscape:pageshadow="2"
     inkscape:zoom="0.98994949"
     inkscape:cx="447.70659"
     inkscape:cy="66.460006"
     inkscape:document-units="px"
     inkscape:current-layer="layer1"
     showgrid="false"
     inkscape:window-width="1920"
     inkscape:window-height="1017"
     inkscape:window-x="-8"
     inkscape:window-y="-8"
     inkscape:window-maximized="1" />
  <metadata
     id="metadata4616">
    <rdf:RDF>
      <cc:Work
         rdf:about="">
        <dc:format>image/svg+xml</dc:format>
        <dc:type
           rdf:resource="http://purl.org/dc/dcmitype/StillImage" />
        <dc:title />
      </cc:Work>
    </rdf:RDF>
  </metadata>
  <g
     inkscape:label="Layer 1"
     inkscape:groupmode="layer"
     id="layer1"
     transform="translate(512.00021,27.706554)">
    <g
       id="g31177"
       transform="matrix(1.3276229,0,0,1.3276229,6766.5572,1777.4692)"
       gds_color="smoke"
       gds_switchable="smoke">
      <rect
         y="-1332.8334"
         x="-5276.5479"
         height="269.11905"
         width="565.45239"
         id="rect31179"
         style="opacity:0;color:#000000;fill:#dbe3e2;fill-opacity:1;fill-rule:nonzero;stroke:none;stroke-width:20;marker:none;visibility:visible;display:inline;overflow:visible;enable-background:accumulate" />
      <g
         id="g31181"
         transform="matrix(1.0748991,0,0,1.0748991,-4497.2843,-1218.1729)">
        <path
           transform="matrix(0.22855611,0,0,0.22855611,374.07323,-609.27345)"
           d="m -3697.1429,2730 a 115.71429,115.71429 0 1 1 -231.4286,0 115.71429,115.71429 0 1 1 231.4286,0 z"
           sodipodi:ry="115.71429"
           sodipodi:rx="115.71429"
           sodipodi:cy="2730"
           sodipodi:cx="-3812.8572"
           id="path31183"
           style="opacity:0.24122805;color:#000000;fill:#000000;fill-opacity:1;fill-rule:nonzero;stroke:none;stroke-width:20;marker:none;visibility:visible;display:inline;overflow:visible;enable-background:accumulate"
           sodipodi:type="arc" />
      </g>
      <g
         transform="translate(-4617.5252,-1256.4776)"
         id="g31185">
        <path
           sodipodi:type="arc"
           style="opacity:0.24122805;color:#000000;fill:#000000;fill-opacity:1;fill-rule:nonzero;stroke:none;stroke-width:20;marker:none;visibility:visible;display:inline;overflow:visible;enable-background:accumulate"
           id="path31187"
           sodipodi:cx="-3812.8572"
           sodipodi:cy="2730"
           sodipodi:rx="115.71429"
           sodipodi:ry="115.71429"
           d="m -3697.1429,2730 a 115.71429,115.71429 0 1 1 -231.4286,0 115.71429,115.71429 0 1 1 231.4286,0 z"
           transform="matrix(0.22855611,0,0,0.22855611,374.07323,-609.27345)" />
      </g>
      <g
         id="g31189"
         transform="translate(-3854.2359,-1213.7145)">
        <path
           transform="matrix(0.32001702,0,0,0.32001702,0.21251212,-858.96174)"
           d="m -3697.1429,2730 a 115.71429,115.71429 0 1 1 -231.4286,0 115.71429,115.71429 0 1 1 231.4286,0 z"
           sodipodi:ry="115.71429"
           sodipodi:rx="115.71429"
           sodipodi:cy="2730"
           sodipodi:cx="-3812.8572"
           id="path31191"
           style="opacity:0.24122805;color:#000000;fill:#000000;fill-opacity:1;fill-rule:nonzero;stroke:none;stroke-width:20;marker:none;visibility:visible;display:inline;overflow:visible;enable-background:accumulate"
           sodipodi:type="arc" />
      </g>
      <g
         id="g31193"
         transform="translate(-4312.8541,-1213.7145)">
        <path
           sodipodi:type="arc"
           style="opacity:0.24122805;color:#000000;fill:#000000;fill-opacity:1;fill-rule:nonzero;stroke:none;stroke-width:20;marker:none;visibility:visible;display:inline;overflow:visible;enable-background:accumulate"
           id="path31195"
           sodipodi:cx="-3812.8572"
           sodipodi:cy="2730"
           sodipodi:rx="115.71429"
           sodipodi:ry="115.71429"
           d="m -3697.1429,2730 a 115.71429,115.71429 0 1 1 -231.4286,0 115.71429,115.71429 0 1 1 231.4286,0 z"
           transform="matrix(0.26122072,0,0,0.26122072,126.74134,-698.44784)" />
      </g>
      <g
         transform="matrix(1.4924207,0,0,1.4924207,-4817.2424,-1199.9362)"
         id="g31197">
        <path
           transform="matrix(0.18935858,0,0,0.18935858,588.18053,-502.26419)"
           d="m -3697.1429,2730 a 115.71429,115.71429 0 1 1 -231.4286,0 115.71429,115.71429 0 1 1 231.4286,0 z"
           sodipodi:ry="115.71429"
           sodipodi:rx="115.71429"
           sodipodi:cy="2730"
           sodipodi:cx="-3812.8572"
           id="path31199"
           style="opacity:0.24122805;color:#000000;fill:#000000;fill-opacity:1;fill-rule:nonzero;stroke:none;stroke-width:20;marker:none;visibility:visible;display:inline;overflow:visible;enable-background:accumulate"
           sodipodi:type="arc" />
      </g>
      <g
         id="g31201"
         transform="translate(-4913.6436,-1158.1225)">
        <path
           sodipodi:type="arc"
           style="opacity:0.24122805;color:#000000;fill:#000000;fill-opacity:1;fill-rule:nonzero;stroke:none;stroke-width:20;marker:none;visibility:visible;display:inline;overflow:visible;enable-background:accumulate"
           id="path31203"
           sodipodi:cx="-3812.8572"
           sodipodi:cy="2730"
           sodipodi:rx="115.71429"
           sodipodi:ry="115.71429"
           d="m -3697.1429,2730 a 115.71429,115.71429 0 1 1 -231.4286,0 115.71429,115.71429 0 1 1 231.4286,0 z"
           transform="matrix(0.18935858,0,0,0.18935858,588.18053,-502.26419)" />
      </g>
      <g
         id="g31205"
         transform="translate(-5278.1831,-1243.6487)">
        <path
           transform="matrix(0.12402936,0,0,0.12402936,684.50856,-323.91542)"
           d="m -3697.1429,2730 a 115.71429,115.71429 0 1 1 -231.4286,0 115.71429,115.71429 0 1 1 231.4286,0 z"
           sodipodi:ry="115.71429"
           sodipodi:rx="115.71429"
           sodipodi:cy="2730"
           sodipodi:cx="-3812.8572"
           id="path31207"
           style="opacity:0.14473685;color:#000000;fill:#000000;fill-opacity:1;fill-rule:nonzero;stroke:none;stroke-width:20;marker:none;visibility:visible;display:inline;overflow:visible;enable-background:accumulate"
           sodipodi:type="arc" />
      </g>
      <g
         id="g31209"
         transform="matrix(1,0,0,-1,-1351.6428,-2888.3237)">
        <g
           id="g31211"
           transform="matrix(1.0748991,0,0,1.0748991,-3726.9656,-1709.9488)">
          <path
             transform="matrix(0.12402936,0,0,0.12402936,684.50856,-323.91542)"
             d="m -3697.1429,2730 a 115.71429,115.71429 0 1 1 -231.4286,0 115.71429,115.71429 0 1 1 231.4286,0 z"
             sodipodi:ry="115.71429"
             sodipodi:rx="115.71429"
             sodipodi:cy="2730"
             sodipodi:cx="-3812.8572"
             id="path31213"
             style="opacity:0.14473685;color:#000000;fill:#000000;fill-opacity:1;fill-rule:nonzero;stroke:none;stroke-width:20;marker:none;visibility:visible;display:inline;overflow:visible;enable-background:accumulate"
             sodipodi:type="arc" />
        </g>
        <g
           transform="translate(-3900.8824,-1748.2535)"
           id="g31215">
          <path
             sodipodi:type="arc"
             style="opacity:0.14473685;color:#000000;fill:#000000;fill-opacity:1;fill-rule:nonzero;stroke:none;stroke-width:20;marker:none;visibility:visible;display:inline;overflow:visible;enable-background:accumulate"
             id="path31217"
             sodipodi:cx="-3812.8572"
             sodipodi:cy="2730"
             sodipodi:rx="115.71429"
             sodipodi:ry="115.71429"
             d="m -3697.1429,2730 a 115.71429,115.71429 0 1 1 -231.4286,0 115.71429,115.71429 0 1 1 231.4286,0 z"
             transform="matrix(0.12402936,0,0,0.12402936,684.50856,-323.91542)" />
        </g>
        <g
           transform="translate(-3137.593,-1705.4904)"
           id="g31219">
          <path
             sodipodi:type="arc"
             style="opacity:0.24122805;color:#000000;fill:#000000;fill-opacity:1;fill-rule:nonzero;stroke:none;stroke-width:20;marker:none;visibility:visible;display:inline;overflow:visible;enable-background:accumulate"
             id="path31221"
             sodipodi:cx="-3812.8572"
             sodipodi:cy="2730"
             sodipodi:rx="115.71429"
             sodipodi:ry="115.71429"
             d="m -3697.1429,2730 a 115.71429,115.71429 0 1 1 -231.4286,0 115.71429,115.71429 0 1 1 231.4286,0 z"
             transform="matrix(0.22855611,0,0,0.22855611,374.07323,-609.27345)" />
        </g>
        <g
           id="g31223"
           transform="translate(-3596.2113,-1705.4904)">
          <path
             sodipodi:type="arc"
             style="opacity:0.24122805;color:#000000;fill:#000000;fill-opacity:1;fill-rule:nonzero;stroke:none;stroke-width:20;marker:none;visibility:visible;display:inline;overflow:visible;enable-background:accumulate"
             id="path31225"
             sodipodi:cx="-3812.8572"
             sodipodi:cy="2730"
             sodipodi:rx="115.71429"
             sodipodi:ry="115.71429"
             d="m -3697.1429,2730 a 115.71429,115.71429 0 1 1 -231.4286,0 115.71429,115.71429 0 1 1 231.4286,0 z"
             transform="matrix(0.18935858,0,0,0.18935858,588.18053,-502.26419)" />
        </g>
        <g
           transform="matrix(1.4924207,0,0,1.4924207,-4413.2868,-1691.7121)"
           id="g31227">
          <path
             transform="matrix(0.07176598,0,0,0.07176598,838.2143,-181.2364)"
             d="m -3697.1429,2730 a 115.71429,115.71429 0 1 1 -231.4286,0 115.71429,115.71429 0 1 1 231.4286,0 z"
             sodipodi:ry="115.71429"
             sodipodi:rx="115.71429"
             sodipodi:cy="2730"
             sodipodi:cx="-3812.8572"
             id="path31229"
             style="opacity:0.09210528;color:#000000;fill:#000000;fill-opacity:1;fill-rule:nonzero;stroke:none;stroke-width:20;marker:none;visibility:visible;display:inline;overflow:visible;enable-background:accumulate"
             sodipodi:type="arc" />
        </g>
        <g
           id="g31231"
           transform="translate(-4197.0009,-1649.8984)">
          <path
             sodipodi:type="arc"
             style="opacity:0.09210528;color:#000000;fill:#000000;fill-opacity:1;fill-rule:nonzero;stroke:none;stroke-width:20;marker:none;visibility:visible;display:inline;overflow:visible;enable-background:accumulate"
             id="path31233"
             sodipodi:cx="-3812.8572"
             sodipodi:cy="2730"
             sodipodi:rx="115.71429"
             sodipodi:ry="115.71429"
             d="m -3697.1429,2730 a 115.71429,115.71429 0 1 1 -231.4286,0 115.71429,115.71429 0 1 1 231.4286,0 z"
             transform="matrix(0.07176598,0,0,0.07176598,838.2143,-181.2364)" />
        </g>
        <g
           transform="translate(-2656.5403,-1735.4246)"
           id="g31235">
          <path
             sodipodi:type="arc"
             style="opacity:0.24122805;color:#000000;fill:#000000;fill-opacity:1;fill-rule:nonzero;stroke:none;stroke-width:20;marker:none;visibility:visible;display:inline;overflow:visible;enable-background:accumulate"
             id="path31237"
             sodipodi:cx="-3812.8572"
             sodipodi:cy="2730"
             sodipodi:rx="115.71429"
             sodipodi:ry="115.71429"
             d="m -3697.1429,2730 a 115.71429,115.71429 0 1 1 -231.4286,0 115.71429,115.71429 0 1 1 231.4286,0 z"
             transform="matrix(0.32001702,0,0,0.32001702,0.21251212,-858.96174)" />
        </g>
      </g>
      <g
         transform="matrix(1,0,0,-1,1318.3813,-2888.3237)"
         id="g31239">
        <g
           transform="matrix(1.0748991,0,0,1.0748991,-5231.8503,-1709.9488)"
           id="g31241">
          <path
             sodipodi:type="arc"
             style="opacity:0.24122805;color:#000000;fill:#000000;fill-opacity:1;fill-rule:nonzero;stroke:none;stroke-width:20;marker:none;visibility:visible;display:inline;overflow:visible;enable-background:accumulate"
             id="path31243"
             sodipodi:cx="-3812.8572"
             sodipodi:cy="2730"
             sodipodi:rx="115.71429"
             sodipodi:ry="115.71429"
             d="m -3697.1429,2730 a 115.71429,115.71429 0 1 1 -231.4286,0 115.71429,115.71429 0 1 1 231.4286,0 z"
             transform="matrix(0.32001702,0,0,0.32001702,0.21251212,-858.96174)" />
        </g>
        <g
           id="g31245"
           transform="translate(-5300.9066,-1748.2535)">
          <path
             transform="matrix(0.32001702,0,0,0.32001702,0.21251212,-858.96174)"
             d="m -3697.1429,2730 a 115.71429,115.71429 0 1 1 -231.4286,0 115.71429,115.71429 0 1 1 231.4286,0 z"
             sodipodi:ry="115.71429"
             sodipodi:rx="115.71429"
             sodipodi:cy="2730"
             sodipodi:cx="-3812.8572"
             id="path31247"
             style="opacity:0.24122805;color:#000000;fill:#000000;fill-opacity:1;fill-rule:nonzero;stroke:none;stroke-width:20;marker:none;visibility:visible;display:inline;overflow:visible;enable-background:accumulate"
             sodipodi:type="arc" />
        </g>
        <g
           id="g31249"
           transform="translate(-6442.6172,-1705.4904)">
          <path
             transform="matrix(0.12402936,0,0,0.12402936,684.50856,-323.91542)"
             d="m -3697.1429,2730 a 115.71429,115.71429 0 1 1 -231.4286,0 115.71429,115.71429 0 1 1 231.4286,0 z"
             sodipodi:ry="115.71429"
             sodipodi:rx="115.71429"
             sodipodi:cy="2730"
             sodipodi:cx="-3812.8572"
             id="path31251"
             style="opacity:0.14473685;color:#000000;fill:#000000;fill-opacity:1;fill-rule:nonzero;stroke:none;stroke-width:20;marker:none;visibility:visible;display:inline;overflow:visible;enable-background:accumulate"
             sodipodi:type="arc" />
        </g>
        <g
           transform="translate(-6901.2355,-1705.4904)"
           id="g31253">
          <path
             transform="matrix(0.07176598,0,0,0.07176598,838.2143,-181.2364)"
             d="m -3697.1429,2730 a 115.71429,115.71429 0 1 1 -231.4286,0 115.71429,115.71429 0 1 1 231.4286,0 z"
             sodipodi:ry="115.71429"
             sodipodi:rx="115.71429"
             sodipodi:cy="2730"
             sodipodi:cx="-3812.8572"
             id="path31255"
             style="opacity:0.09210528;color:#000000;fill:#000000;fill-opacity:1;fill-rule:nonzero;stroke:none;stroke-width:20;marker:none;visibility:visible;display:inline;overflow:visible;enable-background:accumulate"
             sodipodi:type="arc" />
        </g>
        <g
           id="g31257"
           transform="matrix(1.4924207,0,0,1.4924207,-5187.9366,-1691.7121)">
          <path
             sodipodi:type="arc"
             style="opacity:0.24122805;color:#000000;fill:#000000;fill-opacity:1;fill-rule:nonzero;stroke:none;stroke-width:20;marker:none;visibility:visible;display:inline;overflow:visible;enable-background:accumulate"
             id="path31259"
             sodipodi:cx="-3812.8572"
             sodipodi:cy="2730"
             sodipodi:rx="115.71429"
             sodipodi:ry="115.71429"
             d="m -3697.1429,2730 a 115.71429,115.71429 0 1 1 -231.4286,0 115.71429,115.71429 0 1 1 231.4286,0 z"
             transform="matrix(0.26122072,0,0,0.26122072,126.74134,-698.44784)" />
        </g>
        <g
           transform="translate(-5597.025,-1649.8984)"
           id="g31261">
          <path
             transform="matrix(0.26122072,0,0,0.26122072,126.74134,-698.44784)"
             d="m -3697.1429,2730 a 115.71429,115.71429 0 1 1 -231.4286,0 115.71429,115.71429 0 1 1 231.4286,0 z"
             sodipodi:ry="115.71429"
             sodipodi:rx="115.71429"
             sodipodi:cy="2730"
             sodipodi:cx="-3812.8572"
             id="path31263"
             style="opacity:0.24122805;color:#000000;fill:#000000;fill-opacity:1;fill-rule:nonzero;stroke:none;stroke-width:20;marker:none;visibility:visible;display:inline;overflow:visible;enable-background:accumulate"
             sodipodi:type="arc" />
        </g>
        <g
           transform="translate(-5961.5645,-1735.4246)"
           id="g31265">
          <path
             sodipodi:type="arc"
             style="opacity:0.24122805;color:#000000;fill:#000000;fill-opacity:1;fill-rule:nonzero;stroke:none;stroke-width:20;marker:none;visibility:visible;display:inline;overflow:visible;enable-background:accumulate"
             id="path31267"
             sodipodi:cx="-3812.8572"
             sodipodi:cy="2730"
             sodipodi:rx="115.71429"
             sodipodi:ry="115.71429"
             d="m -3697.1429,2730 a 115.71429,115.71429 0 1 1 -231.4286,0 115.71429,115.71429 0 1 1 231.4286,0 z"
             transform="matrix(0.22855611,0,0,0.22855611,374.07323,-609.27345)" />
        </g>
      </g>
    </g>
    <g
       transform="matrix(4.0265346,0,0,4.0265346,-423.69004,2087.5782)"
       id="g30841"
       gds_color="fireball">
      <path
         sodipodi:nodetypes="ccccc"
         inkscape:connector-curvature="0"
         id="path30843"
         d="m -21.932053,-525.3363 140.302123,0 0,106.45385 -140.302123,0 z"
         style="opacity:0;color:#000000;fill:#cccccc;fill-opacity:1;fill-rule:nonzero;stroke:none;stroke-width:20;marker:none;visibility:visible;display:inline;overflow:visible;enable-background:accumulate" />
      <g
         id="g30845"
         transform="translate(357.1875,-96.005955)">
        <g
           id="g30847">
          <path
             inkscape:connector-curvature="0"
             style="color:#000000;fill:#ff8655;fill-opacity:1;fill-rule:nonzero;stroke:none;stroke-width:20;marker:none;visibility:visible;display:inline;overflow:visible;enable-background:accumulate"
             d="m 103.03125,1898.8438 c -22.223319,20.2029 -4.02649,30.2983 14.15625,16.1562 18.18274,-14.1422 -14.15625,-16.1562 -14.15625,-16.1562 z m 145.53125,2.8124 c -5.02235,2e-4 -7.84375,1.1876 -7.84375,1.1876 -20.71419,2.8571 -22.14279,8.5937 -10,8.5937 12.1429,0 32.1339,-7.8526 23.5625,-9.2813 -2.14288,-0.357 -4.04463,-0.5 -5.71875,-0.5 z m -25.03125,10.25 c -8.1836,0.391 -15.68752,17.75 -40.6875,25.25 -14.75711,4.4276 -48.23688,4.0015 -69.875,5.0626 0.003,-3.1356 -0.87274,-6.5028 -2.875,-10.0626 -9.09138,-16.1621 -39.398475,-16.1546 -49.5,-10.0937 -10.101526,6.0609 0.0032,0.012 12.125,5.0625 9.496552,3.9569 11.552765,12.2414 1.3125,23.9062 -14.180702,0.6442 -27.717216,3.804 -40.15625,9.0313 4.298469,-7.5292 7.662305,-15.5794 11.125,-24.9375 6.009109,-16.2398 0.151328,-20.2149 -3.15625,-21.1875 0.289512,-1.1122 -1.9375,-0.3437 -1.9375,-0.3437 0,0 -0.875368,3.3431 -14.15625,22.4374 -11.28269,16.222 -45.206022,23.9949 -51.625,48.7188 -8.08088,3.0795 -18.021965,10.6442 -26.65625,22.1562 -15.152288,20.2034 -8.082013,34.3625 -3.03125,26.2813 3.856746,-6.1709 21.265082,-24.6883 35.125,-26.8125 -11.281903,18.0636 -17.8125,39.3812 -17.8125,62.25 0,16.8392 3.505891,32.8574 9.875,47.3438 0.05481,1.0106 0.13861,2.0275 0.21875,3.0312 -5.508622,3.1556 -9.271545,7.0497 -11.84375,11 -28.186845,13.4309 -26.282458,38.4002 -23.625,51.6875 3.030458,15.1523 20.200822,29.2813 31.3125,29.2813 11.111678,0 19.186708,-15.1368 16.15625,-20.1876 -3.030457,-5.0506 -17.1875,-15.1562 -17.1875,-15.1562 0,0 11.11247,18.1672 3.03125,20.1875 -8.081221,2.0203 -23.236678,-22.2097 -12.125,-29.2813 7.10608,-4.5216 13.796885,-3.2725 19.8125,-3.625 6.083692,15.3862 18.5256872,30.2014 19.375,39.9688 -8.571515,23.5714 34.290177,56.4151 45.71875,47.8438 0,0 -17.839331,-18.5491 -17.125,-41.4063 0.01055,-0.3377 0.02073,-0.5204 0.03125,-0.8437 17.505283,11.3087 38.225551,18.0987 60.46875,18.7187 16.23063,20.0784 13.680007,30.5496 7.09375,36.3125 -8.08122,7.0711 -24.25,-1 -24.25,-1 l 2.03125,-21.2188 c 0,0 3.01872,-8.1022 -5.0625,-1.0312 -8.081221,7.0711 -4.041403,25.2516 -3.03125,31.3125 1.010153,6.0609 18.192254,11.1245 36.375,8.0937 18.18275,-3.0304 24.24064,-4.0253 28.28125,-20.1874 2.50924,-10.0373 0.35856,-24.7532 -4.0625,-36.1563 2.905,-0.07 5.77607,-0.2541 8.625,-0.5313 25.56262,15.3781 29.67055,30.0525 44.9375,25.5626 17.17259,-5.051 23.23128,-19.1969 31.3125,-15.1563 8.08122,4.0406 18.1875,21.2187 18.1875,21.2187 0,0 3.00936,-19.2 -1.03125,-27.2812 -4.04061,-8.0813 -13.10707,-13.1132 -24.21875,-8.0625 -11.11168,5.0508 -15.1672,-1.0129 -17.1875,-9.0937 -0.34187,-1.3678 -1.08466,-2.687 -2.1875,-3.875 6.67162,-4.0852 12.91524,-8.8051 18.625,-14.0938 30.11263,-11.2824 52.52189,9.9103 79.53125,10.875 28.28427,1.0101 39.40863,-22.2212 48.5,-31.3125 9.09138,-9.0914 15.125,14.1563 15.125,14.1563 0,0 11.13119,-17.1802 -5.03125,-30.3126 -16.16244,-13.132 -22.21336,13.1366 -41.40625,18.1876 -19.1929,5.0506 -58.59533,-4.0552 -64.65625,-17.1876 -0.99831,-2.163 -2.18671,-3.8779 -3.46875,-5.2187 5.89108,-14.0209 9.15625,-29.4336 9.15625,-45.5937 0,-7.801 -0.77104,-15.4091 -2.21875,-22.7813 11.67089,-0.3107 26.20819,-4.5859 39.96875,-13.25 27.27411,-17.1726 16.15625,-24.25 16.15625,-24.25 0,0 -21.21335,5.0305 -40.40625,2 -10.04066,-1.5854 -17.29585,-5.0826 -23.6875,-6.3437 -2.72177,-13.2624 -7.66735,-25.7094 -14.4375,-36.9376 2.05119,-8.9958 0.30882,-20.1324 4.6875,-29.9062 7.1116,-15.8737 21.375,-0.3438 21.375,-0.3438 0,0 5.48537,-10.4573 -8.40625,-17.9687 -13.89165,-7.5114 -24.07633,4.0664 -32.90625,13.7813 -3.063,3.3699 -6.26578,4.8938 -9.125,5.6562 -2.91245,-2.4925 -5.945,-4.829 -9.09375,-7.0312 27.06506,-2.6332 27.04449,-20.7193 42.90625,-33.9376 17.14286,-14.2853 21.44197,8.5801 27.15625,11.4376 5.71429,2.8567 -12.84375,-27.161 -22.84375,-32.875 -1.25,-0.7147 -2.45591,-0.9931 -3.625,-0.9376 z m 188.5,51.2188 c -0.46767,0.01 -0.71875,0.031 -0.71875,0.031 -3.65609,1.8551 -5.96784,7.7923 0.1875,9.5626 24.30637,1.5639 38.96589,1.2432 9.8125,-7.9688 -4.52914,-1.5254 -7.87824,-1.6562 -9.28125,-1.625 z M 401.5,2079.0938 c -13.00426,0.4193 -16.77067,2.5189 -12.15625,5.875 4.61442,3.3557 26.00582,6.7301 29.78125,0.4374 3.77544,-6.2923 -17.625,-6.3124 -17.625,-6.3124 z m 20.375,22 c -11.54187,0.1313 -15.2884,4.4385 -8.8125,8.1874 7.97034,4.6146 27.26797,4.1987 27.6875,-2.0937 0.41949,-6.2924 -9.65625,-5.4375 -9.65625,-5.4375 -3.46081,-0.4719 -6.55524,-0.687 -9.21875,-0.6562 z"
             transform="matrix(0.26458334,0,0,0.26458334,-357.18755,-929.91075)"
             id="path30849" />
        </g>
        <g
           id="g30851" />
      </g>
      <g
         id="g30853"
         transform="matrix(-0.5,-0.8660254,0.8660254,-0.5,309.69776,-914.04815)">
        <path
           style="color:#000000;fill:#ffffff;fill-opacity:1;fill-rule:nonzero;stroke:none;stroke-width:20;marker:none;visibility:visible;display:inline;overflow:visible;enable-background:accumulate"
           d="m -246.88155,-501.20014 c -12.84197,0 -23.25026,10.40828 -23.25026,23.25026 0,0.16494 0.005,0.33197 0.008,0.49609 -1.98133,1.89744 -3.21634,4.56414 -3.21634,7.52409 0,2.8742 1.16125,5.48137 3.04271,7.36701 -0.59222,1.89254 -0.90951,3.90668 -0.90951,5.99445 0,11.07067 8.97979,20.05044 20.05046,20.05044 0.10045,0 0.19756,-0.007 0.29766,-0.008 1.89115,1.00304 4.34873,1.61232 7.03626,1.61232 0.76419,0 1.51304,-0.0556 2.23242,-0.14886 2.91233,1.45788 6.19534,2.28203 9.67383,2.28203 11.95632,0 21.64622,-9.68988 21.64622,-21.6462 0,-1.4334 -0.13932,-2.83649 -0.40514,-4.192 2.79946,-1.61655 4.68809,-4.63786 4.68809,-8.10287 0,-3.31374 -1.72526,-6.22606 -4.32429,-7.88789 0.0279,-0.39634 0.0413,-0.79544 0.0413,-1.1989 0,-7.9552 -5.515,-14.61831 -12.93151,-16.37935 0.0675,-0.41143 0.10749,-0.82624 0.10749,-1.25677 0,-4.28067 -3.47494,-7.7556 -7.7556,-7.7556 -2.2274,0 -4.22513,0.94297 -5.63893,2.44739 -3.1282,-1.56604 -6.65677,-2.44739 -10.39317,-2.44739 z"
           id="path30855"
           inkscape:connector-curvature="0" />
        <path
           sodipodi:type="arc"
           style="color:#000000;fill:#ffcc00;fill-opacity:1;fill-rule:nonzero;stroke:none;stroke-width:20;marker:none;visibility:visible;display:inline;overflow:visible;enable-background:accumulate"
           id="path30857"
           sodipodi:cx="-867.72101"
           sodipodi:cy="4435.3247"
           sodipodi:rx="87.88327"
           sodipodi:ry="87.88327"
           d="m -779.83774,4435.3247 a 87.88327,87.88327 0 1 1 -175.76654,0 87.88327,87.88327 0 1 1 175.76654,0 z"
           transform="matrix(0.26458334,0,0,0.26458334,-17.29762,-1651.4597)" />
        <path
           sodipodi:type="arc"
           style="color:#000000;fill:#ffcc00;fill-opacity:1;fill-rule:nonzero;stroke:none;stroke-width:20;marker:none;visibility:visible;display:inline;overflow:visible;enable-background:accumulate"
           id="path30859"
           sodipodi:cx="-811.15247"
           sodipodi:cy="4524.2183"
           sodipodi:rx="81.822357"
           sodipodi:ry="81.822357"
           d="m -729.33011,4524.2183 a 81.822357,81.822357 0 1 1 -163.64471,0 81.822357,81.822357 0 1 1 163.64471,0 z"
           transform="matrix(0.26458334,0,0,0.26458334,-17.29762,-1651.4597)" />
        <path
           sodipodi:type="arc"
           style="color:#000000;fill:#ffcc00;fill-opacity:1;fill-rule:nonzero;stroke:none;stroke-width:20;marker:none;visibility:visible;display:inline;overflow:visible;enable-background:accumulate"
           id="path30861"
           sodipodi:cx="-883.88348"
           sodipodi:cy="4516.1367"
           sodipodi:rx="75.761444"
           sodipodi:ry="75.761444"
           d="m -808.12204,4516.1367 a 75.761444,75.761444 0 1 1 -151.52289,0 75.761444,75.761444 0 1 1 151.52289,0 z"
           transform="matrix(0.26458334,0,0,0.26458334,-17.29762,-1651.4597)" />
        <path
           sodipodi:type="arc"
           style="color:#000000;fill:#ffcc00;fill-opacity:1;fill-rule:nonzero;stroke:none;stroke-width:20;marker:none;visibility:visible;display:inline;overflow:visible;enable-background:accumulate"
           id="path30863"
           sodipodi:cx="-928.3302"
           sodipodi:cy="4465.6294"
           sodipodi:rx="39.39595"
           sodipodi:ry="39.39595"
           d="m -888.93425,4465.6294 a 39.39595,39.39595 0 1 1 -78.7919,0 39.39595,39.39595 0 1 1 78.7919,0 z"
           transform="matrix(0.26458334,0,0,0.26458334,-17.29762,-1651.4597)" />
        <path
           sodipodi:type="arc"
           style="color:#000000;fill:#ffcc00;fill-opacity:1;fill-rule:nonzero;stroke:none;stroke-width:20;marker:none;visibility:visible;display:inline;overflow:visible;enable-background:accumulate"
           id="path30865"
           sodipodi:cx="-807.11188"
           sodipodi:cy="4376.7358"
           sodipodi:rx="29.294424"
           sodipodi:ry="29.294424"
           d="m -777.81745,4376.7358 a 29.294424,29.294424 0 1 1 -58.58885,0 29.294424,29.294424 0 1 1 58.58885,0 z"
           transform="matrix(0.26458334,0,0,0.26458334,-17.29762,-1651.4597)" />
        <path
           sodipodi:type="arc"
           style="color:#000000;fill:#ffcc00;fill-opacity:1;fill-rule:nonzero;stroke:none;stroke-width:20;marker:none;visibility:visible;display:inline;overflow:visible;enable-background:accumulate"
           id="path30867"
           sodipodi:cx="-748.52301"
           sodipodi:cy="4477.751"
           sodipodi:rx="35.355339"
           sodipodi:ry="35.355339"
           d="m -713.16767,4477.751 a 35.355339,35.355339 0 1 1 -70.71068,0 35.355339,35.355339 0 1 1 70.71068,0 z"
           transform="matrix(0.26458334,0,0,0.26458334,-17.29762,-1651.4597)" />
        <path
           sodipodi:type="arc"
           style="opacity:0.42307691;color:#000000;fill:#ffcc00;fill-opacity:1;fill-rule:nonzero;stroke:none;stroke-width:20;marker:none;visibility:visible;display:inline;overflow:visible;enable-background:accumulate"
           id="path30869"
           sodipodi:cx="-856.15393"
           sodipodi:cy="4572.7056"
           sodipodi:rx="40.86153"
           sodipodi:ry="25.253813"
           d="m -815.2924,4572.7056 a 40.86153,25.253813 0 1 1 -81.72306,0 40.86153,25.253813 0 1 1 81.72306,0 z"
           transform="matrix(0.26458334,0,0,0.26458334,-17.29762,-1651.4597)" />
        <g
           id="g30871"
           transform="matrix(-0.98182419,-0.18979268,0.18979268,-0.98182419,-461.51592,-368.61541)">
          <path
             transform="matrix(0.26458334,0,0,0.26458334,-5e-5,-1025.9167)"
             d="m -729.33012,4443.4058 a 63.63961,63.63961 0 1 1 -127.27922,0 63.63961,63.63961 0 1 1 127.27922,0 z"
             sodipodi:ry="63.63961"
             sodipodi:rx="63.63961"
             sodipodi:cy="4443.4058"
             sodipodi:cx="-792.96973"
             id="path30873"
             style="color:#000000;fill:#ffcc00;fill-opacity:1;fill-rule:nonzero;stroke:none;stroke-width:20;marker:none;visibility:visible;display:inline;overflow:visible;enable-background:accumulate"
             sodipodi:type="arc" />
          <path
             inkscape:connector-curvature="0"
             style="color:#000000;fill:#ffff00;fill-opacity:1;fill-rule:nonzero;stroke:none;stroke-width:20;marker:none;visibility:visible;display:inline;overflow:visible;enable-background:accumulate"
             d="m 121.875,1958.8438 c -0.9053,-0.01 -1.8121,0.01 -2.71875,0.031 -13.18763,0.343 -26.457814,3.8767 -38.6875,10.9375 -4.699667,2.7134 -9.029258,5.8147 -12.96875,9.25 -10.581496,-6.115 -24.033428,-6.5792 -35.375,-0.031 -10.364581,5.984 -16.541243,16.4213 -17.53125,27.5 2.555888,-8.1668 8.067266,-15.4151 16.0625,-20.0312 16.910194,-9.7631 38.518145,-3.9727 48.28125,12.9375 3.777354,6.5426 5.216685,13.7876 4.59375,20.7813 2.848836,-9.1057 2.021526,-19.3048 -3.125,-28.2188 -3.05097,-5.2844 -7.26342,-9.4878 -12.125,-12.4688 42.35006,-20.8608 94.20963,-5.5392 118.15625,35.9376 1.56778,2.7153 2.96578,5.4813 4.21875,8.2812 -8.82526,-6.0493 -18.18118,-7.8131 -25.21875,-3.75 -1.05619,0.6098 -2.0253,1.304 -2.90625,2.125 12.0183,-3.7049 28.69455,6.3692 39,24.2188 10.30505,17.8487 10.65409,37.3187 1.4375,45.875 1.15179,-0.3526 2.25595,-0.8588 3.3125,-1.4688 3.08519,-1.7812 5.41446,-4.5063 7,-7.9062 7.07409,31.4786 -6.61288,65.1715 -36.03125,82.1562 -24.59268,14.1986 -53.86179,13.068 -76.65625,-0.4688 23.73195,20.9379 59.07777,25.4796 88,8.7813 36.23615,-20.921 48.67095,-67.2639 27.75,-103.5 -0.19334,-0.3349 -0.39524,-0.67 -0.59375,-1 -0.29386,-8.0759 -2.95749,-17.2745 -8.03125,-26.0625 -1.44605,-2.5046 -3.02044,-4.8499 -4.6875,-7.0312 -0.72793,-12.2835 -4.23863,-24.5825 -10.8125,-35.9688 -15.04837,-26.0645 -42.27951,-40.7033 -70.34375,-40.9062 z m -80.1875,42.8124 c -6.694886,0.071 -13.509678,1.2242 -20.1875,3.5313 -33.220467,11.4772 -50.820952,47.6858 -39.34375,80.9063 2.079235,6.0181 4.962343,11.5239 8.5,16.4374 -3.237361,8.4261 -5.206111,17.3391 -5.75,26.375 -3.73969,-1.2807 -8.78014,-1.996 -10.40625,-4.8124 -7.359042,-12.7463 -6.209617,-27.907 1.8125,-38.1563 -13.49784,8.2655 -18.022903,25.8372 -10.0625,39.625 4.205507,7.2842 11.068439,12.0594 18.65625,13.8437 0.787872,13.1959 4.596083,26.3966 11.65625,38.625 24.268288,42.034 77.997308,56.4558 120.03125,32.1876 0.52006,-0.3004 1.02337,-0.6207 1.53125,-0.9376 6.37077,1.864 13.20992,2.1091 19.84375,0.5938 -13.09416,-0.487 -25.65238,-7.4711 -32.6875,-19.6562 -10.878897,-18.8429 -4.43645,-42.9337 14.40625,-53.8126 3.53306,-2.0398 7.25074,-3.4901 11.03125,-4.3437 -7.18421,-0.2845 -14.5318,1.3893 -21.21875,5.25 -18.842803,10.8789 -25.285147,35.0009 -14.40625,53.8437 2.7676,4.7937 6.38743,8.7976 10.5625,11.9063 -63.917558,11.2835 -120.10757,-38.115 -107.59375,-91.9687 12.059807,11.6383 28.413292,18.1969 45.40625,17.875 -21.913444,-3.9585 -41.1172437,-19.3301 -48.90625,-41.875 -11.477202,-33.2205 6.15462813,-69.4291 39.375,-80.9063 6.500672,-2.2459 13.101617,-3.3817 19.625,-3.5 -3.894095,-0.7051 -7.858068,-1.0739 -11.875,-1.0313 z"
             transform="matrix(0.08639885,-0.25007915,0.25007915,0.08639885,-729.95487,-18.133006)"
             id="path30875" />
        </g>
        <path
           sodipodi:type="arc"
           style="color:#000000;fill:#ffcc00;fill-opacity:1;fill-rule:nonzero;stroke:none;stroke-width:20;marker:none;visibility:visible;display:inline;overflow:visible;enable-background:accumulate"
           id="path30877"
           sodipodi:cx="-835.35712"
           sodipodi:cy="4468.2144"
           sodipodi:rx="53.214287"
           sodipodi:ry="53.214287"
           d="m -782.14283,4468.2144 a 53.214287,53.214287 0 1 1 -106.42857,0 53.214287,53.214287 0 1 1 106.42857,0 z"
           transform="matrix(0.26458334,0,0,0.26458334,-17.29762,-1651.4597)" />
        <path
           sodipodi:type="arc"
           style="color:#000000;fill:url(#radialGradient6114);fill-opacity:1;fill-rule:nonzero;stroke:none;stroke-width:20;marker:none;visibility:visible;display:inline;overflow:visible;enable-background:accumulate"
           id="path30879"
           sodipodi:cx="-808.21429"
           sodipodi:cy="4495.3569"
           sodipodi:rx="100.35714"
           sodipodi:ry="100.35714"
           d="m -707.85715,4495.3569 a 100.35714,100.35714 0 1 1 -200.71428,0 100.35714,100.35714 0 1 1 200.71428,0 z"
           transform="matrix(0.26458334,0,0,0.26458334,-25.80209,-1655.4285)" />
        <path
           sodipodi:type="arc"
           style="opacity:0.38938054;color:#000000;fill:#ffffff;fill-opacity:1;fill-rule:nonzero;stroke:none;stroke-width:20;marker:none;visibility:visible;display:inline;overflow:visible;enable-background:accumulate"
           id="path30881"
           sodipodi:cx="-812.66772"
           sodipodi:cy="4514.6216"
           sodipodi:rx="41.921329"
           sodipodi:ry="41.921329"
           d="m -770.7464,4514.6216 a 41.921329,41.921329 0 1 1 -83.84265,0 41.921329,41.921329 0 1 1 83.84265,0 z"
           transform="matrix(0.26458334,0,0,0.26458334,-17.29762,-1651.4597)" />
        <path
           sodipodi:type="arc"
           style="opacity:0.38938054;color:#000000;fill:#ffffff;fill-opacity:1;fill-rule:nonzero;stroke:none;stroke-width:20;marker:none;visibility:visible;display:inline;overflow:visible;enable-background:accumulate"
           id="path30883"
           sodipodi:cx="-801.05096"
           sodipodi:cy="4463.6089"
           sodipodi:rx="45.456863"
           sodipodi:ry="45.456863"
           d="m -755.5941,4463.6089 a 45.456863,45.456863 0 1 1 -90.91373,0 45.456863,45.456863 0 1 1 90.91373,0 z"
           transform="matrix(0.26458334,0,0,0.26458334,-15.15946,-1653.3306)" />
        <path
           sodipodi:type="arc"
           style="opacity:0.38938054;color:#000000;fill:#ffffff;fill-opacity:1;fill-rule:nonzero;stroke:none;stroke-width:20;marker:none;visibility:visible;display:inline;overflow:visible;enable-background:accumulate"
           id="path30885"
           sodipodi:cx="-851.55859"
           sodipodi:cy="4500.9849"
           sodipodi:rx="59.598999"
           sodipodi:ry="59.598999"
           d="m -791.95959,4500.9849 a 59.598999,59.598999 0 1 1 -119.198,0 59.598999,59.598999 0 1 1 119.198,0 z"
           transform="matrix(0.26458334,0,0,0.26458334,-22.10847,-1651.727)" />
        <path
           sodipodi:type="arc"
           style="opacity:0.38938054;color:#000000;fill:#ffffff;fill-opacity:1;fill-rule:nonzero;stroke:none;stroke-width:20;marker:none;visibility:visible;display:inline;overflow:visible;enable-background:accumulate"
           id="path30887"
           sodipodi:cx="-841.45709"
           sodipodi:cy="4451.4873"
           sodipodi:rx="35.355339"
           sodipodi:ry="35.355339"
           d="m -806.10175,4451.4873 a 35.355339,35.355339 0 1 1 -70.71068,0 35.355339,35.355339 0 1 1 70.71068,0 z"
           transform="matrix(0.26458334,0,0,0.26458334,-17.03035,-1651.9942)" />
        <path
           sodipodi:type="arc"
           style="opacity:0.38938054;color:#000000;fill:#ffffff;fill-opacity:1;fill-rule:nonzero;stroke:none;stroke-width:20;marker:none;visibility:visible;display:inline;overflow:visible;enable-background:accumulate"
           id="path30889"
           sodipodi:cx="-879.8429"
           sodipodi:cy="4430.2739"
           sodipodi:rx="30.304577"
           sodipodi:ry="30.304577"
           d="m -849.53832,4430.2739 a 30.304577,30.304577 0 1 1 -60.60915,0 30.304577,30.304577 0 1 1 60.60915,0 z"
           transform="matrix(0.26458334,0,0,0.26458334,-17.29762,-1651.4597)" />
        <path
           style="color:#000000;fill:#ffffff;fill-opacity:1;fill-rule:nonzero;stroke:none;stroke-width:20;marker:none;visibility:visible;display:inline;overflow:visible;enable-background:accumulate"
           d="m -216.42966,-477.8672 c 0.1833,0.83466 0.28112,1.70651 0.28112,2.59623 0,5.65218 -3.89896,10.38778 -9.15293,11.67474 1.01847,1.12638 1.60922,1.99397 1.94304,2.69544 4.80954,-1.57499 8.28476,-6.10008 8.28476,-11.43498 0,-1.99691 -0.49478,-3.87397 -1.35599,-5.53143 z"
           id="path30891"
           inkscape:connector-curvature="0" />
        <path
           style="color:#000000;fill:#ffffff;fill-opacity:1;fill-rule:nonzero;stroke:none;stroke-width:20;marker:none;visibility:visible;display:inline;overflow:visible;enable-background:accumulate"
           d="m -262.38448,-465.81212 c -0.51846,1.56247 -0.80201,3.23273 -0.80201,4.96922 0,8.70892 7.05859,15.7675 15.76751,15.7675 8.01443,0 14.63069,-5.97625 15.63522,-13.71698 -2.08781,6.26322 -8.00057,10.78177 -14.96549,10.78177 -8.70893,0 -15.76752,-7.05861 -15.76752,-15.76753 0,-0.68876 0.0466,-1.36853 0.13229,-2.03398 z"
           id="path30893"
           inkscape:connector-curvature="0" />
        <path
           style="color:#000000;fill:#ffffff;fill-opacity:1;fill-rule:nonzero;stroke:none;stroke-width:20;marker:none;visibility:visible;display:inline;overflow:visible;enable-background:accumulate"
           d="m -232.31292,-468.06108 c -0.47418,0 -0.94709,0.0332 -1.4056,0.0909 5.46285,0.69011 9.69036,5.35487 9.69036,11.00503 0,5.64996 -4.22775,10.30642 -9.69036,10.99674 0.45867,0.0578 0.93124,0.0909 1.4056,0.0909 6.12576,0 11.08769,-4.96192 11.08769,-11.08768 0,-6.12577 -4.96193,-11.09597 -11.08769,-11.09597 z"
           id="path30895"
           inkscape:connector-curvature="0" />
        <path
           style="color:#000000;fill:#ffffff;fill-opacity:1;fill-rule:nonzero;stroke:none;stroke-width:20;marker:none;visibility:visible;display:inline;overflow:visible;enable-background:accumulate"
           d="m -239.66338,-483.55574 c -5.16631,0 -9.35964,4.18505 -9.35964,9.35138 0,0.95377 0.14813,1.86986 0.41342,2.73677 -0.004,-0.11104 -0.008,-0.21878 -0.008,-0.33073 0,-5.46153 4.42727,-9.8888 9.8888,-9.8888 3.01111,0 5.70204,1.34974 7.51582,3.47266 -1.50134,-3.16037 -4.71853,-5.34128 -8.45013,-5.34128 z"
           id="path30897"
           inkscape:connector-curvature="0" />
      </g>
    </g>
  </g>
</svg>
