<?xml version="1.0" encoding="UTF-8" standalone="no"?>
<!-- Created with Inkscape (http://www.inkscape.org/) -->

<svg
   xmlns:dc="http://purl.org/dc/elements/1.1/"
   xmlns:cc="http://creativecommons.org/ns#"
   xmlns:rdf="http://www.w3.org/1999/02/22-rdf-syntax-ns#"
   xmlns:svg="http://www.w3.org/2000/svg"
   xmlns="http://www.w3.org/2000/svg"
   xmlns:xlink="http://www.w3.org/1999/xlink"
   xmlns:sodipodi="http://sodipodi.sourceforge.net/DTD/sodipodi-0.dtd"
   xmlns:inkscape="http://www.inkscape.org/namespaces/inkscape"
   width="1023.9995"
   height="428.64011"
   id="svg4611"
   version="1.1"
   inkscape:version="0.48.5 r10040"
   sodipodi:docname="smoking_fireball_01.svg">
  <defs
     id="defs4613">
    <radialGradient
       inkscape:collect="always"
       xlink:href="#linearGradient25629"
       id="radialGradient32259"
       gradientUnits="userSpaceOnUse"
       gradientTransform="matrix(0,0.9421926,-1,0,3676.4288,5242.6685)"
       cx="-795.81506"
       cy="4484.2861"
       fx="-795.81506"
       fy="4484.2861"
       r="100.35714" />
    <linearGradient
       id="linearGradient25629">
      <stop
         style="stop-color:#ffffff;stop-opacity:1"
         offset="0"
         id="stop25631" />
      <stop
         id="stop25637"
         offset="0.69999999"
         style="stop-color:#ffff00;stop-opacity:1" />
      <stop
         style="stop-color:#ffff00;stop-opacity:0"
         offset="1"
         id="stop25633" />
    </linearGradient>
    <radialGradient
       inkscape:collect="always"
       xlink:href="#linearGradient25629"
       id="radialGradient32261"
       gradientUnits="userSpaceOnUse"
       gradientTransform="matrix(0,0.9421926,-1,0,3676.4288,5242.6685)"
       cx="-795.81506"
       cy="4484.2861"
       fx="-795.81506"
       fy="4484.2861"
       r="100.35714" />
    <linearGradient
       id="linearGradient4635">
      <stop
         style="stop-color:#ffffff;stop-opacity:1"
         offset="0"
         id="stop4637" />
      <stop
         id="stop4639"
         offset="0.69999999"
         style="stop-color:#ffff00;stop-opacity:1" />
      <stop
         style="stop-color:#ffff00;stop-opacity:0"
         offset="1"
         id="stop4641" />
    </linearGradient>
    <radialGradient
       inkscape:collect="always"
       xlink:href="#linearGradient25629"
       id="radialGradient32263"
       gradientUnits="userSpaceOnUse"
       gradientTransform="matrix(0,0.9421926,-1,0,3676.4288,5242.6685)"
       cx="-795.81506"
       cy="4484.2861"
       fx="-795.81506"
       fy="4484.2861"
       r="100.35714" />
    <linearGradient
       id="linearGradient4644">
      <stop
         style="stop-color:#ffffff;stop-opacity:1"
         offset="0"
         id="stop4646" />
      <stop
         id="stop4648"
         offset="0.69999999"
         style="stop-color:#ffff00;stop-opacity:1" />
      <stop
         style="stop-color:#ffff00;stop-opacity:0"
         offset="1"
         id="stop4650" />
    </linearGradient>
    <radialGradient
       inkscape:collect="always"
       xlink:href="#linearGradient25629"
       id="radialGradient32265"
       gradientUnits="userSpaceOnUse"
       gradientTransform="matrix(0,0.9421926,-1,0,3676.4288,5242.6685)"
       cx="-795.81506"
       cy="4484.2861"
       fx="-795.81506"
       fy="4484.2861"
       r="100.35714" />
    <linearGradient
       id="linearGradient4653">
      <stop
         style="stop-color:#ffffff;stop-opacity:1"
         offset="0"
         id="stop4655" />
      <stop
         id="stop4657"
         offset="0.69999999"
         style="stop-color:#ffff00;stop-opacity:1" />
      <stop
         style="stop-color:#ffff00;stop-opacity:0"
         offset="1"
         id="stop4659" />
    </linearGradient>
    <radialGradient
       inkscape:collect="always"
       xlink:href="#linearGradient25629"
       id="radialGradient32267"
       gradientUnits="userSpaceOnUse"
       gradientTransform="matrix(0,0.9421926,-1,0,3676.4288,5242.6685)"
       cx="-795.81506"
       cy="4484.2861"
       fx="-795.81506"
       fy="4484.2861"
       r="100.35714" />
    <linearGradient
       id="linearGradient4662">
      <stop
         style="stop-color:#ffffff;stop-opacity:1"
         offset="0"
         id="stop4664" />
      <stop
         id="stop4666"
         offset="0.69999999"
         style="stop-color:#ffff00;stop-opacity:1" />
      <stop
         style="stop-color:#ffff00;stop-opacity:0"
         offset="1"
         id="stop4668" />
    </linearGradient>
    <radialGradient
       inkscape:collect="always"
       xlink:href="#linearGradient25629"
       id="radialGradient32269"
       gradientUnits="userSpaceOnUse"
       gradientTransform="matrix(0,0.9421926,-1,0,3676.4288,5242.6685)"
       cx="-795.81506"
       cy="4484.2861"
       fx="-795.81506"
       fy="4484.2861"
       r="100.35714" />
    <linearGradient
       id="linearGradient4671">
      <stop
         style="stop-color:#ffffff;stop-opacity:1"
         offset="0"
         id="stop4673" />
      <stop
         id="stop4675"
         offset="0.69999999"
         style="stop-color:#ffff00;stop-opacity:1" />
      <stop
         style="stop-color:#ffff00;stop-opacity:0"
         offset="1"
         id="stop4677" />
    </linearGradient>
  </defs>
  <sodipodi:namedview
     id="base"
     pagecolor="#ffffff"
     bordercolor="#666666"
     borderopacity="1.0"
     inkscape:pageopacity="0.0"
     inkscape:pageshadow="2"
     inkscape:zoom="0.49497475"
     inkscape:cx="490.19341"
     inkscape:cy="36.908922"
     inkscape:document-units="px"
     inkscape:current-layer="layer1"
     showgrid="false"
     inkscape:window-width="1920"
     inkscape:window-height="1017"
     inkscape:window-x="-8"
     inkscape:window-y="-8"
     inkscape:window-maximized="1" />
  <metadata
     id="metadata4616">
    <rdf:RDF>
      <cc:Work
         rdf:about="">
        <dc:format>image/svg+xml</dc:format>
        <dc:type
           rdf:resource="http://purl.org/dc/dcmitype/StillImage" />
        <dc:title />
      </cc:Work>
    </rdf:RDF>
  </metadata>
  <g
     inkscape:label="Layer 1"
     inkscape:groupmode="layer"
     id="layer1"
     transform="translate(511.99906,884.98615)">
    <g
       id="g31545"
       transform="matrix(1.3276229,0,0,1.3276229,8516.8716,920.18958)"
       gds_color="smoke"
       gds_switchable="smoke">
      <rect
         y="-1332.8334"
         x="-6594.9292"
         height="269.11905"
         width="565.45239"
         id="rect31547"
         style="opacity:0;color:#000000;fill:#dbe3e2;fill-opacity:1;fill-rule:nonzero;stroke:none;stroke-width:20;marker:none;visibility:visible;display:inline;overflow:visible;enable-background:accumulate" />
      <g
         id="g31549"
         transform="matrix(1.0748991,0,0,1.0748991,-5231.8503,-1218.1729)">
        <path
           transform="matrix(0.32001702,0,0,0.32001702,0.21251212,-858.96174)"
           d="m -3697.1429,2730 a 115.71429,115.71429 0 1 1 -231.4286,0 115.71429,115.71429 0 1 1 231.4286,0 z"
           sodipodi:ry="115.71429"
           sodipodi:rx="115.71429"
           sodipodi:cy="2730"
           sodipodi:cx="-3812.8572"
           id="path31551"
           style="opacity:0.24122805;color:#000000;fill:#000000;fill-opacity:1;fill-rule:nonzero;stroke:none;stroke-width:20;marker:none;visibility:visible;display:inline;overflow:visible;enable-background:accumulate"
           sodipodi:type="arc" />
      </g>
      <g
         transform="translate(-5300.9066,-1256.4776)"
         id="g31553">
        <path
           sodipodi:type="arc"
           style="opacity:0.24122805;color:#000000;fill:#000000;fill-opacity:1;fill-rule:nonzero;stroke:none;stroke-width:20;marker:none;visibility:visible;display:inline;overflow:visible;enable-background:accumulate"
           id="path31555"
           sodipodi:cx="-3812.8572"
           sodipodi:cy="2730"
           sodipodi:rx="115.71429"
           sodipodi:ry="115.71429"
           d="m -3697.1429,2730 a 115.71429,115.71429 0 1 1 -231.4286,0 115.71429,115.71429 0 1 1 231.4286,0 z"
           transform="matrix(0.32001702,0,0,0.32001702,0.21251212,-858.96174)" />
      </g>
      <g
         transform="translate(-6442.6172,-1213.7145)"
         id="g31557">
        <path
           sodipodi:type="arc"
           style="opacity:0.14473685;color:#000000;fill:#000000;fill-opacity:1;fill-rule:nonzero;stroke:none;stroke-width:20;marker:none;visibility:visible;display:inline;overflow:visible;enable-background:accumulate"
           id="path31559"
           sodipodi:cx="-3812.8572"
           sodipodi:cy="2730"
           sodipodi:rx="115.71429"
           sodipodi:ry="115.71429"
           d="m -3697.1429,2730 a 115.71429,115.71429 0 1 1 -231.4286,0 115.71429,115.71429 0 1 1 231.4286,0 z"
           transform="matrix(0.12402936,0,0,0.12402936,684.50856,-323.91542)" />
      </g>
      <g
         id="g31561"
         transform="translate(-6901.2355,-1213.7145)">
        <path
           sodipodi:type="arc"
           style="opacity:0.09210528;color:#000000;fill:#000000;fill-opacity:1;fill-rule:nonzero;stroke:none;stroke-width:20;marker:none;visibility:visible;display:inline;overflow:visible;enable-background:accumulate"
           id="path31563"
           sodipodi:cx="-3812.8572"
           sodipodi:cy="2730"
           sodipodi:rx="115.71429"
           sodipodi:ry="115.71429"
           d="m -3697.1429,2730 a 115.71429,115.71429 0 1 1 -231.4286,0 115.71429,115.71429 0 1 1 231.4286,0 z"
           transform="matrix(0.07176598,0,0,0.07176598,838.2143,-181.2364)" />
      </g>
      <g
         transform="matrix(1.4924207,0,0,1.4924207,-5187.9366,-1199.9362)"
         id="g31565">
        <path
           transform="matrix(0.26122072,0,0,0.26122072,126.74134,-698.44784)"
           d="m -3697.1429,2730 a 115.71429,115.71429 0 1 1 -231.4286,0 115.71429,115.71429 0 1 1 231.4286,0 z"
           sodipodi:ry="115.71429"
           sodipodi:rx="115.71429"
           sodipodi:cy="2730"
           sodipodi:cx="-3812.8572"
           id="path31567"
           style="opacity:0.24122805;color:#000000;fill:#000000;fill-opacity:1;fill-rule:nonzero;stroke:none;stroke-width:20;marker:none;visibility:visible;display:inline;overflow:visible;enable-background:accumulate"
           sodipodi:type="arc" />
      </g>
      <g
         id="g31569"
         transform="translate(-5597.025,-1158.1225)">
        <path
           sodipodi:type="arc"
           style="opacity:0.24122805;color:#000000;fill:#000000;fill-opacity:1;fill-rule:nonzero;stroke:none;stroke-width:20;marker:none;visibility:visible;display:inline;overflow:visible;enable-background:accumulate"
           id="path31571"
           sodipodi:cx="-3812.8572"
           sodipodi:cy="2730"
           sodipodi:rx="115.71429"
           sodipodi:ry="115.71429"
           d="m -3697.1429,2730 a 115.71429,115.71429 0 1 1 -231.4286,0 115.71429,115.71429 0 1 1 231.4286,0 z"
           transform="matrix(0.26122072,0,0,0.26122072,126.74134,-698.44784)" />
      </g>
      <g
         id="g31573"
         transform="translate(-5961.5645,-1243.6487)">
        <path
           transform="matrix(0.22855611,0,0,0.22855611,374.07323,-609.27345)"
           d="m -3697.1429,2730 a 115.71429,115.71429 0 1 1 -231.4286,0 115.71429,115.71429 0 1 1 231.4286,0 z"
           sodipodi:ry="115.71429"
           sodipodi:rx="115.71429"
           sodipodi:cy="2730"
           sodipodi:cx="-3812.8572"
           id="path31575"
           style="opacity:0.24122805;color:#000000;fill:#000000;fill-opacity:1;fill-rule:nonzero;stroke:none;stroke-width:20;marker:none;visibility:visible;display:inline;overflow:visible;enable-background:accumulate"
           sodipodi:type="arc" />
      </g>
      <g
         id="g31577"
         transform="matrix(1,0,0,-1,-1318.3813,-2888.3237)">
        <g
           id="g31579"
           transform="matrix(1.0748991,0,0,1.0748991,-4497.2843,-1709.9488)">
          <path
             transform="matrix(0.22855611,0,0,0.22855611,374.07323,-609.27345)"
             d="m -3697.1429,2730 a 115.71429,115.71429 0 1 1 -231.4286,0 115.71429,115.71429 0 1 1 231.4286,0 z"
             sodipodi:ry="115.71429"
             sodipodi:rx="115.71429"
             sodipodi:cy="2730"
             sodipodi:cx="-3812.8572"
             id="path31581"
             style="opacity:0.24122805;color:#000000;fill:#000000;fill-opacity:1;fill-rule:nonzero;stroke:none;stroke-width:20;marker:none;visibility:visible;display:inline;overflow:visible;enable-background:accumulate"
             sodipodi:type="arc" />
        </g>
        <g
           transform="translate(-4617.5252,-1748.2535)"
           id="g31583">
          <path
             sodipodi:type="arc"
             style="opacity:0.24122805;color:#000000;fill:#000000;fill-opacity:1;fill-rule:nonzero;stroke:none;stroke-width:20;marker:none;visibility:visible;display:inline;overflow:visible;enable-background:accumulate"
             id="path31585"
             sodipodi:cx="-3812.8572"
             sodipodi:cy="2730"
             sodipodi:rx="115.71429"
             sodipodi:ry="115.71429"
             d="m -3697.1429,2730 a 115.71429,115.71429 0 1 1 -231.4286,0 115.71429,115.71429 0 1 1 231.4286,0 z"
             transform="matrix(0.22855611,0,0,0.22855611,374.07323,-609.27345)" />
        </g>
        <g
           id="g31587"
           transform="translate(-3854.2359,-1705.4904)">
          <path
             transform="matrix(0.32001702,0,0,0.32001702,0.21251212,-858.96174)"
             d="m -3697.1429,2730 a 115.71429,115.71429 0 1 1 -231.4286,0 115.71429,115.71429 0 1 1 231.4286,0 z"
             sodipodi:ry="115.71429"
             sodipodi:rx="115.71429"
             sodipodi:cy="2730"
             sodipodi:cx="-3812.8572"
             id="path31589"
             style="opacity:0.24122805;color:#000000;fill:#000000;fill-opacity:1;fill-rule:nonzero;stroke:none;stroke-width:20;marker:none;visibility:visible;display:inline;overflow:visible;enable-background:accumulate"
             sodipodi:type="arc" />
        </g>
        <g
           id="g31591"
           transform="translate(-4312.8541,-1705.4904)">
          <path
             sodipodi:type="arc"
             style="opacity:0.24122805;color:#000000;fill:#000000;fill-opacity:1;fill-rule:nonzero;stroke:none;stroke-width:20;marker:none;visibility:visible;display:inline;overflow:visible;enable-background:accumulate"
             id="path31593"
             sodipodi:cx="-3812.8572"
             sodipodi:cy="2730"
             sodipodi:rx="115.71429"
             sodipodi:ry="115.71429"
             d="m -3697.1429,2730 a 115.71429,115.71429 0 1 1 -231.4286,0 115.71429,115.71429 0 1 1 231.4286,0 z"
             transform="matrix(0.26122072,0,0,0.26122072,126.74134,-698.44784)" />
        </g>
        <g
           transform="matrix(1.4924207,0,0,1.4924207,-4817.2424,-1691.7121)"
           id="g31595">
          <path
             transform="matrix(0.18935858,0,0,0.18935858,588.18053,-502.26419)"
             d="m -3697.1429,2730 a 115.71429,115.71429 0 1 1 -231.4286,0 115.71429,115.71429 0 1 1 231.4286,0 z"
             sodipodi:ry="115.71429"
             sodipodi:rx="115.71429"
             sodipodi:cy="2730"
             sodipodi:cx="-3812.8572"
             id="path31597"
             style="opacity:0.24122805;color:#000000;fill:#000000;fill-opacity:1;fill-rule:nonzero;stroke:none;stroke-width:20;marker:none;visibility:visible;display:inline;overflow:visible;enable-background:accumulate"
             sodipodi:type="arc" />
        </g>
        <g
           id="g31599"
           transform="translate(-4913.6436,-1649.8984)">
          <path
             sodipodi:type="arc"
             style="opacity:0.24122805;color:#000000;fill:#000000;fill-opacity:1;fill-rule:nonzero;stroke:none;stroke-width:20;marker:none;visibility:visible;display:inline;overflow:visible;enable-background:accumulate"
             id="path31601"
             sodipodi:cx="-3812.8572"
             sodipodi:cy="2730"
             sodipodi:rx="115.71429"
             sodipodi:ry="115.71429"
             d="m -3697.1429,2730 a 115.71429,115.71429 0 1 1 -231.4286,0 115.71429,115.71429 0 1 1 231.4286,0 z"
             transform="matrix(0.18935858,0,0,0.18935858,588.18053,-502.26419)" />
        </g>
        <g
           id="g31603"
           transform="translate(-5278.1831,-1735.4246)">
          <path
             transform="matrix(0.12402936,0,0,0.12402936,684.50856,-323.91542)"
             d="m -3697.1429,2730 a 115.71429,115.71429 0 1 1 -231.4286,0 115.71429,115.71429 0 1 1 231.4286,0 z"
             sodipodi:ry="115.71429"
             sodipodi:rx="115.71429"
             sodipodi:cy="2730"
             sodipodi:cx="-3812.8572"
             id="path31605"
             style="opacity:0.14473685;color:#000000;fill:#000000;fill-opacity:1;fill-rule:nonzero;stroke:none;stroke-width:20;marker:none;visibility:visible;display:inline;overflow:visible;enable-background:accumulate"
             sodipodi:type="arc" />
        </g>
      </g>
      <g
         transform="matrix(1,0,0,-1,-2670.0242,-2888.3237)"
         id="g31607">
        <g
           transform="matrix(1.0748991,0,0,1.0748991,-3726.9656,-1709.9488)"
           id="g31609">
          <path
             sodipodi:type="arc"
             style="opacity:0.14473685;color:#000000;fill:#000000;fill-opacity:1;fill-rule:nonzero;stroke:none;stroke-width:20;marker:none;visibility:visible;display:inline;overflow:visible;enable-background:accumulate"
             id="path31611"
             sodipodi:cx="-3812.8572"
             sodipodi:cy="2730"
             sodipodi:rx="115.71429"
             sodipodi:ry="115.71429"
             d="m -3697.1429,2730 a 115.71429,115.71429 0 1 1 -231.4286,0 115.71429,115.71429 0 1 1 231.4286,0 z"
             transform="matrix(0.12402936,0,0,0.12402936,684.50856,-323.91542)" />
        </g>
        <g
           id="g31613"
           transform="translate(-3900.8824,-1748.2535)">
          <path
             transform="matrix(0.12402936,0,0,0.12402936,684.50856,-323.91542)"
             d="m -3697.1429,2730 a 115.71429,115.71429 0 1 1 -231.4286,0 115.71429,115.71429 0 1 1 231.4286,0 z"
             sodipodi:ry="115.71429"
             sodipodi:rx="115.71429"
             sodipodi:cy="2730"
             sodipodi:cx="-3812.8572"
             id="path31615"
             style="opacity:0.14473685;color:#000000;fill:#000000;fill-opacity:1;fill-rule:nonzero;stroke:none;stroke-width:20;marker:none;visibility:visible;display:inline;overflow:visible;enable-background:accumulate"
             sodipodi:type="arc" />
        </g>
        <g
           id="g31617"
           transform="translate(-3137.593,-1705.4904)">
          <path
             transform="matrix(0.22855611,0,0,0.22855611,374.07323,-609.27345)"
             d="m -3697.1429,2730 a 115.71429,115.71429 0 1 1 -231.4286,0 115.71429,115.71429 0 1 1 231.4286,0 z"
             sodipodi:ry="115.71429"
             sodipodi:rx="115.71429"
             sodipodi:cy="2730"
             sodipodi:cx="-3812.8572"
             id="path31619"
             style="opacity:0.24122805;color:#000000;fill:#000000;fill-opacity:1;fill-rule:nonzero;stroke:none;stroke-width:20;marker:none;visibility:visible;display:inline;overflow:visible;enable-background:accumulate"
             sodipodi:type="arc" />
        </g>
        <g
           transform="translate(-3596.2113,-1705.4904)"
           id="g31621">
          <path
             transform="matrix(0.18935858,0,0,0.18935858,588.18053,-502.26419)"
             d="m -3697.1429,2730 a 115.71429,115.71429 0 1 1 -231.4286,0 115.71429,115.71429 0 1 1 231.4286,0 z"
             sodipodi:ry="115.71429"
             sodipodi:rx="115.71429"
             sodipodi:cy="2730"
             sodipodi:cx="-3812.8572"
             id="path31623"
             style="opacity:0.24122805;color:#000000;fill:#000000;fill-opacity:1;fill-rule:nonzero;stroke:none;stroke-width:20;marker:none;visibility:visible;display:inline;overflow:visible;enable-background:accumulate"
             sodipodi:type="arc" />
        </g>
        <g
           id="g31625"
           transform="matrix(1.4924207,0,0,1.4924207,-4413.2868,-1691.7121)">
          <path
             sodipodi:type="arc"
             style="opacity:0.09210528;color:#000000;fill:#000000;fill-opacity:1;fill-rule:nonzero;stroke:none;stroke-width:20;marker:none;visibility:visible;display:inline;overflow:visible;enable-background:accumulate"
             id="path31627"
             sodipodi:cx="-3812.8572"
             sodipodi:cy="2730"
             sodipodi:rx="115.71429"
             sodipodi:ry="115.71429"
             d="m -3697.1429,2730 a 115.71429,115.71429 0 1 1 -231.4286,0 115.71429,115.71429 0 1 1 231.4286,0 z"
             transform="matrix(0.07176598,0,0,0.07176598,838.2143,-181.2364)" />
        </g>
        <g
           transform="translate(-4197.0009,-1649.8984)"
           id="g31629">
          <path
             transform="matrix(0.07176598,0,0,0.07176598,838.2143,-181.2364)"
             d="m -3697.1429,2730 a 115.71429,115.71429 0 1 1 -231.4286,0 115.71429,115.71429 0 1 1 231.4286,0 z"
             sodipodi:ry="115.71429"
             sodipodi:rx="115.71429"
             sodipodi:cy="2730"
             sodipodi:cx="-3812.8572"
             id="path31631"
             style="opacity:0.09210528;color:#000000;fill:#000000;fill-opacity:1;fill-rule:nonzero;stroke:none;stroke-width:20;marker:none;visibility:visible;display:inline;overflow:visible;enable-background:accumulate"
             sodipodi:type="arc" />
        </g>
        <g
           id="g31633"
           transform="translate(-2656.5403,-1735.4246)">
          <path
             transform="matrix(0.32001702,0,0,0.32001702,0.21251212,-858.96174)"
             d="m -3697.1429,2730 a 115.71429,115.71429 0 1 1 -231.4286,0 115.71429,115.71429 0 1 1 231.4286,0 z"
             sodipodi:ry="115.71429"
             sodipodi:rx="115.71429"
             sodipodi:cy="2730"
             sodipodi:cx="-3812.8572"
             id="path31635"
             style="opacity:0.24122805;color:#000000;fill:#000000;fill-opacity:1;fill-rule:nonzero;stroke:none;stroke-width:20;marker:none;visibility:visible;display:inline;overflow:visible;enable-background:accumulate"
             sodipodi:type="arc" />
        </g>
      </g>
    </g>
    <g
       transform="matrix(4.0265346,0,0,4.0265346,1037.368,1230.2986)"
       id="g30725"
       gds_color="fireball">
      <path
         sodipodi:nodetypes="ccccc"
         inkscape:connector-curvature="0"
         id="path30727"
         d="m -384.78921,-525.3363 140.30212,0 0,106.45385 -140.30212,0 z"
         style="opacity:0;color:#000000;fill:#cccccc;fill-opacity:1;fill-rule:nonzero;stroke:none;stroke-width:20;marker:none;visibility:visible;display:inline;overflow:visible;enable-background:accumulate" />
      <g
         id="g30729"
         transform="translate(-5.6696475,-96.005955)">
        <g
           id="g30731">
          <path
             inkscape:connector-curvature="0"
             style="color:#000000;fill:#ff8655;fill-opacity:1;fill-rule:nonzero;stroke:none;stroke-width:20;marker:none;visibility:visible;display:inline;overflow:visible;enable-background:accumulate"
             d="m -1229.0938,1906.9375 c 0,0 1.0078,7.0758 -9.0937,18.1875 -10.1016,11.1118 -41.4406,-2.024 -53.5625,25.25 0,0 -0.098,0.2133 -0.1562,0.5312 l -0.063,0 c -7.4981,0 -14.829,0.7226 -21.9374,2.0626 -5.3955,-9.7065 -41.1614,-18.6449 -44.5313,-18.75 0,-1.2313 -2.0937,0.1562 -2.0937,0.1562 0,0 -0.012,3.6822 -8.625,27.0625 -7.5879,20.595 -22.1396,24.3221 -19.1563,39.5625 -11.8837,16.8951 -19.4549,37.0583 -21.0625,58.875 -11.2915,10.1842 -15.7054,7.1126 -24.7812,-7.4688 -2.355,-3.7827 -3.4107,-6.0589 -3.8438,-7.1562 0.325,1.1541 0.8125,3.5469 0.8125,7.1562 0,9.6364 -2.7596,42.2582 32.0625,48.75 1.459,5.0878 3.2423,10.0331 5.3438,14.8126 0.055,1.0208 0.1063,2.0487 0.1874,3.0624 -19.1844,11.0166 -17.2187,30.9688 -17.2187,30.9688 0,0 6.3112,-2.7978 20.75,-10.3438 -7.5059,22.3228 22.9705,51.3479 24.25,66.0626 1.4285,16.4283 0,19.2812 0,19.2812 0,0 5.0178,10.0221 12.875,-11.4062 1.7332,-4.7272 3.3797,-8.1369 4.8125,-10.875 17.8847,13.8139 39.8455,22.5925 63.7812,24.2187 0.1362,1.1653 0.2013,2.3896 0.1563,3.6875 -0.441,12.7223 4.8332,21.5908 20,32.2812 15.1667,10.6906 32.1095,5.5155 37.4687,-5.75 5.3597,-11.2653 -4.125,-16.4687 -4.125,-16.4687 0,0 0.129,9.8664 -4.625,10.9375 -4.7536,1.0712 -31.0218,-12.4319 -20.4687,-25.8125 0.107,-0.1356 0.2314,-0.2701 0.3437,-0.4063 3.2098,-0.5661 6.3879,-1.2405 9.5,-2.0624 l 1,0 c 28.26,0 54.1793,-9.9604 74.4688,-26.5626 26.9943,7.4484 46.2726,-16.8852 51.6875,-22.9062 2.3027,-2.6481 4.1883,-4.9541 5.7813,-7.0312 16.181,2.0068 28.7812,2 28.7812,2 0,0 -2.2658,-12.9421 -21.5625,-15.9376 -0.1858,-2.21 -2.125,-2.2187 -2.125,-2.2187 0,0 -0.651,0.7189 -1.75,1.7813 -1.4406,-0.1094 -2.9563,-0.1876 -4.5625,-0.1876 -10.2853,0 -18.2094,1.9368 -24.4375,4 7.3256,-15.347 11.4375,-32.5497 11.4375,-50.6874 0,-14.8781 -2.7768,-29.0827 -7.8125,-42.1876 -0.016,-1.4085 -0.06,-2.8224 -0.125,-4.2187 1.9385,-6.3305 4.7143,-13.4902 9.1563,-19.9063 12.8569,-18.5714 27.875,-7.8437 27.875,-7.8437 0,0 -23.5365,-27.9813 -43.5938,-5.9375 -4.0967,-11.5843 -9.9516,-22.3405 -17.25,-31.9375 14.3107,1.3455 26.8415,7.7006 38.8125,0.2187 16.1624,-10.1014 13.125,-23.2187 13.125,-23.2187 0,0 -1.0134,4.043 -12.125,9.0937 -10.0594,4.5725 -32.5384,-18.2038 -62.9375,-9.0624 -11.2111,-8.4236 -23.9705,-14.8996 -37.7812,-18.9063 2.0698,-2.7761 4.398,-6.7256 7.3124,-12.3437 10.4946,-20.2301 -10.375,-32.4063 -10.375,-32.4063 z m 171.5626,48.5313 c -1.1582,0.026 -1.7813,0.094 -1.7813,0.094 -9.0533,4.5935 -14.7421,19.2421 0.5,23.625 15.242,4.383 32.7004,-5.0899 44.1563,-6.2813 11.4556,-1.1912 16.87712,11.3622 20.87495,14.6876 3.99783,3.3253 10.19978,-0.1727 -2.3125,-14.2813 -12.51235,-14.1086 -23.42115,-8.8074 -38.37505,-13.8437 -11.2152,-3.7774 -19.5883,-4.0774 -23.0624,-4 z m -27.8438,102.4062 c -22.1428,0.7143 -28.5758,4.2858 -20.7188,10 7.8572,5.7143 44.2902,11.4331 50.7188,0.7188 6.4286,-10.7144 -30,-10.7188 -30,-10.7188 z m 34.7188,37.4688 c -19.6529,0.2244 -26.0893,7.5536 -15.0626,13.9374 13.5716,7.8574 46.442,7.1517 47.1563,-3.5624 0.7143,-10.7144 -16.4375,-9.2813 -16.4375,-9.2813 -5.8929,-0.8036 -11.1211,-1.1456 -15.6562,-1.0937 z m 103.12495,104.5 c -46.46698,12.1218 -54.52805,20.2203 -42.40625,26.2812 12.12181,6.0609 42.4188,6.0593 50.5,-6.0625 8.0812,-12.1218 -8.09375,-20.2187 -8.09375,-20.2187 z m -436.03125,27.2187 c -0.2399,0.015 -0.4733,0.049 -0.7187,0.094 -7.8572,1.4287 -5.7188,7.8438 -5.7188,7.8438 5,10.7143 19.9956,22.1339 19.2812,13.5625 -0.6919,-8.3036 -5.4065,-21.9528 -12.8437,-21.5 z m 49.9063,8.4063 c -1.1765,-2e-4 -2.2635,0.2989 -3.1563,0.9687 -5.7144,4.2856 0,13.5625 0,13.5625 8.5714,12.1429 24.2947,11.4419 21.4375,2.1562 -2.4107,-7.8348 -11.9298,-16.687 -18.2812,-16.6874 z"
             transform="matrix(0.26458334,0,0,0.26458334,5.6695975,-929.91075)"
             id="path30733" />
        </g>
        <g
           id="g30735" />
      </g>
      <g
         id="g30737"
         transform="translate(-96.761907,-6.8035716)">
        <path
           style="color:#000000;fill:#ffffff;fill-opacity:1;fill-rule:nonzero;stroke:none;stroke-width:20;marker:none;visibility:visible;display:inline;overflow:visible;enable-background:accumulate"
           d="m -246.88155,-501.20014 c -12.84197,0 -23.25026,10.40828 -23.25026,23.25026 0,0.16494 0.005,0.33197 0.008,0.49609 -1.98133,1.89744 -3.21634,4.56414 -3.21634,7.52409 0,2.8742 1.16125,5.48137 3.04271,7.36701 -0.59222,1.89254 -0.90951,3.90668 -0.90951,5.99445 0,11.07067 8.97979,20.05044 20.05046,20.05044 0.10045,0 0.19756,-0.007 0.29766,-0.008 1.89115,1.00304 4.34873,1.61232 7.03626,1.61232 0.76419,0 1.51304,-0.0556 2.23242,-0.14886 2.91233,1.45788 6.19534,2.28203 9.67383,2.28203 11.95632,0 21.64622,-9.68988 21.64622,-21.6462 0,-1.4334 -0.13932,-2.83649 -0.40514,-4.192 2.79946,-1.61655 4.68809,-4.63786 4.68809,-8.10287 0,-3.31374 -1.72526,-6.22606 -4.32429,-7.88789 0.0279,-0.39634 0.0413,-0.79544 0.0413,-1.1989 0,-7.9552 -5.515,-14.61831 -12.93151,-16.37935 0.0675,-0.41143 0.10749,-0.82624 0.10749,-1.25677 0,-4.28067 -3.47494,-7.7556 -7.7556,-7.7556 -2.2274,0 -4.22513,0.94297 -5.63893,2.44739 -3.1282,-1.56604 -6.65677,-2.44739 -10.39317,-2.44739 z"
           id="path30739"
           inkscape:connector-curvature="0" />
        <path
           sodipodi:type="arc"
           style="color:#000000;fill:#ffcc00;fill-opacity:1;fill-rule:nonzero;stroke:none;stroke-width:20;marker:none;visibility:visible;display:inline;overflow:visible;enable-background:accumulate"
           id="path30741"
           sodipodi:cx="-867.72101"
           sodipodi:cy="4435.3247"
           sodipodi:rx="87.88327"
           sodipodi:ry="87.88327"
           d="m -779.83774,4435.3247 a 87.88327,87.88327 0 1 1 -175.76654,0 87.88327,87.88327 0 1 1 175.76654,0 z"
           transform="matrix(0.26458334,0,0,0.26458334,-17.29762,-1651.4597)" />
        <path
           sodipodi:type="arc"
           style="color:#000000;fill:#ffcc00;fill-opacity:1;fill-rule:nonzero;stroke:none;stroke-width:20;marker:none;visibility:visible;display:inline;overflow:visible;enable-background:accumulate"
           id="path30743"
           sodipodi:cx="-811.15247"
           sodipodi:cy="4524.2183"
           sodipodi:rx="81.822357"
           sodipodi:ry="81.822357"
           d="m -729.33011,4524.2183 a 81.822357,81.822357 0 1 1 -163.64471,0 81.822357,81.822357 0 1 1 163.64471,0 z"
           transform="matrix(0.26458334,0,0,0.26458334,-17.29762,-1651.4597)" />
        <path
           sodipodi:type="arc"
           style="color:#000000;fill:#ffcc00;fill-opacity:1;fill-rule:nonzero;stroke:none;stroke-width:20;marker:none;visibility:visible;display:inline;overflow:visible;enable-background:accumulate"
           id="path30745"
           sodipodi:cx="-883.88348"
           sodipodi:cy="4516.1367"
           sodipodi:rx="75.761444"
           sodipodi:ry="75.761444"
           d="m -808.12204,4516.1367 a 75.761444,75.761444 0 1 1 -151.52289,0 75.761444,75.761444 0 1 1 151.52289,0 z"
           transform="matrix(0.26458334,0,0,0.26458334,-17.29762,-1651.4597)" />
        <path
           sodipodi:type="arc"
           style="color:#000000;fill:#ffcc00;fill-opacity:1;fill-rule:nonzero;stroke:none;stroke-width:20;marker:none;visibility:visible;display:inline;overflow:visible;enable-background:accumulate"
           id="path30747"
           sodipodi:cx="-928.3302"
           sodipodi:cy="4465.6294"
           sodipodi:rx="39.39595"
           sodipodi:ry="39.39595"
           d="m -888.93425,4465.6294 a 39.39595,39.39595 0 1 1 -78.7919,0 39.39595,39.39595 0 1 1 78.7919,0 z"
           transform="matrix(0.26458334,0,0,0.26458334,-17.29762,-1651.4597)" />
        <path
           sodipodi:type="arc"
           style="color:#000000;fill:#ffcc00;fill-opacity:1;fill-rule:nonzero;stroke:none;stroke-width:20;marker:none;visibility:visible;display:inline;overflow:visible;enable-background:accumulate"
           id="path30749"
           sodipodi:cx="-807.11188"
           sodipodi:cy="4376.7358"
           sodipodi:rx="29.294424"
           sodipodi:ry="29.294424"
           d="m -777.81745,4376.7358 a 29.294424,29.294424 0 1 1 -58.58885,0 29.294424,29.294424 0 1 1 58.58885,0 z"
           transform="matrix(0.26458334,0,0,0.26458334,-17.29762,-1651.4597)" />
        <path
           sodipodi:type="arc"
           style="color:#000000;fill:#ffcc00;fill-opacity:1;fill-rule:nonzero;stroke:none;stroke-width:20;marker:none;visibility:visible;display:inline;overflow:visible;enable-background:accumulate"
           id="path30751"
           sodipodi:cx="-748.52301"
           sodipodi:cy="4477.751"
           sodipodi:rx="35.355339"
           sodipodi:ry="35.355339"
           d="m -713.16767,4477.751 a 35.355339,35.355339 0 1 1 -70.71068,0 35.355339,35.355339 0 1 1 70.71068,0 z"
           transform="matrix(0.26458334,0,0,0.26458334,-17.29762,-1651.4597)" />
        <path
           sodipodi:type="arc"
           style="opacity:0.42307691;color:#000000;fill:#ffcc00;fill-opacity:1;fill-rule:nonzero;stroke:none;stroke-width:20;marker:none;visibility:visible;display:inline;overflow:visible;enable-background:accumulate"
           id="path30753"
           sodipodi:cx="-856.15393"
           sodipodi:cy="4572.7056"
           sodipodi:rx="40.86153"
           sodipodi:ry="25.253813"
           d="m -815.2924,4572.7056 a 40.86153,25.253813 0 1 1 -81.72306,0 40.86153,25.253813 0 1 1 81.72306,0 z"
           transform="matrix(0.26458334,0,0,0.26458334,-17.29762,-1651.4597)" />
        <g
           id="g30755"
           transform="matrix(-0.98182419,-0.18979268,0.18979268,-0.98182419,-461.51592,-368.61541)">
          <path
             transform="matrix(0.26458334,0,0,0.26458334,-5e-5,-1025.9167)"
             d="m -729.33012,4443.4058 a 63.63961,63.63961 0 1 1 -127.27922,0 63.63961,63.63961 0 1 1 127.27922,0 z"
             sodipodi:ry="63.63961"
             sodipodi:rx="63.63961"
             sodipodi:cy="4443.4058"
             sodipodi:cx="-792.96973"
             id="path30757"
             style="color:#000000;fill:#ffcc00;fill-opacity:1;fill-rule:nonzero;stroke:none;stroke-width:20;marker:none;visibility:visible;display:inline;overflow:visible;enable-background:accumulate"
             sodipodi:type="arc" />
          <path
             inkscape:connector-curvature="0"
             style="color:#000000;fill:#ffff00;fill-opacity:1;fill-rule:nonzero;stroke:none;stroke-width:20;marker:none;visibility:visible;display:inline;overflow:visible;enable-background:accumulate"
             d="m -1298.8125,1957.4688 c -48.5366,-2e-4 -87.875,39.3382 -87.875,87.875 0,0.6054 0.042,1.2076 0.062,1.8124 -4.8027,4.5863 -8.4632,10.3696 -10.4688,16.875 6.9689,-11.0963 19.3048,-18.4687 33.375,-18.4687 21.7578,0 39.4063,17.6173 39.4063,39.375 0,4.0796 -0.6302,8.018 -1.7813,11.7187 3.8385,-6.0794 6.0626,-13.2785 6.0626,-21 0,-21.7577 -17.6485,-39.4062 -39.4063,-39.4062 -5.5249,0 -10.7899,1.1333 -15.5625,3.1875 22.2047,-60.9772 93.0655,-84.9608 133.4375,-47.1875 -16.1173,4.6218 -29.9666,15.5231 -38.1875,30.4062 14.3847,-16.9982 37.2684,-25.9645 60.6875,-21.4374 34.5084,6.6704 57.0457,40.0544 50.375,74.5624 -1.3053,6.7527 -3.5907,13.0417 -6.75,18.75 6.8205,-8.0526 11.6985,-17.9325 13.8437,-29.0312 6.6707,-34.5084 -15.8978,-67.8608 -50.4062,-74.5312 -6.2493,-1.2081 -12.4467,-1.4498 -18.4688,-0.8438 -5.6812,-7.0217 -12.4078,-13.1639 -19.9687,-18.1562 2.9804,-2.5983 6.121,-6.6252 9.375,-6.625 14.7181,0 27.2599,8.5842 32.125,20.6562 -0.4092,-15.8222 -13.3603,-28.5312 -29.2813,-28.5312 -8.4147,-2e-4 -15.9731,3.5661 -21.3124,9.25 -11.8222,-5.916 -25.1607,-9.25 -39.2813,-9.25 z m -40.3125,96.875 c -29.9986,10.0834 -51.625,38.416 -51.625,71.8124 0,41.842 33.9394,75.7813 75.7812,75.7813 0.3972,0 0.7921,-0.024 1.1876,-0.031 7.139,3.7794 16.3898,6.0938 26.5312,6.0938 2.8881,0 5.7183,-0.1792 8.4375,-0.5312 11.001,5.5102 23.416,8.5937 36.5625,8.5937 45.1892,0 81.8125,-36.6233 81.8125,-81.8125 0,-5.4252 -0.5265,-10.7157 -1.5313,-15.8438 10.5846,-6.1067 17.7188,-17.5302 17.7188,-30.625 0,-11.9677 -5.9629,-22.5408 -15.0625,-28.9374 5.7948,6.2967 9.3439,14.7055 9.3437,23.9374 0,19.5263 -15.8487,35.3438 -35.375,35.3438 -7.5545,0 -14.536,-2.3701 -20.2812,-6.4062 6.4613,7.0197 15.7069,11.4062 26,11.4062 6.1019,0 11.8315,-1.5302 16.8438,-4.25 -3.1164,47.0996 -42.2994,84.3438 -90.1876,84.3438 -3.1434,-10e-5 -6.2537,-0.1836 -9.3124,-0.5 9.6756,-4.6174 15.9062,-11.8305 15.9062,-19.9688 0,-1.2196 -0.1358,-2.4203 -0.4062,-3.5938 -2.8007,12.2606 -19.8579,21.6876 -40.4688,21.6876 -20.6101,-10e-5 -37.6359,-9.4276 -40.4375,-21.6876 -0.2706,1.1738 -0.4062,2.3738 -0.4063,3.5938 0,3.5712 1.2134,6.9522 3.375,10.0312 -30.801,-9.6113 -53.1562,-38.3412 -53.1562,-72.3124 0,-28.3972 15.6297,-53.1529 38.75,-66.125 z"
             transform="matrix(-0.25977432,0.05021598,-0.05021598,-0.25977432,-424.67092,744.63143)"
             id="path30759" />
        </g>
        <path
           sodipodi:type="arc"
           style="color:#000000;fill:#ffcc00;fill-opacity:1;fill-rule:nonzero;stroke:none;stroke-width:20;marker:none;visibility:visible;display:inline;overflow:visible;enable-background:accumulate"
           id="path30761"
           sodipodi:cx="-835.35712"
           sodipodi:cy="4468.2144"
           sodipodi:rx="53.214287"
           sodipodi:ry="53.214287"
           d="m -782.14283,4468.2144 a 53.214287,53.214287 0 1 1 -106.42857,0 53.214287,53.214287 0 1 1 106.42857,0 z"
           transform="matrix(0.26458334,0,0,0.26458334,-17.29762,-1651.4597)" />
        <path
           sodipodi:type="arc"
           style="color:#000000;fill:url(#radialGradient32269);fill-opacity:1;fill-rule:nonzero;stroke:none;stroke-width:20;marker:none;visibility:visible;display:inline;overflow:visible;enable-background:accumulate"
           id="path30763"
           sodipodi:cx="-808.21429"
           sodipodi:cy="4495.3569"
           sodipodi:rx="100.35714"
           sodipodi:ry="100.35714"
           d="m -707.85715,4495.3569 a 100.35714,100.35714 0 1 1 -200.71428,0 100.35714,100.35714 0 1 1 200.71428,0 z"
           transform="matrix(0.26458334,0,0,0.26458334,-25.80209,-1655.4285)" />
        <path
           sodipodi:type="arc"
           style="opacity:0.38938054;color:#000000;fill:#ffffff;fill-opacity:1;fill-rule:nonzero;stroke:none;stroke-width:20;marker:none;visibility:visible;display:inline;overflow:visible;enable-background:accumulate"
           id="path30765"
           sodipodi:cx="-812.66772"
           sodipodi:cy="4514.6216"
           sodipodi:rx="41.921329"
           sodipodi:ry="41.921329"
           d="m -770.7464,4514.6216 a 41.921329,41.921329 0 1 1 -83.84265,0 41.921329,41.921329 0 1 1 83.84265,0 z"
           transform="matrix(0.26458334,0,0,0.26458334,-17.29762,-1651.4597)" />
        <path
           sodipodi:type="arc"
           style="opacity:0.38938054;color:#000000;fill:#ffffff;fill-opacity:1;fill-rule:nonzero;stroke:none;stroke-width:20;marker:none;visibility:visible;display:inline;overflow:visible;enable-background:accumulate"
           id="path30767"
           sodipodi:cx="-801.05096"
           sodipodi:cy="4463.6089"
           sodipodi:rx="45.456863"
           sodipodi:ry="45.456863"
           d="m -755.5941,4463.6089 a 45.456863,45.456863 0 1 1 -90.91373,0 45.456863,45.456863 0 1 1 90.91373,0 z"
           transform="matrix(0.26458334,0,0,0.26458334,-15.15946,-1653.3306)" />
        <path
           sodipodi:type="arc"
           style="opacity:0.38938054;color:#000000;fill:#ffffff;fill-opacity:1;fill-rule:nonzero;stroke:none;stroke-width:20;marker:none;visibility:visible;display:inline;overflow:visible;enable-background:accumulate"
           id="path30769"
           sodipodi:cx="-851.55859"
           sodipodi:cy="4500.9849"
           sodipodi:rx="59.598999"
           sodipodi:ry="59.598999"
           d="m -791.95959,4500.9849 a 59.598999,59.598999 0 1 1 -119.198,0 59.598999,59.598999 0 1 1 119.198,0 z"
           transform="matrix(0.26458334,0,0,0.26458334,-22.10847,-1651.727)" />
        <path
           sodipodi:type="arc"
           style="opacity:0.38938054;color:#000000;fill:#ffffff;fill-opacity:1;fill-rule:nonzero;stroke:none;stroke-width:20;marker:none;visibility:visible;display:inline;overflow:visible;enable-background:accumulate"
           id="path30771"
           sodipodi:cx="-841.45709"
           sodipodi:cy="4451.4873"
           sodipodi:rx="35.355339"
           sodipodi:ry="35.355339"
           d="m -806.10175,4451.4873 a 35.355339,35.355339 0 1 1 -70.71068,0 35.355339,35.355339 0 1 1 70.71068,0 z"
           transform="matrix(0.26458334,0,0,0.26458334,-17.03035,-1651.9942)" />
        <path
           sodipodi:type="arc"
           style="opacity:0.38938054;color:#000000;fill:#ffffff;fill-opacity:1;fill-rule:nonzero;stroke:none;stroke-width:20;marker:none;visibility:visible;display:inline;overflow:visible;enable-background:accumulate"
           id="path30773"
           sodipodi:cx="-879.8429"
           sodipodi:cy="4430.2739"
           sodipodi:rx="30.304577"
           sodipodi:ry="30.304577"
           d="m -849.53832,4430.2739 a 30.304577,30.304577 0 1 1 -60.60915,0 30.304577,30.304577 0 1 1 60.60915,0 z"
           transform="matrix(0.26458334,0,0,0.26458334,-17.29762,-1651.4597)" />
        <path
           style="color:#000000;fill:#ffffff;fill-opacity:1;fill-rule:nonzero;stroke:none;stroke-width:20;marker:none;visibility:visible;display:inline;overflow:visible;enable-background:accumulate"
           d="m -216.42966,-477.8672 c 0.1833,0.83466 0.28112,1.70651 0.28112,2.59623 0,5.65218 -3.89896,10.38778 -9.15293,11.67474 1.01847,1.12638 1.60922,1.99397 1.94304,2.69544 4.80954,-1.57499 8.28476,-6.10008 8.28476,-11.43498 0,-1.99691 -0.49478,-3.87397 -1.35599,-5.53143 z"
           id="path30775"
           inkscape:connector-curvature="0" />
        <path
           style="color:#000000;fill:#ffffff;fill-opacity:1;fill-rule:nonzero;stroke:none;stroke-width:20;marker:none;visibility:visible;display:inline;overflow:visible;enable-background:accumulate"
           d="m -262.38448,-465.81212 c -0.51846,1.56247 -0.80201,3.23273 -0.80201,4.96922 0,8.70892 7.05859,15.7675 15.76751,15.7675 8.01443,0 14.63069,-5.97625 15.63522,-13.71698 -2.08781,6.26322 -8.00057,10.78177 -14.96549,10.78177 -8.70893,0 -15.76752,-7.05861 -15.76752,-15.76753 0,-0.68876 0.0466,-1.36853 0.13229,-2.03398 z"
           id="path30777"
           inkscape:connector-curvature="0" />
        <path
           style="color:#000000;fill:#ffffff;fill-opacity:1;fill-rule:nonzero;stroke:none;stroke-width:20;marker:none;visibility:visible;display:inline;overflow:visible;enable-background:accumulate"
           d="m -232.31292,-468.06108 c -0.47418,0 -0.94709,0.0332 -1.4056,0.0909 5.46285,0.69011 9.69036,5.35487 9.69036,11.00503 0,5.64996 -4.22775,10.30642 -9.69036,10.99674 0.45867,0.0578 0.93124,0.0909 1.4056,0.0909 6.12576,0 11.08769,-4.96192 11.08769,-11.08768 0,-6.12577 -4.96193,-11.09597 -11.08769,-11.09597 z"
           id="path30779"
           inkscape:connector-curvature="0" />
        <path
           style="color:#000000;fill:#ffffff;fill-opacity:1;fill-rule:nonzero;stroke:none;stroke-width:20;marker:none;visibility:visible;display:inline;overflow:visible;enable-background:accumulate"
           d="m -239.66338,-483.55574 c -5.16631,0 -9.35964,4.18505 -9.35964,9.35138 0,0.95377 0.14813,1.86986 0.41342,2.73677 -0.004,-0.11104 -0.008,-0.21878 -0.008,-0.33073 0,-5.46153 4.42727,-9.8888 9.8888,-9.8888 3.01111,0 5.70204,1.34974 7.51582,3.47266 -1.50134,-3.16037 -4.71853,-5.34128 -8.45013,-5.34128 z"
           id="path30781"
           inkscape:connector-curvature="0" />
      </g>
    </g>
  </g>
</svg>
