<?xml version="1.0" encoding="UTF-8" standalone="no"?>
<!DOCTYPE svg PUBLIC "-//W3C//DTD SVG 1.1//EN" "http://www.w3.org/Graphics/SVG/1.1/DTD/svg11.dtd">
<svg xmlns="http://www.w3.org/2000/svg" version="1.1" viewBox="0.00 0.00 178.00 174.00">
<g stroke-width="2.00" fill="none" stroke-linecap="butt">
<path stroke="#eef7fd" vector-effect="non-scaling-stroke" d="
  M 101.06 1.85
  Q 104.56 6.16 107.82 10.19
  Q 110.02 12.92 110.58 15.12
  Q 111.45 18.47 112.11 20.44
  Q 112.26 20.87 111.95 21.21
  L 108.63 24.86
  A 1.75 1.74 -43.8 0 0 108.58 27.14
  L 111.39 30.56
  Q 111.81 31.07 111.25 31.44
  L 104.39 35.95
  Q 103.96 36.23 103.89 36.74
  C 103.37 40.36 103.69 45.74 99.89 48.60
  C 97.48 50.41 93.60 50.36 91.37 51.66
  Q 88.13 53.53 87.12 56.37
  Q 86.15 59.09 85.33 56.36
  Q 85.04 55.41 84.24 54.32
  A 0.91 0.91 0.0 0 0 82.71 54.40
  L 80.79 57.79"
/>
<path stroke="#adafb2" vector-effect="non-scaling-stroke" d="
  M 80.79 57.79
  C 78.03 53.80 72.73 54.19 70.74 58.66"
/>
<path stroke="#eef7fd" vector-effect="non-scaling-stroke" d="
  M 70.74 58.66
  C 58.28 57.02 51.51 43.21 51.65 31.90"
/>
<path stroke="#eef7fd" vector-effect="non-scaling-stroke" d="
  M 100.2260 44.8596
  A 1.44 1.24 -8.0 0 0 98.6274 43.8321
  A 1.44 1.24 -8.0 0 0 97.3740 45.2604
  A 1.44 1.24 -8.0 0 0 98.9726 46.2879
  A 1.44 1.24 -8.0 0 0 100.2260 44.8596"
/>
<path stroke="#d9ecf5" vector-effect="non-scaling-stroke" d="
  M 131.06 32.05
  L 126.59 36.48
  Q 126.16 36.91 126.63 37.30
  Q 127.04 37.65 127.81 37.92
  Q 128.29 38.10 128.39 38.60
  C 129.10 42.36 122.30 40.51 124.62 46.82
  Q 124.79 47.29 124.65 47.76
  Q 122.83 54.08 118.50 58.46
  Q 118.16 58.81 117.66 58.84
  L 111.52 59.20"
/>
<path stroke="#a5acaf" vector-effect="non-scaling-stroke" d="
  M 111.52 59.20
  C 109.54 53.75 101.77 54.34 100.77 59.51
  Q 99.66 65.24 105.35 66.59"
/>
<path stroke="#d9ecf5" vector-effect="non-scaling-stroke" d="
  M 105.35 66.59
  Q 105.96 66.87 105.76 67.43
  A 0.62 0.59 86.6 0 1 105.47 67.77
  Q 102.03 69.56 98.08 70.17
  Q 97.61 70.24 97.33 69.86
  Q 94.96 66.78 95.05 64.42
  Q 95.08 63.81 94.48 63.72
  Q 93.79 63.61 93.35 64.50
  Q 93.13 64.93 92.65 64.88
  Q 90.45 64.67 88.36 65.30"
/>
<path stroke="#f2d097" vector-effect="non-scaling-stroke" d="
  M 88.36 65.30
  L 85.48 66.69"
/>
<path stroke="#d9ecf5" vector-effect="non-scaling-stroke" d="
  M 85.48 66.69
  L 80.42 70.06
  Q 80.01 70.33 79.53 70.26
  C 75.80 69.68 70.46 67.85 68.62 64.47
  Q 68.10 63.51 67.40 62.38
  Q 67.13 61.94 66.64 61.81
  Q 62.33 60.61 59.01 57.95
  C 56.32 55.79 54.00 51.86 51.18 48.97"
/>
<path stroke="#a5acaf" vector-effect="non-scaling-stroke" d="
  M 70.74 58.66
  C 69.53 62.50 71.51 65.68 75.36 66.35
  Q 78.14 66.83 80.13 64.88
  Q 83.00 62.07 80.79 57.79"
/>
<path stroke="#afcadd" stroke-opacity="0.600" vector-effect="non-scaling-stroke" d="
  M 132.09 37.25
  Q 133.06 53.00 124.87 64.71"
/>
<path stroke="#e1eff8" vector-effect="non-scaling-stroke" d="
  M 124.87 64.71
  L 121.11 69.33"
/>
<path stroke="#d9ecf5" vector-effect="non-scaling-stroke" d="
  M 121.11 69.33
  Q 108.97 81.92 92.30 81.89"
/>
<path stroke="#e4ab8f" vector-effect="non-scaling-stroke" d="
  M 92.30 81.89
  Q 93.85 76.58 95.28 72.31
  Q 95.96 70.28 95.59 69.11
  Q 95.04 67.37 93.17 66.54"
/>
<path stroke="#e5c892" vector-effect="non-scaling-stroke" d="
  M 93.17 66.54
  Q 91.78 64.96 88.36 65.30"
/>
<path stroke="#98a4aa" vector-effect="non-scaling-stroke" d="
  M 105.35 66.59
  Q 113.03 65.79 111.52 59.20"
/>
<path stroke="#c4d7e5" stroke-opacity="0.600" vector-effect="non-scaling-stroke" d="
  M 138.02 75.98
  L 135.69 73.80"
/>
<path stroke="#d1dce9" stroke-opacity="0.600" vector-effect="non-scaling-stroke" d="
  M 135.69 73.80
  Q 131.15 68.70 124.87 64.71"
/>
<path stroke="#e5c892" vector-effect="non-scaling-stroke" d="
  M 85.48 66.69
  L 84.87 68.28"
/>
<path stroke="#e4ab8f" vector-effect="non-scaling-stroke" d="
  M 84.87 68.28
  Q 83.88 70.02 84.32 71.14
  Q 86.44 76.44 88.53 82.05"
/>
<path stroke="#d9ecf5" vector-effect="non-scaling-stroke" d="
  M 88.53 82.05
  C 77.79 81.44 69.39 76.91 61.73 69.75"
/>
<path stroke="#e1eff8" vector-effect="non-scaling-stroke" d="
  M 61.73 69.75
  L 58.97 66.48"
/>
<path stroke="#c9b09b" vector-effect="non-scaling-stroke" d="
  M 143.55 83.92
  L 137.51 87.59
  Q 135.21 88.99 134.25 86.47
  L 133.98 85.77
  Q 133.07 83.40 135.36 82.29
  L 140.70 79.69"
/>
<path stroke="#d1b39d" vector-effect="non-scaling-stroke" d="
  M 44.20 81.82
  Q 48.63 82.64 47.93 85.97
  Q 47.38 88.60 44.73 87.72
  Q 43.04 87.16 41.26 86.74"
/>
<path stroke="#eef7fd" vector-effect="non-scaling-stroke" d="
  M 135.69 73.80
  Q 131.84 80.97 131.13 86.95
  C 130.89 88.97 131.79 92.23 131.16 94.63
  Q 130.05 98.85 126.18 104.42
  Q 125.90 104.82 125.42 104.73
  C 118.06 103.22 117.37 108.54 114.26 113.20
  Q 113.98 113.63 113.97 114.14
  Q 113.96 117.74 110.78 120.08
  C 105.48 123.97 101.36 126.70 94.18 124.86"
/>
<path stroke="#adafb2" vector-effect="non-scaling-stroke" d="
  M 94.18 124.86
  C 96.26 116.69 83.34 116.58 85.35 124.74"
/>
<path stroke="#eef7fd" vector-effect="non-scaling-stroke" d="
  M 85.35 124.74
  Q 83.30 128.52 82.84 132.61
  A 0.59 0.59 0.0 0 1 82.19 133.13
  Q 77.17 132.62 72.24 133.55
  C 65.62 134.81 60.11 134.14 54.09 132.24
  A 0.96 0.95 -81.3 0 1 53.43 131.33
  L 53.43 126.43
  Q 53.43 125.87 52.97 125.55
  Q 50.38 123.76 48.48 123.76
  A 1.21 1.21 0.0 0 0 47.59 124.15
  L 44.99 127.01
  A 1.35 1.35 0.0 0 1 43.37 127.30
  L 40.03 125.55"
/>
<path stroke="#e1eff8" vector-effect="non-scaling-stroke" d="
  M 40.03 125.55
  L 36.74 120.08
  A 0.89 0.88 72.7 0 0 35.91 119.64
  L 34.64 119.73"
/>
<path stroke="#eef7fd" vector-effect="non-scaling-stroke" d="
  M 61.73 69.75
  C 59.13 78.84 68.62 83.90 76.09 86.15
  C 88.90 90.00 107.19 89.47 117.68 80.43
  Q 122.33 76.43 121.11 69.33"
/>
<path stroke="#adafb2" vector-effect="non-scaling-stroke" d="
  M 95.96 102.02
  A 4.58 4.58 0.0 0 0 91.38 97.44
  A 4.58 4.58 0.0 0 0 86.80 102.02
  A 4.58 4.58 0.0 0 0 91.38 106.60
  A 4.58 4.58 0.0 0 0 95.96 102.02"
/>
<path stroke="#eef7fd" vector-effect="non-scaling-stroke" d="
  M 120.1431 98.9679
  A 1.35 1.24 16.7 0 0 119.2063 97.3923
  A 1.35 1.24 16.7 0 0 117.5569 98.1921
  A 1.35 1.24 16.7 0 0 118.4937 99.7677
  A 1.35 1.24 16.7 0 0 120.1431 98.9679"
/>
<path stroke="#fd8f30" vector-effect="non-scaling-stroke" d="
  M 93.17 66.54
  L 90.48 81.70
  Q 90.31 82.68 90.07 81.72
  L 86.73 68.28
  Q 86.64 67.90 86.81 67.56
  L 86.94 67.29
  Q 87.35 66.48 86.53 66.87
  Q 85.63 67.30 84.87 68.28"
/>
<path stroke="#f1b394" vector-effect="non-scaling-stroke" d="
  M 92.30 81.89
  L 90.92 85.85
  A 0.49 0.49 0.0 0 1 90.00 85.86
  L 88.53 82.05"
/>
<path stroke="#c4d7e5" stroke-opacity="0.600" vector-effect="non-scaling-stroke" d="
  M 149.84 97.26
  L 151.62 107.69"
/>
<path stroke="#d9ecf5" vector-effect="non-scaling-stroke" d="
  M 151.62 107.69
  Q 149.75 112.01 149.72 113.55
  Q 149.60 121.02 145.11 126.91
  A 0.39 0.39 0.0 0 1 144.44 126.83
  L 143.52 124.73
  A 2.12 2.08 -40.6 0 0 139.83 124.48
  Q 139.49 124.98 139.14 126.23
  Q 137.70 131.27 137.52 131.95
  A 1.05 1.05 0.0 0 1 136.21 132.68
  Q 133.41 131.88 131.48 130.45
  Q 129.89 129.28 130.99 130.92
  Q 133.07 134.05 136.58 135.08
  A 1.28 1.28 0.0 0 0 138.19 134.14
  L 139.99 126.44
  Q 140.95 122.38 142.55 126.22
  Q 142.93 127.14 144.93 130.05
  Q 145.28 130.56 144.95 131.07
  L 139.53 139.42
  A 1.94 1.93 19.8 0 1 137.70 140.28
  C 135.38 140.03 133.81 141.79 131.71 142.34
  C 128.67 143.13 127.49 145.86 128.89 148.68
  A 0.63 0.63 0.0 0 1 128.65 149.51
  L 123.50 152.48
  Q 122.99 152.77 122.62 152.33
  Q 121.06 150.50 119.03 151.86
  Q 118.52 152.21 118.52 152.82
  L 118.52 154.07
  Q 118.52 154.66 117.97 154.86
  Q 108.34 158.42 97.92 158.88
  Q 97.52 158.90 97.38 158.52
  L 96.53 156.32
  A 2.46 2.46 0.0 0 0 93.35 154.90
  L 88.54 156.74
  A 0.46 0.41 3.4 0 0 88.35 156.89
  L 87.53 158.00
  Q 87.23 158.42 86.72 158.36
  Q 76.48 157.32 67.10 153.21
  A 1.27 1.26 -78.3 0 1 66.34 152.05
  L 66.34 149.63
  Q 66.34 149.11 65.94 148.78
  Q 64.76 147.79 62.95 147.24
  Q 62.49 147.10 62.50 146.61
  Q 62.62 138.57 55.45 138.66
  Q 50.19 138.72 47.68 138.50
  Q 47.14 138.46 46.78 138.04
  Q 42.10 132.52 40.03 125.55"
/>
<path stroke="#a5acaf" vector-effect="non-scaling-stroke" d="
  M 85.35 124.74
  C 87.14 128.65 92.58 129.15 94.18 124.86"
/>
<path stroke="#a5acaf" vector-effect="non-scaling-stroke" d="
  M 97.01 144.21
  A 4.58 4.58 0.0 0 0 92.43 139.63
  A 4.58 4.58 0.0 0 0 87.85 144.21
  A 4.58 4.58 0.0 0 0 92.43 148.79
  A 4.58 4.58 0.0 0 0 97.01 144.21"
/>
<path stroke="#d9ecf5" vector-effect="non-scaling-stroke" d="
  M 113.92 151.63
  L 112.06 151.34
  A 0.44 0.44 0.0 0 0 111.56 151.71
  L 111.52 151.96
  A 1.89 1.28 -81.2 0 0 112.49 154.02
  L 112.69 154.05
  A 1.89 1.28 -81.2 0 0 114.25 152.38
  L 114.28 152.13
  A 0.44 0.44 0.0 0 0 113.92 151.63"
/>
<path stroke="#afcadd" stroke-opacity="0.600" vector-effect="non-scaling-stroke" d="
  M 39.85 139.03
  C 42.19 144.07 45.19 149.71 50.02 152.77
  C 66.63 163.29 87.42 165.85 106.74 163.22
  C 117.38 161.78 128.53 158.39 137.07 152.20
  Q 140.02 150.07 142.10 146.95
  Q 153.82 129.41 151.62 107.69"
/>
</g>
<path fill="#f5faff" d="
  M 101.06 1.85
  Q 104.56 6.16 107.82 10.19
  Q 110.02 12.92 110.58 15.12
  Q 111.45 18.47 112.11 20.44
  Q 112.26 20.87 111.95 21.21
  L 108.63 24.86
  A 1.75 1.74 -43.8 0 0 108.58 27.14
  L 111.39 30.56
  Q 111.81 31.07 111.25 31.44
  L 104.39 35.95
  Q 103.96 36.23 103.89 36.74
  C 103.37 40.36 103.69 45.74 99.89 48.60
  C 97.48 50.41 93.60 50.36 91.37 51.66
  Q 88.13 53.53 87.12 56.37
  Q 86.15 59.09 85.33 56.36
  Q 85.04 55.41 84.24 54.32
  A 0.91 0.91 0.0 0 0 82.71 54.40
  L 80.79 57.79
  C 78.03 53.80 72.73 54.19 70.74 58.66
  C 58.28 57.02 51.51 43.21 51.65 31.90
  Q 56.08 14.47 71.96 5.76
  Q 81.69 0.42 91.50 0.36
  Q 95.48 0.33 101.06 1.85
  Z
  M 100.2260 44.8596
  A 1.44 1.24 -8.0 0 0 98.6274 43.8321
  A 1.44 1.24 -8.0 0 0 97.3740 45.2604
  A 1.44 1.24 -8.0 0 0 98.9726 46.2879
  A 1.44 1.24 -8.0 0 0 100.2260 44.8596
  Z"
/>
<path fill="#e6f3fa" d="
  M 131.06 32.05
  L 126.59 36.48
  Q 126.16 36.91 126.63 37.30
  Q 127.04 37.65 127.81 37.92
  Q 128.29 38.10 128.39 38.60
  C 129.10 42.36 122.30 40.51 124.62 46.82
  Q 124.79 47.29 124.65 47.76
  Q 122.83 54.08 118.50 58.46
  Q 118.16 58.81 117.66 58.84
  L 111.52 59.20
  C 109.54 53.75 101.77 54.34 100.77 59.51
  Q 99.66 65.24 105.35 66.59
  Q 105.96 66.87 105.76 67.43
  A 0.62 0.59 86.6 0 1 105.47 67.77
  Q 102.03 69.56 98.08 70.17
  Q 97.61 70.24 97.33 69.86
  Q 94.96 66.78 95.05 64.42
  Q 95.08 63.81 94.48 63.72
  Q 93.79 63.61 93.35 64.50
  Q 93.13 64.93 92.65 64.88
  Q 90.45 64.67 88.36 65.30
  L 85.48 66.69
  L 80.42 70.06
  Q 80.01 70.33 79.53 70.26
  C 75.80 69.68 70.46 67.85 68.62 64.47
  Q 68.10 63.51 67.40 62.38
  Q 67.13 61.94 66.64 61.81
  Q 62.33 60.61 59.01 57.95
  C 56.32 55.79 54.00 51.86 51.18 48.97
  Q 49.64 40.56 51.65 31.90
  C 51.51 43.21 58.28 57.02 70.74 58.66
  C 69.53 62.50 71.51 65.68 75.36 66.35
  Q 78.14 66.83 80.13 64.88
  Q 83.00 62.07 80.79 57.79
  L 82.71 54.40
  A 0.91 0.91 0.0 0 1 84.24 54.32
  Q 85.04 55.41 85.33 56.36
  Q 86.15 59.09 87.12 56.37
  Q 88.13 53.53 91.37 51.66
  C 93.60 50.36 97.48 50.41 99.89 48.60
  C 103.69 45.74 103.37 40.36 103.89 36.74
  Q 103.96 36.23 104.39 35.95
  L 111.25 31.44
  Q 111.81 31.07 111.39 30.56
  L 108.58 27.14
  A 1.75 1.74 -43.8 0 1 108.63 24.86
  L 111.95 21.21
  Q 112.26 20.87 112.11 20.44
  Q 111.45 18.47 110.58 15.12
  Q 110.02 12.92 107.82 10.19
  Q 104.56 6.16 101.06 1.85
  C 115.81 5.87 127.62 16.98 131.06 32.05
  Z"
/>
<path fill="#cce4f0" d="
  M 131.06 32.05
  L 132.09 37.25
  Q 133.06 53.00 124.87 64.71
  L 121.11 69.33
  Q 108.97 81.92 92.30 81.89
  Q 93.85 76.58 95.28 72.31
  Q 95.96 70.28 95.59 69.11
  Q 95.04 67.37 93.17 66.54
  Q 91.78 64.96 88.36 65.30
  Q 90.45 64.67 92.65 64.88
  Q 93.13 64.93 93.35 64.50
  Q 93.79 63.61 94.48 63.72
  Q 95.08 63.81 95.05 64.42
  Q 94.96 66.78 97.33 69.86
  Q 97.61 70.24 98.08 70.17
  Q 102.03 69.56 105.47 67.77
  A 0.62 0.59 86.6 0 0 105.76 67.43
  Q 105.96 66.87 105.35 66.59
  Q 113.03 65.79 111.52 59.20
  L 117.66 58.84
  Q 118.16 58.81 118.50 58.46
  Q 122.83 54.08 124.65 47.76
  Q 124.79 47.29 124.62 46.82
  C 122.30 40.51 129.10 42.36 128.39 38.60
  Q 128.29 38.10 127.81 37.92
  Q 127.04 37.65 126.63 37.30
  Q 126.16 36.91 126.59 36.48
  L 131.06 32.05
  Z"
/>
<path fill="#1c487b" fill-opacity="0.200" d="
  M 138.02 75.98
  L 135.69 73.80
  Q 131.15 68.70 124.87 64.71
  Q 133.06 53.00 132.09 37.25
  Q 151.11 54.08 138.02 75.98
  Z"
/>
<ellipse fill="#e6f3fa" cx="0.00" cy="0.00" transform="translate(98.80,45.06) rotate(-8.0)" rx="1.44" ry="1.24"/>
<path fill="#cce4f0" d="
  M 85.48 66.69
  L 84.87 68.28
  Q 83.88 70.02 84.32 71.14
  Q 86.44 76.44 88.53 82.05
  C 77.79 81.44 69.39 76.91 61.73 69.75
  L 58.97 66.48
  Q 52.98 58.64 51.18 48.97
  C 54.00 51.86 56.32 55.79 59.01 57.95
  Q 62.33 60.61 66.64 61.81
  Q 67.13 61.94 67.40 62.38
  Q 68.10 63.51 68.62 64.47
  C 70.46 67.85 75.80 69.68 79.53 70.26
  Q 80.01 70.33 80.42 70.06
  L 85.48 66.69
  Z"
/>
<path fill="#ac6c3b" fill-opacity="0.996" d="
  M 178.00 63.95
  L 178.00 66.57
  Q 169.99 68.29 161.36 67.94
  A 2.14 2.12 -71.3 0 0 159.52 68.86
  Q 157.29 72.13 155.03 75.61
  Q 153.90 77.36 151.44 78.86
  Q 147.26 81.40 143.55 83.92
  L 137.51 87.59
  Q 135.21 88.99 134.25 86.47
  L 133.98 85.77
  Q 133.07 83.40 135.36 82.29
  L 140.70 79.69
  Q 144.90 77.89 149.09 75.71
  Q 150.97 74.74 152.15 72.94
  Q 153.88 70.30 156.82 65.67
  Q 157.10 65.22 157.02 64.70
  L 155.55 55.61
  Q 155.27 53.92 156.98 53.88
  L 157.87 53.86
  Q 159.50 53.82 159.68 55.44
  L 160.56 63.74
  A 0.50 0.48 82.6 0 0 161.11 64.18
  Q 170.01 62.98 178.00 63.95
  Z"
/>
<path fill="#646464" d="
  M 80.79 57.79
  Q 83.00 62.07 80.13 64.88
  Q 78.14 66.83 75.36 66.35
  C 71.51 65.68 69.53 62.50 70.74 58.66
  C 72.73 54.19 78.03 53.80 80.79 57.79
  Z"
/>
<path fill="#646464" d="
  M 111.52 59.20
  Q 113.03 65.79 105.35 66.59
  Q 99.66 65.24 100.77 59.51
  C 101.77 54.34 109.54 53.75 111.52 59.20
  Z"
/>
<path fill="#ac6c3b" fill-opacity="0.996" d="
  M 44.20 81.82
  Q 48.63 82.64 47.93 85.97
  Q 47.38 88.60 44.73 87.72
  Q 43.04 87.16 41.26 86.74
  Q 35.62 84.89 29.83 83.13
  Q 26.73 82.19 25.25 80.90
  Q 22.01 78.07 18.91 75.19
  A 1.34 1.33 -29.8 0 0 17.72 74.87
  L 2.73 78.19
  Q 0.80 78.62 0.39 76.73
  Q 0.38 76.67 0.27 76.31
  Q -0.14 74.86 1.32 74.54
  L 16.35 71.20
  A 0.38 0.37 81.3 0 0 16.64 70.80
  L 15.73 62.31
  Q 15.58 60.89 16.97 60.58
  L 17.88 60.38
  Q 19.30 60.06 19.45 61.51
  L 20.43 70.72
  A 1.63 1.61 18.1 0 0 20.95 71.73
  L 28.72 78.79
  Q 29.05 79.10 29.50 79.18
  L 44.20 81.82
  Z"
/>
<path fill="#f5faff" d="
  M 124.87 64.71
  Q 131.15 68.70 135.69 73.80
  Q 131.84 80.97 131.13 86.95
  C 130.89 88.97 131.79 92.23 131.16 94.63
  Q 130.05 98.85 126.18 104.42
  Q 125.90 104.82 125.42 104.73
  C 118.06 103.22 117.37 108.54 114.26 113.20
  Q 113.98 113.63 113.97 114.14
  Q 113.96 117.74 110.78 120.08
  C 105.48 123.97 101.36 126.70 94.18 124.86
  C 96.26 116.69 83.34 116.58 85.35 124.74
  Q 83.30 128.52 82.84 132.61
  A 0.59 0.59 0.0 0 1 82.19 133.13
  Q 77.17 132.62 72.24 133.55
  C 65.62 134.81 60.11 134.14 54.09 132.24
  A 0.96 0.95 -81.3 0 1 53.43 131.33
  L 53.43 126.43
  Q 53.43 125.87 52.97 125.55
  Q 50.38 123.76 48.48 123.76
  A 1.21 1.21 0.0 0 0 47.59 124.15
  L 44.99 127.01
  A 1.35 1.35 0.0 0 1 43.37 127.30
  L 40.03 125.55
  L 36.74 120.08
  A 0.89 0.88 72.7 0 0 35.91 119.64
  L 34.64 119.73
  Q 32.94 102.44 41.26 86.74
  Q 43.04 87.16 44.73 87.72
  Q 47.38 88.60 47.93 85.97
  Q 48.63 82.64 44.20 81.82
  Q 50.15 72.70 58.97 66.48
  L 61.73 69.75
  C 59.13 78.84 68.62 83.90 76.09 86.15
  C 88.90 90.00 107.19 89.47 117.68 80.43
  Q 122.33 76.43 121.11 69.33
  L 124.87 64.71
  Z
  M 95.96 102.02
  A 4.58 4.58 0.0 0 0 91.38 97.44
  A 4.58 4.58 0.0 0 0 86.80 102.02
  A 4.58 4.58 0.0 0 0 91.38 106.60
  A 4.58 4.58 0.0 0 0 95.96 102.02
  Z
  M 120.1431 98.9679
  A 1.35 1.24 16.7 0 0 119.2063 97.3923
  A 1.35 1.24 16.7 0 0 117.5569 98.1921
  A 1.35 1.24 16.7 0 0 118.4937 99.7677
  A 1.35 1.24 16.7 0 0 120.1431 98.9679
  Z"
/>
<path fill="#feac33" d="
  M 88.36 65.30
  Q 91.78 64.96 93.17 66.54
  L 90.48 81.70
  Q 90.31 82.68 90.07 81.72
  L 86.73 68.28
  Q 86.64 67.90 86.81 67.56
  L 86.94 67.29
  Q 87.35 66.48 86.53 66.87
  Q 85.63 67.30 84.87 68.28
  L 85.48 66.69
  L 88.36 65.30
  Z"
/>
<path fill="#fc722d" d="
  M 93.17 66.54
  Q 95.04 67.37 95.59 69.11
  Q 95.96 70.28 95.28 72.31
  Q 93.85 76.58 92.30 81.89
  L 90.92 85.85
  A 0.49 0.49 0.0 0 1 90.00 85.86
  L 88.53 82.05
  Q 86.44 76.44 84.32 71.14
  Q 83.88 70.02 84.87 68.28
  Q 85.63 67.30 86.53 66.87
  Q 87.35 66.48 86.94 67.29
  L 86.81 67.56
  Q 86.64 67.90 86.73 68.28
  L 90.07 81.72
  Q 90.31 82.68 90.48 81.70
  L 93.17 66.54
  Z"
/>
<path fill="#e6f3fa" d="
  M 121.11 69.33
  Q 122.33 76.43 117.68 80.43
  C 107.19 89.47 88.90 90.00 76.09 86.15
  C 68.62 83.90 59.13 78.84 61.73 69.75
  C 69.39 76.91 77.79 81.44 88.53 82.05
  L 90.00 85.86
  A 0.49 0.49 0.0 0 0 90.92 85.85
  L 92.30 81.89
  Q 108.97 81.92 121.11 69.33
  Z"
/>
<path fill="#e6f3fa" d="
  M 135.69 73.80
  L 138.02 75.98
  L 140.70 79.69
  L 135.36 82.29
  Q 133.07 83.40 133.98 85.77
  L 134.25 86.47
  Q 135.21 88.99 137.51 87.59
  L 143.55 83.92
  L 149.84 97.26
  L 151.62 107.69
  Q 149.75 112.01 149.72 113.55
  Q 149.60 121.02 145.11 126.91
  A 0.39 0.39 0.0 0 1 144.44 126.83
  L 143.52 124.73
  A 2.12 2.08 -40.6 0 0 139.83 124.48
  Q 139.49 124.98 139.14 126.23
  Q 137.70 131.27 137.52 131.95
  A 1.05 1.05 0.0 0 1 136.21 132.68
  Q 133.41 131.88 131.48 130.45
  Q 129.89 129.28 130.99 130.92
  Q 133.07 134.05 136.58 135.08
  A 1.28 1.28 0.0 0 0 138.19 134.14
  L 139.99 126.44
  Q 140.95 122.38 142.55 126.22
  Q 142.93 127.14 144.93 130.05
  Q 145.28 130.56 144.95 131.07
  L 139.53 139.42
  A 1.94 1.93 19.8 0 1 137.70 140.28
  C 135.38 140.03 133.81 141.79 131.71 142.34
  C 128.67 143.13 127.49 145.86 128.89 148.68
  A 0.63 0.63 0.0 0 1 128.65 149.51
  L 123.50 152.48
  Q 122.99 152.77 122.62 152.33
  Q 121.06 150.50 119.03 151.86
  Q 118.52 152.21 118.52 152.82
  L 118.52 154.07
  Q 118.52 154.66 117.97 154.86
  Q 108.34 158.42 97.92 158.88
  Q 97.52 158.90 97.38 158.52
  L 96.53 156.32
  A 2.46 2.46 0.0 0 0 93.35 154.90
  L 88.54 156.74
  A 0.46 0.41 3.4 0 0 88.35 156.89
  L 87.53 158.00
  Q 87.23 158.42 86.72 158.36
  Q 76.48 157.32 67.10 153.21
  A 1.27 1.26 -78.3 0 1 66.34 152.05
  L 66.34 149.63
  Q 66.34 149.11 65.94 148.78
  Q 64.76 147.79 62.95 147.24
  Q 62.49 147.10 62.50 146.61
  Q 62.62 138.57 55.45 138.66
  Q 50.19 138.72 47.68 138.50
  Q 47.14 138.46 46.78 138.04
  Q 42.10 132.52 40.03 125.55
  L 43.37 127.30
  A 1.35 1.35 0.0 0 0 44.99 127.01
  L 47.59 124.15
  A 1.21 1.21 0.0 0 1 48.48 123.76
  Q 50.38 123.76 52.97 125.55
  Q 53.43 125.87 53.43 126.43
  L 53.43 131.33
  A 0.96 0.95 -81.3 0 0 54.09 132.24
  C 60.11 134.14 65.62 134.81 72.24 133.55
  Q 77.17 132.62 82.19 133.13
  A 0.59 0.59 0.0 0 0 82.84 132.61
  Q 83.30 128.52 85.35 124.74
  C 87.14 128.65 92.58 129.15 94.18 124.86
  C 101.36 126.70 105.48 123.97 110.78 120.08
  Q 113.96 117.74 113.97 114.14
  Q 113.98 113.63 114.26 113.20
  C 117.37 108.54 118.06 103.22 125.42 104.73
  Q 125.90 104.82 126.18 104.42
  Q 130.05 98.85 131.16 94.63
  C 131.79 92.23 130.89 88.97 131.13 86.95
  Q 131.84 80.97 135.69 73.80
  Z
  M 97.01 144.21
  A 4.58 4.58 0.0 0 0 92.43 139.63
  A 4.58 4.58 0.0 0 0 87.85 144.21
  A 4.58 4.58 0.0 0 0 92.43 148.79
  A 4.58 4.58 0.0 0 0 97.01 144.21
  Z
  M 113.92 151.63
  L 112.06 151.34
  A 0.44 0.44 0.0 0 0 111.56 151.71
  L 111.52 151.96
  A 1.89 1.28 -81.2 0 0 112.49 154.02
  L 112.69 154.05
  A 1.89 1.28 -81.2 0 0 114.25 152.38
  L 114.28 152.13
  A 0.44 0.44 0.0 0 0 113.92 151.63
  Z"
/>
<circle fill="#646464" cx="91.38" cy="102.02" r="4.58"/>
<ellipse fill="#e6f3fa" cx="0.00" cy="0.00" transform="translate(118.85,98.58) rotate(16.7)" rx="1.35" ry="1.24"/>
<path fill="#1c487b" fill-opacity="0.200" d="
  M 39.85 139.03
  C 42.19 144.07 45.19 149.71 50.02 152.77
  C 66.63 163.29 87.42 165.85 106.74 163.22
  C 117.38 161.78 128.53 158.39 137.07 152.20
  Q 140.02 150.07 142.10 146.95
  Q 153.82 129.41 151.62 107.69
  L 149.84 97.26
  Q 158.91 109.64 155.96 125.49
  Q 153.94 136.32 147.78 144.57
  Q 147.24 145.29 145.36 147.84
  Q 144.24 149.35 143.52 151.37
  C 139.38 162.97 124.87 168.61 113.47 171.20
  Q 92.47 175.96 70.91 171.87
  Q 61.18 170.02 52.91 166.09
  C 42.34 161.07 31.86 151.06 39.85 139.03
  Z"
/>
<path fill="#cce4f0" d="
  M 151.62 107.69
  Q 153.82 129.41 142.10 146.95
  Q 140.02 150.07 137.07 152.20
  C 128.53 158.39 117.38 161.78 106.74 163.22
  C 87.42 165.85 66.63 163.29 50.02 152.77
  C 45.19 149.71 42.19 144.07 39.85 139.03
  Q 35.58 129.77 34.64 119.73
  L 35.91 119.64
  A 0.89 0.88 72.7 0 1 36.74 120.08
  L 40.03 125.55
  Q 42.10 132.52 46.78 138.04
  Q 47.14 138.46 47.68 138.50
  Q 50.19 138.72 55.45 138.66
  Q 62.62 138.57 62.50 146.61
  Q 62.49 147.10 62.95 147.24
  Q 64.76 147.79 65.94 148.78
  Q 66.34 149.11 66.34 149.63
  L 66.34 152.05
  A 1.27 1.26 -78.3 0 0 67.10 153.21
  Q 76.48 157.32 86.72 158.36
  Q 87.23 158.42 87.53 158.00
  L 88.35 156.89
  A 0.46 0.41 3.4 0 1 88.54 156.74
  L 93.35 154.90
  A 2.46 2.46 0.0 0 1 96.53 156.32
  L 97.38 158.52
  Q 97.52 158.90 97.92 158.88
  Q 108.34 158.42 117.97 154.86
  Q 118.52 154.66 118.52 154.07
  L 118.52 152.82
  Q 118.52 152.21 119.03 151.86
  Q 121.06 150.50 122.62 152.33
  Q 122.99 152.77 123.50 152.48
  L 128.65 149.51
  A 0.63 0.63 0.0 0 0 128.89 148.68
  C 127.49 145.86 128.67 143.13 131.71 142.34
  C 133.81 141.79 135.38 140.03 137.70 140.28
  A 1.94 1.93 19.8 0 0 139.53 139.42
  L 144.95 131.07
  Q 145.28 130.56 144.93 130.05
  Q 142.93 127.14 142.55 126.22
  Q 140.95 122.38 139.99 126.44
  L 138.19 134.14
  A 1.28 1.28 0.0 0 1 136.58 135.08
  Q 133.07 134.05 130.99 130.92
  Q 129.89 129.28 131.48 130.45
  Q 133.41 131.88 136.21 132.68
  A 1.05 1.05 0.0 0 0 137.52 131.95
  Q 137.70 131.27 139.14 126.23
  Q 139.49 124.98 139.83 124.48
  A 2.12 2.08 -40.6 0 1 143.52 124.73
  L 144.44 126.83
  A 0.39 0.39 0.0 0 0 145.11 126.91
  Q 149.60 121.02 149.72 113.55
  Q 149.75 112.01 151.62 107.69
  Z"
/>
<path fill="#646464" d="
  M 94.18 124.86
  C 92.58 129.15 87.14 128.65 85.35 124.74
  C 83.34 116.58 96.26 116.69 94.18 124.86
  Z"
/>
<circle fill="#646464" cx="92.43" cy="144.21" r="4.58"/>
<path fill="#cce4f0" d="
  M 113.92 151.63
  A 0.44 0.44 0.0 0 1 114.28 152.13
  L 114.25 152.38
  A 1.89 1.28 -81.2 0 1 112.69 154.05
  L 112.49 154.02
  A 1.89 1.28 -81.2 0 1 111.52 151.96
  L 111.56 151.71
  A 0.44 0.44 0.0 0 1 112.06 151.34
  L 113.92 151.63
  Z"
/>
</svg>
