<?xml version="1.0" encoding="UTF-8" standalone="no"?>
<!-- Created with Inkscape (http://www.inkscape.org/) -->

<svg
   xmlns:dc="http://purl.org/dc/elements/1.1/"
   xmlns:cc="http://creativecommons.org/ns#"
   xmlns:rdf="http://www.w3.org/1999/02/22-rdf-syntax-ns#"
   xmlns:svg="http://www.w3.org/2000/svg"
   xmlns="http://www.w3.org/2000/svg"
   xmlns:xlink="http://www.w3.org/1999/xlink"
   xmlns:sodipodi="http://sodipodi.sourceforge.net/DTD/sodipodi-0.dtd"
   xmlns:inkscape="http://www.inkscape.org/namespaces/inkscape"
   width="1023.9996"
   height="428.64011"
   id="svg4611"
   version="1.1"
   inkscape:version="0.48.5 r10040"
   sodipodi:docname="smoking_fireball_06.svg">
  <defs
     id="defs4613">
    <radialGradient
       inkscape:collect="always"
       xlink:href="#linearGradient25629"
       id="radialGradient32259"
       gradientUnits="userSpaceOnUse"
       gradientTransform="matrix(0,0.9421926,-1,0,3676.4288,5242.6685)"
       cx="-795.81506"
       cy="4484.2861"
       fx="-795.81506"
       fy="4484.2861"
       r="100.35714" />
    <linearGradient
       id="linearGradient25629">
      <stop
         style="stop-color:#ffffff;stop-opacity:1"
         offset="0"
         id="stop25631" />
      <stop
         id="stop25637"
         offset="0.69999999"
         style="stop-color:#ffff00;stop-opacity:1" />
      <stop
         style="stop-color:#ffff00;stop-opacity:0"
         offset="1"
         id="stop25633" />
    </linearGradient>
    <radialGradient
       inkscape:collect="always"
       xlink:href="#linearGradient25629"
       id="radialGradient32261"
       gradientUnits="userSpaceOnUse"
       gradientTransform="matrix(0,0.9421926,-1,0,3676.4288,5242.6685)"
       cx="-795.81506"
       cy="4484.2861"
       fx="-795.81506"
       fy="4484.2861"
       r="100.35714" />
    <linearGradient
       id="linearGradient4635">
      <stop
         style="stop-color:#ffffff;stop-opacity:1"
         offset="0"
         id="stop4637" />
      <stop
         id="stop4639"
         offset="0.69999999"
         style="stop-color:#ffff00;stop-opacity:1" />
      <stop
         style="stop-color:#ffff00;stop-opacity:0"
         offset="1"
         id="stop4641" />
    </linearGradient>
    <radialGradient
       inkscape:collect="always"
       xlink:href="#linearGradient25629"
       id="radialGradient32263"
       gradientUnits="userSpaceOnUse"
       gradientTransform="matrix(0,0.9421926,-1,0,3676.4288,5242.6685)"
       cx="-795.81506"
       cy="4484.2861"
       fx="-795.81506"
       fy="4484.2861"
       r="100.35714" />
    <linearGradient
       id="linearGradient4644">
      <stop
         style="stop-color:#ffffff;stop-opacity:1"
         offset="0"
         id="stop4646" />
      <stop
         id="stop4648"
         offset="0.69999999"
         style="stop-color:#ffff00;stop-opacity:1" />
      <stop
         style="stop-color:#ffff00;stop-opacity:0"
         offset="1"
         id="stop4650" />
    </linearGradient>
    <radialGradient
       inkscape:collect="always"
       xlink:href="#linearGradient25629"
       id="radialGradient32265"
       gradientUnits="userSpaceOnUse"
       gradientTransform="matrix(0,0.9421926,-1,0,3676.4288,5242.6685)"
       cx="-795.81506"
       cy="4484.2861"
       fx="-795.81506"
       fy="4484.2861"
       r="100.35714" />
    <linearGradient
       id="linearGradient4653">
      <stop
         style="stop-color:#ffffff;stop-opacity:1"
         offset="0"
         id="stop4655" />
      <stop
         id="stop4657"
         offset="0.69999999"
         style="stop-color:#ffff00;stop-opacity:1" />
      <stop
         style="stop-color:#ffff00;stop-opacity:0"
         offset="1"
         id="stop4659" />
    </linearGradient>
    <radialGradient
       inkscape:collect="always"
       xlink:href="#linearGradient25629"
       id="radialGradient32267"
       gradientUnits="userSpaceOnUse"
       gradientTransform="matrix(0,0.9421926,-1,0,3676.4288,5242.6685)"
       cx="-795.81506"
       cy="4484.2861"
       fx="-795.81506"
       fy="4484.2861"
       r="100.35714" />
    <linearGradient
       id="linearGradient4662">
      <stop
         style="stop-color:#ffffff;stop-opacity:1"
         offset="0"
         id="stop4664" />
      <stop
         id="stop4666"
         offset="0.69999999"
         style="stop-color:#ffff00;stop-opacity:1" />
      <stop
         style="stop-color:#ffff00;stop-opacity:0"
         offset="1"
         id="stop4668" />
    </linearGradient>
    <radialGradient
       inkscape:collect="always"
       xlink:href="#linearGradient25629"
       id="radialGradient32269"
       gradientUnits="userSpaceOnUse"
       gradientTransform="matrix(0,0.9421926,-1,0,3676.4288,5242.6685)"
       cx="-795.81506"
       cy="4484.2861"
       fx="-795.81506"
       fy="4484.2861"
       r="100.35714" />
    <linearGradient
       id="linearGradient4671">
      <stop
         style="stop-color:#ffffff;stop-opacity:1"
         offset="0"
         id="stop4673" />
      <stop
         id="stop4675"
         offset="0.69999999"
         style="stop-color:#ffff00;stop-opacity:1" />
      <stop
         style="stop-color:#ffff00;stop-opacity:0"
         offset="1"
         id="stop4677" />
    </linearGradient>
    <radialGradient
       inkscape:collect="always"
       xlink:href="#linearGradient25629"
       id="radialGradient6118"
       gradientUnits="userSpaceOnUse"
       gradientTransform="matrix(0,0.9421926,-1,0,3676.4288,5242.6685)"
       cx="-795.81506"
       cy="4484.2861"
       fx="-795.81506"
       fy="4484.2861"
       r="100.35714" />
  </defs>
  <sodipodi:namedview
     id="base"
     pagecolor="#ffffff"
     bordercolor="#666666"
     borderopacity="1.0"
     inkscape:pageopacity="0.0"
     inkscape:pageshadow="2"
     inkscape:zoom="0.7"
     inkscape:cx="296.76622"
     inkscape:cy="10.699608"
     inkscape:document-units="px"
     inkscape:current-layer="layer1"
     showgrid="false"
     inkscape:window-width="1920"
     inkscape:window-height="1017"
     inkscape:window-x="-8"
     inkscape:window-y="-8"
     inkscape:window-maximized="1" />
  <metadata
     id="metadata4616">
    <rdf:RDF>
      <cc:Work
         rdf:about="">
        <dc:format>image/svg+xml</dc:format>
        <dc:type
           rdf:resource="http://purl.org/dc/dcmitype/StillImage" />
      </cc:Work>
    </rdf:RDF>
  </metadata>
  <g
     inkscape:label="Layer 1"
     inkscape:groupmode="layer"
     id="layer1"
     transform="translate(511.9993,-1258.2133)">
    <g
       id="g31453"
       transform="matrix(1.3276229,0,0,1.3276229,4149.1184,3063.3891)"
       gds_color="smoke"
       gds_switchable="smoke">
      <rect
         style="opacity:0;color:#000000;fill:#dbe3e2;fill-opacity:1;fill-rule:nonzero;stroke:none;stroke-width:20;marker:none;visibility:visible;display:inline;overflow:visible;enable-background:accumulate"
         id="rect31455"
         width="565.45239"
         height="269.11905"
         x="-3305.0242"
         y="-1332.8334" />
      <g
         id="g31457"
         transform="matrix(1.0748991,0,0,1.0748991,-3401.9367,-1218.1729)">
        <path
           sodipodi:type="arc"
           style="opacity:0.09210528;color:#000000;fill:#000000;fill-opacity:1;fill-rule:nonzero;stroke:none;stroke-width:20;marker:none;visibility:visible;display:inline;overflow:visible;enable-background:accumulate"
           id="path31459"
           sodipodi:cx="-3812.8572"
           sodipodi:cy="2730"
           sodipodi:rx="115.71429"
           sodipodi:ry="115.71429"
           d="m -3697.1429,2730 a 115.71429,115.71429 0 1 1 -231.4286,0 115.71429,115.71429 0 1 1 231.4286,0 z"
           transform="matrix(0.07176598,0,0,0.07176598,838.2143,-181.2364)" />
      </g>
      <g
         transform="translate(-3598.5016,-1256.4776)"
         id="g31461">
        <path
           transform="matrix(0.07176598,0,0,0.07176598,838.2143,-181.2364)"
           d="m -3697.1429,2730 a 115.71429,115.71429 0 1 1 -231.4286,0 115.71429,115.71429 0 1 1 231.4286,0 z"
           sodipodi:ry="115.71429"
           sodipodi:rx="115.71429"
           sodipodi:cy="2730"
           sodipodi:cx="-3812.8572"
           id="path31463"
           style="opacity:0.09210528;color:#000000;fill:#000000;fill-opacity:1;fill-rule:nonzero;stroke:none;stroke-width:20;marker:none;visibility:visible;display:inline;overflow:visible;enable-background:accumulate"
           sodipodi:type="arc" />
      </g>
      <g
         transform="translate(-2835.2121,-1213.7145)"
         id="g31465">
        <path
           transform="matrix(0.18935858,0,0,0.18935858,588.18053,-502.26419)"
           d="m -3697.1429,2730 a 115.71429,115.71429 0 1 1 -231.4286,0 115.71429,115.71429 0 1 1 231.4286,0 z"
           sodipodi:ry="115.71429"
           sodipodi:rx="115.71429"
           sodipodi:cy="2730"
           sodipodi:cx="-3812.8572"
           id="path31467"
           style="opacity:0.24122805;color:#000000;fill:#000000;fill-opacity:1;fill-rule:nonzero;stroke:none;stroke-width:20;marker:none;visibility:visible;display:inline;overflow:visible;enable-background:accumulate"
           sodipodi:type="arc" />
      </g>
      <g
         id="g31469"
         transform="translate(-3293.8304,-1213.7145)">
        <path
           transform="matrix(0.12402936,0,0,0.12402936,684.50856,-323.91542)"
           d="m -3697.1429,2730 a 115.71429,115.71429 0 1 1 -231.4286,0 115.71429,115.71429 0 1 1 231.4286,0 z"
           sodipodi:ry="115.71429"
           sodipodi:rx="115.71429"
           sodipodi:cy="2730"
           sodipodi:cx="-3812.8572"
           id="path31471"
           style="opacity:0.14473685;color:#000000;fill:#000000;fill-opacity:1;fill-rule:nonzero;stroke:none;stroke-width:20;marker:none;visibility:visible;display:inline;overflow:visible;enable-background:accumulate"
           sodipodi:type="arc" />
      </g>
      <g
         id="g31473"
         transform="matrix(1.4924207,0,0,1.4924207,-1424.188,-1199.9362)">
        <path
           transform="matrix(0.32001702,0,0,0.32001702,0.21251212,-858.96174)"
           d="m -3697.1429,2730 a 115.71429,115.71429 0 1 1 -231.4286,0 115.71429,115.71429 0 1 1 231.4286,0 z"
           sodipodi:ry="115.71429"
           sodipodi:rx="115.71429"
           sodipodi:cy="2730"
           sodipodi:cx="-3812.8572"
           id="path31475"
           style="opacity:0.24122805;color:#000000;fill:#000000;fill-opacity:1;fill-rule:nonzero;stroke:none;stroke-width:20;marker:none;visibility:visible;display:inline;overflow:visible;enable-background:accumulate"
           sodipodi:type="arc" />
      </g>
      <g
         transform="translate(-1989.62,-1158.1225)"
         id="g31477">
        <path
           sodipodi:type="arc"
           style="opacity:0.24122805;color:#000000;fill:#000000;fill-opacity:1;fill-rule:nonzero;stroke:none;stroke-width:20;marker:none;visibility:visible;display:inline;overflow:visible;enable-background:accumulate"
           id="path31479"
           sodipodi:cx="-3812.8572"
           sodipodi:cy="2730"
           sodipodi:rx="115.71429"
           sodipodi:ry="115.71429"
           d="m -3697.1429,2730 a 115.71429,115.71429 0 1 1 -231.4286,0 115.71429,115.71429 0 1 1 231.4286,0 z"
           transform="matrix(0.32001702,0,0,0.32001702,0.21251212,-858.96174)" />
      </g>
      <g
         id="g31481"
         transform="translate(-2354.1594,-1243.6487)">
        <path
           sodipodi:type="arc"
           style="opacity:0.24122805;color:#000000;fill:#000000;fill-opacity:1;fill-rule:nonzero;stroke:none;stroke-width:20;marker:none;visibility:visible;display:inline;overflow:visible;enable-background:accumulate"
           id="path31483"
           sodipodi:cx="-3812.8572"
           sodipodi:cy="2730"
           sodipodi:rx="115.71429"
           sodipodi:ry="115.71429"
           d="m -3697.1429,2730 a 115.71429,115.71429 0 1 1 -231.4286,0 115.71429,115.71429 0 1 1 231.4286,0 z"
           transform="matrix(0.26122072,0,0,0.26122072,126.74134,-698.44784)" />
      </g>
      <g
         id="g31485"
         transform="matrix(1,0,0,-1,2636.762,-2888.3237)">
        <g
           id="g31487"
           transform="matrix(1.0748991,0,0,1.0748991,-4871.0679,-1709.9488)">
          <path
             sodipodi:type="arc"
             style="opacity:0.24122805;color:#000000;fill:#000000;fill-opacity:1;fill-rule:nonzero;stroke:none;stroke-width:20;marker:none;visibility:visible;display:inline;overflow:visible;enable-background:accumulate"
             id="path31489"
             sodipodi:cx="-3812.8572"
             sodipodi:cy="2730"
             sodipodi:rx="115.71429"
             sodipodi:ry="115.71429"
             d="m -3697.1429,2730 a 115.71429,115.71429 0 1 1 -231.4286,0 115.71429,115.71429 0 1 1 231.4286,0 z"
             transform="matrix(0.26122072,0,0,0.26122072,126.74134,-698.44784)" />
        </g>
        <g
           transform="translate(-4965.2635,-1748.2535)"
           id="g31491">
          <path
             transform="matrix(0.26122072,0,0,0.26122072,126.74134,-698.44784)"
             d="m -3697.1429,2730 a 115.71429,115.71429 0 1 1 -231.4286,0 115.71429,115.71429 0 1 1 231.4286,0 z"
             sodipodi:ry="115.71429"
             sodipodi:rx="115.71429"
             sodipodi:cy="2730"
             sodipodi:cx="-3812.8572"
             id="path31493"
             style="opacity:0.24122805;color:#000000;fill:#000000;fill-opacity:1;fill-rule:nonzero;stroke:none;stroke-width:20;marker:none;visibility:visible;display:inline;overflow:visible;enable-background:accumulate"
             sodipodi:type="arc" />
        </g>
        <g
           transform="translate(-6106.9742,-1705.4904)"
           id="g31495">
          <path
             transform="matrix(0.07176598,0,0,0.07176598,838.2143,-181.2364)"
             d="m -3697.1429,2730 a 115.71429,115.71429 0 1 1 -231.4286,0 115.71429,115.71429 0 1 1 231.4286,0 z"
             sodipodi:ry="115.71429"
             sodipodi:rx="115.71429"
             sodipodi:cy="2730"
             sodipodi:cx="-3812.8572"
             id="path31497"
             style="opacity:0.09210528;color:#000000;fill:#000000;fill-opacity:1;fill-rule:nonzero;stroke:none;stroke-width:20;marker:none;visibility:visible;display:inline;overflow:visible;enable-background:accumulate"
             sodipodi:type="arc" />
        </g>
        <g
           transform="translate(-4660.5924,-1705.4904)"
           id="g31499">
          <path
             sodipodi:type="arc"
             style="opacity:0.24122805;color:#000000;fill:#000000;fill-opacity:1;fill-rule:nonzero;stroke:none;stroke-width:20;marker:none;visibility:visible;display:inline;overflow:visible;enable-background:accumulate"
             id="path31501"
             sodipodi:cx="-3812.8572"
             sodipodi:cy="2730"
             sodipodi:rx="115.71429"
             sodipodi:ry="115.71429"
             d="m -3697.1429,2730 a 115.71429,115.71429 0 1 1 -231.4286,0 115.71429,115.71429 0 1 1 231.4286,0 z"
             transform="matrix(0.32001702,0,0,0.32001702,0.21251212,-858.96174)" />
        </g>
        <g
           transform="matrix(1.4924207,0,0,1.4924207,-5008.6371,-1691.7121)"
           id="g31503">
          <path
             sodipodi:type="arc"
             style="opacity:0.24122805;color:#000000;fill:#000000;fill-opacity:1;fill-rule:nonzero;stroke:none;stroke-width:20;marker:none;visibility:visible;display:inline;overflow:visible;enable-background:accumulate"
             id="path31505"
             sodipodi:cx="-3812.8572"
             sodipodi:cy="2730"
             sodipodi:rx="115.71429"
             sodipodi:ry="115.71429"
             d="m -3697.1429,2730 a 115.71429,115.71429 0 1 1 -231.4286,0 115.71429,115.71429 0 1 1 231.4286,0 z"
             transform="matrix(0.22855611,0,0,0.22855611,374.07323,-609.27345)" />
        </g>
        <g
           id="g31507"
           transform="translate(-5261.3819,-1649.8984)">
          <path
             transform="matrix(0.22855611,0,0,0.22855611,374.07323,-609.27345)"
             d="m -3697.1429,2730 a 115.71429,115.71429 0 1 1 -231.4286,0 115.71429,115.71429 0 1 1 231.4286,0 z"
             sodipodi:ry="115.71429"
             sodipodi:rx="115.71429"
             sodipodi:cy="2730"
             sodipodi:cx="-3812.8572"
             id="path31509"
             style="opacity:0.24122805;color:#000000;fill:#000000;fill-opacity:1;fill-rule:nonzero;stroke:none;stroke-width:20;marker:none;visibility:visible;display:inline;overflow:visible;enable-background:accumulate"
             sodipodi:type="arc" />
        </g>
        <g
           id="g31511"
           transform="translate(-5625.9214,-1735.4246)">
          <path
             sodipodi:type="arc"
             style="opacity:0.24122805;color:#000000;fill:#000000;fill-opacity:1;fill-rule:nonzero;stroke:none;stroke-width:20;marker:none;visibility:visible;display:inline;overflow:visible;enable-background:accumulate"
             id="path31513"
             sodipodi:cx="-3812.8572"
             sodipodi:cy="2730"
             sodipodi:rx="115.71429"
             sodipodi:ry="115.71429"
             d="m -3697.1429,2730 a 115.71429,115.71429 0 1 1 -231.4286,0 115.71429,115.71429 0 1 1 231.4286,0 z"
             transform="matrix(0.18935858,0,0,0.18935858,588.18053,-502.26419)" />
        </g>
      </g>
      <g
         transform="matrix(1,0,0,-1,1348.6189,-2888.3237)"
         id="g31515">
        <g
           transform="matrix(1.0748991,0,0,1.0748991,-4169.0049,-1709.9488)"
           id="g31517">
          <path
             transform="matrix(0.18935858,0,0,0.18935858,588.18053,-502.26419)"
             d="m -3697.1429,2730 a 115.71429,115.71429 0 1 1 -231.4286,0 115.71429,115.71429 0 1 1 231.4286,0 z"
             sodipodi:ry="115.71429"
             sodipodi:rx="115.71429"
             sodipodi:cy="2730"
             sodipodi:cx="-3812.8572"
             id="path31519"
             style="opacity:0.24122805;color:#000000;fill:#000000;fill-opacity:1;fill-rule:nonzero;stroke:none;stroke-width:20;marker:none;visibility:visible;display:inline;overflow:visible;enable-background:accumulate"
             sodipodi:type="arc" />
        </g>
        <g
           id="g31521"
           transform="translate(-4312.1204,-1748.2535)">
          <path
             sodipodi:type="arc"
             style="opacity:0.24122805;color:#000000;fill:#000000;fill-opacity:1;fill-rule:nonzero;stroke:none;stroke-width:20;marker:none;visibility:visible;display:inline;overflow:visible;enable-background:accumulate"
             id="path31523"
             sodipodi:cx="-3812.8572"
             sodipodi:cy="2730"
             sodipodi:rx="115.71429"
             sodipodi:ry="115.71429"
             d="m -3697.1429,2730 a 115.71429,115.71429 0 1 1 -231.4286,0 115.71429,115.71429 0 1 1 231.4286,0 z"
             transform="matrix(0.18935858,0,0,0.18935858,588.18053,-502.26419)" />
        </g>
        <g
           id="g31525"
           transform="translate(-3548.831,-1705.4904)">
          <path
             sodipodi:type="arc"
             style="opacity:0.24122805;color:#000000;fill:#000000;fill-opacity:1;fill-rule:nonzero;stroke:none;stroke-width:20;marker:none;visibility:visible;display:inline;overflow:visible;enable-background:accumulate"
             id="path31527"
             sodipodi:cx="-3812.8572"
             sodipodi:cy="2730"
             sodipodi:rx="115.71429"
             sodipodi:ry="115.71429"
             d="m -3697.1429,2730 a 115.71429,115.71429 0 1 1 -231.4286,0 115.71429,115.71429 0 1 1 231.4286,0 z"
             transform="matrix(0.26122072,0,0,0.26122072,126.74134,-698.44784)" />
        </g>
        <g
           transform="translate(-4007.4493,-1705.4904)"
           id="g31529">
          <path
             sodipodi:type="arc"
             style="opacity:0.24122805;color:#000000;fill:#000000;fill-opacity:1;fill-rule:nonzero;stroke:none;stroke-width:20;marker:none;visibility:visible;display:inline;overflow:visible;enable-background:accumulate"
             id="path31531"
             sodipodi:cx="-3812.8572"
             sodipodi:cy="2730"
             sodipodi:rx="115.71429"
             sodipodi:ry="115.71429"
             d="m -3697.1429,2730 a 115.71429,115.71429 0 1 1 -231.4286,0 115.71429,115.71429 0 1 1 231.4286,0 z"
             transform="matrix(0.22855611,0,0,0.22855611,374.07323,-609.27345)" />
        </g>
        <g
           id="g31533"
           transform="matrix(1.4924207,0,0,1.4924207,-4668.1812,-1691.7121)">
          <path
             transform="matrix(0.12402936,0,0,0.12402936,684.50856,-323.91542)"
             d="m -3697.1429,2730 a 115.71429,115.71429 0 1 1 -231.4286,0 115.71429,115.71429 0 1 1 231.4286,0 z"
             sodipodi:ry="115.71429"
             sodipodi:rx="115.71429"
             sodipodi:cy="2730"
             sodipodi:cx="-3812.8572"
             id="path31535"
             style="opacity:0.14473685;color:#000000;fill:#000000;fill-opacity:1;fill-rule:nonzero;stroke:none;stroke-width:20;marker:none;visibility:visible;display:inline;overflow:visible;enable-background:accumulate"
             sodipodi:type="arc" />
        </g>
        <g
           transform="translate(-4608.2388,-1649.8984)"
           id="g31537">
          <path
             sodipodi:type="arc"
             style="opacity:0.14473685;color:#000000;fill:#000000;fill-opacity:1;fill-rule:nonzero;stroke:none;stroke-width:20;marker:none;visibility:visible;display:inline;overflow:visible;enable-background:accumulate"
             id="path31539"
             sodipodi:cx="-3812.8572"
             sodipodi:cy="2730"
             sodipodi:rx="115.71429"
             sodipodi:ry="115.71429"
             d="m -3697.1429,2730 a 115.71429,115.71429 0 1 1 -231.4286,0 115.71429,115.71429 0 1 1 231.4286,0 z"
             transform="matrix(0.12402936,0,0,0.12402936,684.50856,-323.91542)" />
        </g>
        <g
           transform="translate(-4972.7784,-1735.4246)"
           id="g31541">
          <path
             transform="matrix(0.07176598,0,0,0.07176598,838.2143,-181.2364)"
             d="m -3697.1429,2730 a 115.71429,115.71429 0 1 1 -231.4286,0 115.71429,115.71429 0 1 1 231.4286,0 z"
             sodipodi:ry="115.71429"
             sodipodi:rx="115.71429"
             sodipodi:cy="2730"
             sodipodi:cx="-3812.8572"
             id="path31543"
             style="opacity:0.09210528;color:#000000;fill:#000000;fill-opacity:1;fill-rule:nonzero;stroke:none;stroke-width:20;marker:none;visibility:visible;display:inline;overflow:visible;enable-background:accumulate"
             sodipodi:type="arc" />
        </g>
      </g>
    </g>
    <g
       transform="matrix(4.0265346,0,0,4.0265346,-2548.3094,3373.4981)"
       id="g31015"
       gds_color="fireball">
      <path
         sodipodi:nodetypes="ccccc"
         inkscape:connector-curvature="0"
         id="path31017"
         d="m 505.72273,-525.3363 140.30211,0 0,106.45385 -140.30211,0 z"
         style="opacity:0;color:#000000;fill:#cccccc;fill-opacity:1;fill-rule:nonzero;stroke:none;stroke-width:20;marker:none;visibility:visible;display:inline;overflow:visible;enable-background:accumulate" />
      <g
         transform="translate(884.84227,-96.005955)"
         id="g31019">
        <g
           id="g31021">
          <path
             inkscape:connector-curvature="0"
             style="color:#000000;fill:#ff8655;fill-opacity:1;fill-rule:nonzero;stroke:none;stroke-width:20;marker:none;visibility:visible;display:inline;overflow:visible;enable-background:accumulate"
             d="m 2194.4375,1899.4375 c -5.0223,0 -7.8437,1.2187 -7.8437,1.2187 -20.7142,2.8575 -22.1432,8.5626 -10,8.5626 12.1428,0 32.1652,-7.8527 23.5937,-9.2813 -2.1428,-0.3571 -4.0758,-0.5 -5.75,-0.5 z m -127.875,5.1875 c -6.5987,0.2955 -22.4008,8.8039 -26.0313,18.9688 -2.8408,7.5762 -4.3554,16.0199 2.125,22.875 -20.3001,-12.5179 -36.4468,0.9166 -41.5937,14.9687 -4.3965,11.9334 -24.8234,22.2479 -23.375,39.125 -12.6057,17.7623 -20.3924,39.1778 -21.5,62.3437 -22.2021,20.0463 -11.9602,41.6042 -2.5625,50.0626 3.9308,3.5376 8.4794,5.3973 12.5625,6.3437 0.1726,2.0899 0.3755,4.1618 0.6563,6.2187 -0.3565,6.1949 0.096,12.5112 2.8124,14.125 -7.5055,22.3228 22.9711,51.3479 24.25,66.0626 1.4289,16.4283 4.0313,23.3124 4.0313,23.3124 0,0 12.0987,2.9602 8.8437,-15.4374 1.7388,-4.7412 3.3765,-8.1644 4.8126,-10.9063 10.7272,8.2876 22.9207,14.7567 36.125,18.9687 -3.0706,2.7691 -9.3931,6.5368 -22.375,10.5313 0,0 2.0227,3.0102 9.0937,2 7.0711,-1.0101 26.2617,-3.0117 31.3125,-8.0625 0.073,-0.073 0.1247,-0.1458 0.1875,-0.2188 2.5875,0.3869 5.2036,0.6912 7.8437,0.9063 3.4269,25.8529 34.7813,27.4687 34.7813,27.4687 0,0 -10.7009,-6.4241 -7.8437,-19.2812 1.0117,-4.5536 3.1764,-7.6481 5.3437,-9.9375 2.5484,-0.4939 5.077,-1.0624 7.5625,-1.7187 l 1,0 c 20.5976,0 39.9443,-5.3226 56.7812,-14.625 30.1087,3.7289 62.2409,12.7886 71.4376,5.5624 10,-7.8568 7.8663,-29.9955 -3.5626,-49.2812 -8.0122,-13.521 -5.4904,-30.1881 -8.4374,-33.7812 0.8033,0.4879 1.6535,0.8512 2.5937,0.9687 8.0812,1.0102 13.1375,-2.0219 21.2187,-6.0625 8.0815,-4.0406 17.1876,-11.125 17.1876,-11.125 l -8.0938,-6.0625 c 0,0 -9.0742,9.0946 -14.125,12.125 -3.9248,2.3549 -9.7278,-5.6375 -17.3125,-13.5937 0.01,-0.6269 0.031,-1.2463 0.031,-1.875 0,-11.058 -1.5512,-21.7365 -4.4063,-31.875 12.7316,1.7986 27.1738,1.2518 31,-5.125 6.4286,-10.7147 -30,-10.7188 -30,-10.7188 -1.4798,0.048 -2.8792,0.1145 -4.2187,0.1875 1.9245,-6.046 4.6643,-12.7439 8.8437,-18.7813 12.8572,-18.5712 27.875,-7.8437 27.875,-7.8437 0,0 -23.5377,-27.9704 -43.5937,-5.9375 -12.5662,-35.536 -41.7288,-63.2354 -78.1563,-73.8125 2.0701,-2.7761 4.398,-6.7259 7.3125,-12.3437 10.4944,-20.2301 -10.375,-32.4063 -10.375,-32.4063 0,0 1.0078,7.0758 -9.0938,18.1875 -9.0603,9.9666 -35.2098,0.4547 -49.25,18.0625 -0.951,-1.3634 -1.2901,-2.9805 -0.4062,-4.9687 4.0406,-9.0915 -4.0488,-8.0795 -11.625,-12.625 -6.0633,-3.6382 -0.4994,-11.6004 2.5312,-17.1563 1.5211,-2.7885 0.3634,-3.9281 -2.2187,-3.8125 z m 324.375,28.0625 c -0.413,0 -0.7841,0.014 -1.0937,0.031 -0.8262,0.045 -1.2813,0.125 -1.2813,0.125 -40,5.7139 -39.9911,15.7413 -18.5625,14.3124 21.4286,-1.4284 45.7186,-4.2853 35.7188,-10 -6.5627,-3.7496 -11.8902,-4.4452 -14.7813,-4.4687 z m -155.625,15.0313 c -23.0592,0.4833 -22.6065,37.1518 -7.5937,41.4687 15.0126,4.3171 45.3413,-15.1074 56.625,-16.2813 11.2833,-1.173 16.6251,11.1622 20.5624,14.4376 3.9379,3.275 10.0428,-0.1659 -2.2812,-14.0626 -12.3241,-13.8958 -23.0838,-8.633 -37.8125,-13.5937 -14.7287,-4.9607 -29.5,-11.9687 -29.5,-11.9687 z m -185.625,1.1562 c -0.1811,0.094 -0.765,0.4258 -1.875,1.2812 -0.4491,-0.365 -0.8982,-0.6917 -1.3437,-1.0312 1.6015,0.4004 2.904,-0.092 3.2187,-0.25 z m 365.7187,102.625 c -3.2807,-0.017 -6.8437,1.3438 -6.8437,1.3438 -3.3783,0.9095 -6.4241,1.8046 -9.3125,2.6874 -0.2589,-0.1741 -0.9062,-0.5937 -0.9062,-0.5937 -7.5027,-0.8587 -11.9275,2.1063 -13.3126,5.5625 -15.834,6.5297 -16.9179,11.6917 -6.4687,13.7812 14.2857,2.8572 31.4286,8.5717 40,-10 4.8215,-10.4463 1.063,-12.7592 -3.1563,-12.7812 z m -458.5312,31.3438 c 1.3985,11.6176 4.5039,22.7094 9.0312,33.0312 -6.2741,-3.2634 -12.7686,-8.8039 -13.2812,-18.0312 -0.3473,-6.2504 1.5796,-11.212 4.25,-15 z m 340.9688,20.5937 c -14.1798,0.1619 -18.8315,5.4252 -10.875,10.0313 9.7917,5.6693 33.5158,5.1678 34.0312,-2.5626 0.5154,-7.7307 -11.8438,-6.6874 -11.8438,-6.6874 -4.2518,-0.5798 -8.0399,-0.8188 -11.3124,-0.7813 z m -68.125,26.9687 c 0.073,0.064 0.1439,0.1267 0.2187,0.1876 -0.084,-0.026 -0.16,-0.05 -0.25,-0.063 0.01,-0.042 0.022,-0.083 0.031,-0.125 z m 117.4062,60.0313 c -10.1591,0.1967 -22.0645,8.793 -35.6875,32.4063 0,0 35.7009,1.4419 52.8437,7.1562 17.1431,5.7143 27.1473,-11.4423 45.7188,-7.1562 18.5714,4.2854 -1.4286,-11.4152 -10,-12.8438 -8.5715,-1.4286 -24.2994,-1.4151 -37.1562,-12.8438 -4.4197,-3.9283 -9.3178,-6.5355 -14.75,-6.7187 -0.3243,-0.011 -0.6411,-0.01 -0.9688,0 z m -134.625,26.4063 c -8.7757,0.5095 -31.7867,12.9312 -37.5,12.8437 0,0 -11.625,1e-4 -11.625,6.5625 0,6.5659 20.2133,12.6429 39.4062,1.5312 14.3805,-15.7354 15.3771,-20.7623 10.5313,-20.9374 -0.2524,-0.01 -0.5294,-0.017 -0.8125,0 z m -221.1875,35.0624 c -1.1793,-0.062 -2.2431,0.331 -3.125,1.2813 -3.5274,3.8014 -3.2187,6.375 -3.2187,6.375 16.4655,16.3476 24.4275,13.2108 18.75,3.9375 -4.2587,-6.9549 -8.8683,-11.4079 -12.4063,-11.5938 z m 33.7187,11.5313 c -0.1815,0.011 -0.3451,0.03 -0.5312,0.062 -5.9543,1.0826 -4.3438,5.9688 -4.3438,5.9688 3.7894,8.1194 15.1667,16.7768 14.625,10.2812 -0.524,-6.2927 -4.1135,-16.6556 -9.75,-16.3125 z m 37.8126,6.375 c -0.8914,0 -1.6985,0.2426 -2.375,0.75 -4.3307,3.2477 0,10.2813 0,10.2813 6.4953,9.2019 18.4148,8.6619 16.25,1.625 -1.8271,-5.9377 -9.0616,-12.6558 -13.875,-12.6563 z"
             transform="matrix(0.26458334,0,0,0.26458334,-884.84232,-929.91075)"
             id="path31023" />
        </g>
        <g
           id="g31025" />
      </g>
      <g
         transform="matrix(0.5,0.8660254,-0.8660254,0.5,269.2826,-32.766609)"
         id="g31027">
        <path
           inkscape:connector-curvature="0"
           id="path31029"
           d="m -246.88155,-501.20014 c -12.84197,0 -23.25026,10.40828 -23.25026,23.25026 0,0.16494 0.005,0.33197 0.008,0.49609 -1.98133,1.89744 -3.21634,4.56414 -3.21634,7.52409 0,2.8742 1.16125,5.48137 3.04271,7.36701 -0.59222,1.89254 -0.90951,3.90668 -0.90951,5.99445 0,11.07067 8.97979,20.05044 20.05046,20.05044 0.10045,0 0.19756,-0.007 0.29766,-0.008 1.89115,1.00304 4.34873,1.61232 7.03626,1.61232 0.76419,0 1.51304,-0.0556 2.23242,-0.14886 2.91233,1.45788 6.19534,2.28203 9.67383,2.28203 11.95632,0 21.64622,-9.68988 21.64622,-21.6462 0,-1.4334 -0.13932,-2.83649 -0.40514,-4.192 2.79946,-1.61655 4.68809,-4.63786 4.68809,-8.10287 0,-3.31374 -1.72526,-6.22606 -4.32429,-7.88789 0.0279,-0.39634 0.0413,-0.79544 0.0413,-1.1989 0,-7.9552 -5.515,-14.61831 -12.93151,-16.37935 0.0675,-0.41143 0.10749,-0.82624 0.10749,-1.25677 0,-4.28067 -3.47494,-7.7556 -7.7556,-7.7556 -2.2274,0 -4.22513,0.94297 -5.63893,2.44739 -3.1282,-1.56604 -6.65677,-2.44739 -10.39317,-2.44739 z"
           style="color:#000000;fill:#ffffff;fill-opacity:1;fill-rule:nonzero;stroke:none;stroke-width:20;marker:none;visibility:visible;display:inline;overflow:visible;enable-background:accumulate" />
        <path
           transform="matrix(0.26458334,0,0,0.26458334,-17.29762,-1651.4597)"
           d="m -779.83774,4435.3247 a 87.88327,87.88327 0 1 1 -175.76654,0 87.88327,87.88327 0 1 1 175.76654,0 z"
           sodipodi:ry="87.88327"
           sodipodi:rx="87.88327"
           sodipodi:cy="4435.3247"
           sodipodi:cx="-867.72101"
           id="path31031"
           style="color:#000000;fill:#ffcc00;fill-opacity:1;fill-rule:nonzero;stroke:none;stroke-width:20;marker:none;visibility:visible;display:inline;overflow:visible;enable-background:accumulate"
           sodipodi:type="arc" />
        <path
           transform="matrix(0.26458334,0,0,0.26458334,-17.29762,-1651.4597)"
           d="m -729.33011,4524.2183 a 81.822357,81.822357 0 1 1 -163.64471,0 81.822357,81.822357 0 1 1 163.64471,0 z"
           sodipodi:ry="81.822357"
           sodipodi:rx="81.822357"
           sodipodi:cy="4524.2183"
           sodipodi:cx="-811.15247"
           id="path31033"
           style="color:#000000;fill:#ffcc00;fill-opacity:1;fill-rule:nonzero;stroke:none;stroke-width:20;marker:none;visibility:visible;display:inline;overflow:visible;enable-background:accumulate"
           sodipodi:type="arc" />
        <path
           transform="matrix(0.26458334,0,0,0.26458334,-17.29762,-1651.4597)"
           d="m -808.12204,4516.1367 a 75.761444,75.761444 0 1 1 -151.52289,0 75.761444,75.761444 0 1 1 151.52289,0 z"
           sodipodi:ry="75.761444"
           sodipodi:rx="75.761444"
           sodipodi:cy="4516.1367"
           sodipodi:cx="-883.88348"
           id="path31035"
           style="color:#000000;fill:#ffcc00;fill-opacity:1;fill-rule:nonzero;stroke:none;stroke-width:20;marker:none;visibility:visible;display:inline;overflow:visible;enable-background:accumulate"
           sodipodi:type="arc" />
        <path
           transform="matrix(0.26458334,0,0,0.26458334,-17.29762,-1651.4597)"
           d="m -888.93425,4465.6294 a 39.39595,39.39595 0 1 1 -78.7919,0 39.39595,39.39595 0 1 1 78.7919,0 z"
           sodipodi:ry="39.39595"
           sodipodi:rx="39.39595"
           sodipodi:cy="4465.6294"
           sodipodi:cx="-928.3302"
           id="path31037"
           style="color:#000000;fill:#ffcc00;fill-opacity:1;fill-rule:nonzero;stroke:none;stroke-width:20;marker:none;visibility:visible;display:inline;overflow:visible;enable-background:accumulate"
           sodipodi:type="arc" />
        <path
           transform="matrix(0.26458334,0,0,0.26458334,-17.29762,-1651.4597)"
           d="m -777.81745,4376.7358 a 29.294424,29.294424 0 1 1 -58.58885,0 29.294424,29.294424 0 1 1 58.58885,0 z"
           sodipodi:ry="29.294424"
           sodipodi:rx="29.294424"
           sodipodi:cy="4376.7358"
           sodipodi:cx="-807.11188"
           id="path31039"
           style="color:#000000;fill:#ffcc00;fill-opacity:1;fill-rule:nonzero;stroke:none;stroke-width:20;marker:none;visibility:visible;display:inline;overflow:visible;enable-background:accumulate"
           sodipodi:type="arc" />
        <path
           transform="matrix(0.26458334,0,0,0.26458334,-17.29762,-1651.4597)"
           d="m -713.16767,4477.751 a 35.355339,35.355339 0 1 1 -70.71068,0 35.355339,35.355339 0 1 1 70.71068,0 z"
           sodipodi:ry="35.355339"
           sodipodi:rx="35.355339"
           sodipodi:cy="4477.751"
           sodipodi:cx="-748.52301"
           id="path31041"
           style="color:#000000;fill:#ffcc00;fill-opacity:1;fill-rule:nonzero;stroke:none;stroke-width:20;marker:none;visibility:visible;display:inline;overflow:visible;enable-background:accumulate"
           sodipodi:type="arc" />
        <path
           transform="matrix(0.26458334,0,0,0.26458334,-17.29762,-1651.4597)"
           d="m -815.2924,4572.7056 a 40.86153,25.253813 0 1 1 -81.72306,0 40.86153,25.253813 0 1 1 81.72306,0 z"
           sodipodi:ry="25.253813"
           sodipodi:rx="40.86153"
           sodipodi:cy="4572.7056"
           sodipodi:cx="-856.15393"
           id="path31043"
           style="opacity:0.42307691;color:#000000;fill:#ffcc00;fill-opacity:1;fill-rule:nonzero;stroke:none;stroke-width:20;marker:none;visibility:visible;display:inline;overflow:visible;enable-background:accumulate"
           sodipodi:type="arc" />
        <g
           transform="matrix(-0.98182419,-0.18979268,0.18979268,-0.98182419,-461.51592,-368.61541)"
           id="g31045">
          <path
             sodipodi:type="arc"
             style="color:#000000;fill:#ffcc00;fill-opacity:1;fill-rule:nonzero;stroke:none;stroke-width:20;marker:none;visibility:visible;display:inline;overflow:visible;enable-background:accumulate"
             id="path31047"
             sodipodi:cx="-792.96973"
             sodipodi:cy="4443.4058"
             sodipodi:rx="63.63961"
             sodipodi:ry="63.63961"
             d="m -729.33012,4443.4058 a 63.63961,63.63961 0 1 1 -127.27922,0 63.63961,63.63961 0 1 1 127.27922,0 z"
             transform="matrix(0.26458334,0,0,0.26458334,-5e-5,-1025.9167)" />
          <path
             inkscape:connector-curvature="0"
             style="color:#000000;fill:#ffff00;fill-opacity:1;fill-rule:nonzero;stroke:none;stroke-width:20;marker:none;visibility:visible;display:inline;overflow:visible;enable-background:accumulate"
             d="m 2115.375,1954.4375 c -14.858,0.026 -29.8951,3.8495 -43.6875,11.8125 -0.5201,0.3003 -1.022,0.6198 -1.5313,0.9375 -6.3785,-1.8712 -13.2004,-2.1424 -19.8437,-0.625 13.0942,0.487 25.6211,7.5023 32.6563,19.6875 10.8788,18.8428 4.4677,42.9337 -14.375,53.8125 -3.5331,2.0398 -7.282,3.4589 -11.0626,4.3125 7.1843,0.2845 14.5319,-1.3893 21.2188,-5.25 18.8428,-10.8789 25.3164,-35.0009 14.4375,-53.8438 -2.7676,-4.7936 -6.3874,-8.7663 -10.5625,-11.875 63.9181,-11.272 120.1198,38.1143 107.5938,91.9688 -12.0603,-11.6409 -28.4113,-18.1971 -45.4063,-17.875 21.9134,3.9583 41.1172,19.2987 48.9063,41.8438 11.4772,33.2204 -6.1859,69.4603 -39.4063,80.9374 -6.5007,2.2459 -13.0704,3.3818 -19.5937,3.5 10.3842,1.8803 21.3467,1.1602 32.0312,-2.5312 33.2205,-11.4772 50.8522,-47.6858 39.375,-80.9062 -2.0748,-6.0054 -4.9727,-11.5006 -8.5,-16.4063 3.2465,-8.4416 5.2075,-17.3522 5.75,-26.4063 3.7397,1.2808 8.7802,1.9961 10.4062,4.8126 7.3591,12.7462 6.2097,27.9069 -1.8124,38.1562 13.4978,-8.2655 18.0229,-25.8372 10.0624,-39.625 -4.2109,-7.2936 -11.0879,-12.0649 -18.6874,-13.8438 -0.7904,-13.1895 -4.5683,-26.4022 -11.625,-38.625 -16.3053,-28.2415 -45.9204,-44.023 -76.3438,-43.9687 z m -78.5,38.5313 c -12.6614,0.093 -25.4691,3.3725 -37.2188,10.1562 -36.2361,20.921 -48.6397,67.2951 -27.7187,103.5312 0.1914,0.3315 0.3973,0.6421 0.5937,0.9688 0.2883,8.0834 2.9199,17.2634 8,26.0625 1.4535,2.5174 3.0422,4.8717 4.7188,7.0625 0.732,12.2731 4.2442,24.5608 10.8125,35.9375 22.5946,39.135 72.615,52.5321 111.75,29.9375 4.7017,-2.7145 9.0279,-5.8129 12.9687,-9.25 10.581,6.113 24.0347,6.5786 35.375,0.031 10.3646,-5.9839 16.5413,-16.4211 17.5313,-27.5 -2.5559,8.167 -8.0673,15.4465 -16.0625,20.0626 -16.9102,9.7631 -38.5494,3.9414 -48.3125,-12.9688 -3.7774,-6.5426 -5.2167,-13.7876 -4.5937,-20.7812 -2.8489,9.1056 -2.0216,19.3047 3.125,28.2187 3.0584,5.2974 7.2794,9.5179 12.1562,12.5 -42.3523,20.87 -94.2386,5.512 -118.1875,-35.9687 -1.5678,-2.7155 -2.9345,-5.4814 -4.1875,-8.2813 8.8253,6.0493 18.1812,7.8444 25.2188,3.7813 1.0561,-0.6098 2.0252,-1.3353 2.9062,-2.1563 -12.0183,3.7049 -28.6946,-6.3692 -39,-24.2187 -10.3051,-17.8489 -10.6541,-37.2876 -1.4375,-45.8438 -1.1518,0.3525 -2.256,0.8275 -3.3125,1.4375 -3.0844,1.7808 -5.4457,4.5074 -7.0312,7.9063 -7.0554,-31.4684 6.6554,-65.1781 36.0624,-82.1563 24.5927,-14.1986 53.8618,-13.0366 76.6563,0.5 -14.0908,-12.4318 -32.3074,-19.1053 -50.8125,-18.9687 z"
             transform="matrix(-0.08639885,0.25007915,-0.25007915,-0.08639885,503.55202,-204.53404)"
             id="path31049" />
        </g>
        <path
           transform="matrix(0.26458334,0,0,0.26458334,-17.29762,-1651.4597)"
           d="m -782.14283,4468.2144 a 53.214287,53.214287 0 1 1 -106.42857,0 53.214287,53.214287 0 1 1 106.42857,0 z"
           sodipodi:ry="53.214287"
           sodipodi:rx="53.214287"
           sodipodi:cy="4468.2144"
           sodipodi:cx="-835.35712"
           id="path31051"
           style="color:#000000;fill:#ffcc00;fill-opacity:1;fill-rule:nonzero;stroke:none;stroke-width:20;marker:none;visibility:visible;display:inline;overflow:visible;enable-background:accumulate"
           sodipodi:type="arc" />
        <path
           transform="matrix(0.26458334,0,0,0.26458334,-25.80209,-1655.4285)"
           d="m -707.85715,4495.3569 a 100.35714,100.35714 0 1 1 -200.71428,0 100.35714,100.35714 0 1 1 200.71428,0 z"
           sodipodi:ry="100.35714"
           sodipodi:rx="100.35714"
           sodipodi:cy="4495.3569"
           sodipodi:cx="-808.21429"
           id="path31053"
           style="color:#000000;fill:url(#radialGradient6118);fill-opacity:1;fill-rule:nonzero;stroke:none;stroke-width:20;marker:none;visibility:visible;display:inline;overflow:visible;enable-background:accumulate"
           sodipodi:type="arc" />
        <path
           transform="matrix(0.26458334,0,0,0.26458334,-17.29762,-1651.4597)"
           d="m -770.7464,4514.6216 a 41.921329,41.921329 0 1 1 -83.84265,0 41.921329,41.921329 0 1 1 83.84265,0 z"
           sodipodi:ry="41.921329"
           sodipodi:rx="41.921329"
           sodipodi:cy="4514.6216"
           sodipodi:cx="-812.66772"
           id="path31055"
           style="opacity:0.38938054;color:#000000;fill:#ffffff;fill-opacity:1;fill-rule:nonzero;stroke:none;stroke-width:20;marker:none;visibility:visible;display:inline;overflow:visible;enable-background:accumulate"
           sodipodi:type="arc" />
        <path
           transform="matrix(0.26458334,0,0,0.26458334,-15.15946,-1653.3306)"
           d="m -755.5941,4463.6089 a 45.456863,45.456863 0 1 1 -90.91373,0 45.456863,45.456863 0 1 1 90.91373,0 z"
           sodipodi:ry="45.456863"
           sodipodi:rx="45.456863"
           sodipodi:cy="4463.6089"
           sodipodi:cx="-801.05096"
           id="path31057"
           style="opacity:0.38938054;color:#000000;fill:#ffffff;fill-opacity:1;fill-rule:nonzero;stroke:none;stroke-width:20;marker:none;visibility:visible;display:inline;overflow:visible;enable-background:accumulate"
           sodipodi:type="arc" />
        <path
           transform="matrix(0.26458334,0,0,0.26458334,-22.10847,-1651.727)"
           d="m -791.95959,4500.9849 a 59.598999,59.598999 0 1 1 -119.198,0 59.598999,59.598999 0 1 1 119.198,0 z"
           sodipodi:ry="59.598999"
           sodipodi:rx="59.598999"
           sodipodi:cy="4500.9849"
           sodipodi:cx="-851.55859"
           id="path31059"
           style="opacity:0.38938054;color:#000000;fill:#ffffff;fill-opacity:1;fill-rule:nonzero;stroke:none;stroke-width:20;marker:none;visibility:visible;display:inline;overflow:visible;enable-background:accumulate"
           sodipodi:type="arc" />
        <path
           transform="matrix(0.26458334,0,0,0.26458334,-17.03035,-1651.9942)"
           d="m -806.10175,4451.4873 a 35.355339,35.355339 0 1 1 -70.71068,0 35.355339,35.355339 0 1 1 70.71068,0 z"
           sodipodi:ry="35.355339"
           sodipodi:rx="35.355339"
           sodipodi:cy="4451.4873"
           sodipodi:cx="-841.45709"
           id="path31061"
           style="opacity:0.38938054;color:#000000;fill:#ffffff;fill-opacity:1;fill-rule:nonzero;stroke:none;stroke-width:20;marker:none;visibility:visible;display:inline;overflow:visible;enable-background:accumulate"
           sodipodi:type="arc" />
        <path
           transform="matrix(0.26458334,0,0,0.26458334,-17.29762,-1651.4597)"
           d="m -849.53832,4430.2739 a 30.304577,30.304577 0 1 1 -60.60915,0 30.304577,30.304577 0 1 1 60.60915,0 z"
           sodipodi:ry="30.304577"
           sodipodi:rx="30.304577"
           sodipodi:cy="4430.2739"
           sodipodi:cx="-879.8429"
           id="path31063"
           style="opacity:0.38938054;color:#000000;fill:#ffffff;fill-opacity:1;fill-rule:nonzero;stroke:none;stroke-width:20;marker:none;visibility:visible;display:inline;overflow:visible;enable-background:accumulate"
           sodipodi:type="arc" />
        <path
           inkscape:connector-curvature="0"
           id="path31065"
           d="m -216.42966,-477.8672 c 0.1833,0.83466 0.28112,1.70651 0.28112,2.59623 0,5.65218 -3.89896,10.38778 -9.15293,11.67474 1.01847,1.12638 1.60922,1.99397 1.94304,2.69544 4.80954,-1.57499 8.28476,-6.10008 8.28476,-11.43498 0,-1.99691 -0.49478,-3.87397 -1.35599,-5.53143 z"
           style="color:#000000;fill:#ffffff;fill-opacity:1;fill-rule:nonzero;stroke:none;stroke-width:20;marker:none;visibility:visible;display:inline;overflow:visible;enable-background:accumulate" />
        <path
           inkscape:connector-curvature="0"
           id="path31067"
           d="m -262.38448,-465.81212 c -0.51846,1.56247 -0.80201,3.23273 -0.80201,4.96922 0,8.70892 7.05859,15.7675 15.76751,15.7675 8.01443,0 14.63069,-5.97625 15.63522,-13.71698 -2.08781,6.26322 -8.00057,10.78177 -14.96549,10.78177 -8.70893,0 -15.76752,-7.05861 -15.76752,-15.76753 0,-0.68876 0.0466,-1.36853 0.13229,-2.03398 z"
           style="color:#000000;fill:#ffffff;fill-opacity:1;fill-rule:nonzero;stroke:none;stroke-width:20;marker:none;visibility:visible;display:inline;overflow:visible;enable-background:accumulate" />
        <path
           inkscape:connector-curvature="0"
           id="path31069"
           d="m -232.31292,-468.06108 c -0.47418,0 -0.94709,0.0332 -1.4056,0.0909 5.46285,0.69011 9.69036,5.35487 9.69036,11.00503 0,5.64996 -4.22775,10.30642 -9.69036,10.99674 0.45867,0.0578 0.93124,0.0909 1.4056,0.0909 6.12576,0 11.08769,-4.96192 11.08769,-11.08768 0,-6.12577 -4.96193,-11.09597 -11.08769,-11.09597 z"
           style="color:#000000;fill:#ffffff;fill-opacity:1;fill-rule:nonzero;stroke:none;stroke-width:20;marker:none;visibility:visible;display:inline;overflow:visible;enable-background:accumulate" />
        <path
           inkscape:connector-curvature="0"
           id="path31071"
           d="m -239.66338,-483.55574 c -5.16631,0 -9.35964,4.18505 -9.35964,9.35138 0,0.95377 0.14813,1.86986 0.41342,2.73677 -0.004,-0.11104 -0.008,-0.21878 -0.008,-0.33073 0,-5.46153 4.42727,-9.8888 9.8888,-9.8888 3.01111,0 5.70204,1.34974 7.51582,3.47266 -1.50134,-3.16037 -4.71853,-5.34128 -8.45013,-5.34128 z"
           style="color:#000000;fill:#ffffff;fill-opacity:1;fill-rule:nonzero;stroke:none;stroke-width:20;marker:none;visibility:visible;display:inline;overflow:visible;enable-background:accumulate" />
      </g>
    </g>
  </g>
</svg>
