<?xml version="1.0" encoding="UTF-8" standalone="no"?>
<!-- Created with Inkscape (http://www.inkscape.org/) -->

<svg
   xmlns:dc="http://purl.org/dc/elements/1.1/"
   xmlns:cc="http://creativecommons.org/ns#"
   xmlns:rdf="http://www.w3.org/1999/02/22-rdf-syntax-ns#"
   xmlns:svg="http://www.w3.org/2000/svg"
   xmlns="http://www.w3.org/2000/svg"
   xmlns:xlink="http://www.w3.org/1999/xlink"
   xmlns:sodipodi="http://sodipodi.sourceforge.net/DTD/sodipodi-0.dtd"
   xmlns:inkscape="http://www.inkscape.org/namespaces/inkscape"
   width="1023.9995"
   height="428.64011"
   id="svg4611"
   version="1.1"
   inkscape:version="0.48.5 r10040"
   sodipodi:docname="smoking_fireball_05.svg">
  <defs
     id="defs4613">
    <radialGradient
       inkscape:collect="always"
       xlink:href="#linearGradient25629"
       id="radialGradient32259"
       gradientUnits="userSpaceOnUse"
       gradientTransform="matrix(0,0.9421926,-1,0,3676.4288,5242.6685)"
       cx="-795.81506"
       cy="4484.2861"
       fx="-795.81506"
       fy="4484.2861"
       r="100.35714" />
    <linearGradient
       id="linearGradient25629">
      <stop
         style="stop-color:#ffffff;stop-opacity:1"
         offset="0"
         id="stop25631" />
      <stop
         id="stop25637"
         offset="0.69999999"
         style="stop-color:#ffff00;stop-opacity:1" />
      <stop
         style="stop-color:#ffff00;stop-opacity:0"
         offset="1"
         id="stop25633" />
    </linearGradient>
    <radialGradient
       inkscape:collect="always"
       xlink:href="#linearGradient25629"
       id="radialGradient32261"
       gradientUnits="userSpaceOnUse"
       gradientTransform="matrix(0,0.9421926,-1,0,3676.4288,5242.6685)"
       cx="-795.81506"
       cy="4484.2861"
       fx="-795.81506"
       fy="4484.2861"
       r="100.35714" />
    <linearGradient
       id="linearGradient4635">
      <stop
         style="stop-color:#ffffff;stop-opacity:1"
         offset="0"
         id="stop4637" />
      <stop
         id="stop4639"
         offset="0.69999999"
         style="stop-color:#ffff00;stop-opacity:1" />
      <stop
         style="stop-color:#ffff00;stop-opacity:0"
         offset="1"
         id="stop4641" />
    </linearGradient>
    <radialGradient
       inkscape:collect="always"
       xlink:href="#linearGradient25629"
       id="radialGradient32263"
       gradientUnits="userSpaceOnUse"
       gradientTransform="matrix(0,0.9421926,-1,0,3676.4288,5242.6685)"
       cx="-795.81506"
       cy="4484.2861"
       fx="-795.81506"
       fy="4484.2861"
       r="100.35714" />
    <linearGradient
       id="linearGradient4644">
      <stop
         style="stop-color:#ffffff;stop-opacity:1"
         offset="0"
         id="stop4646" />
      <stop
         id="stop4648"
         offset="0.69999999"
         style="stop-color:#ffff00;stop-opacity:1" />
      <stop
         style="stop-color:#ffff00;stop-opacity:0"
         offset="1"
         id="stop4650" />
    </linearGradient>
    <radialGradient
       inkscape:collect="always"
       xlink:href="#linearGradient25629"
       id="radialGradient32265"
       gradientUnits="userSpaceOnUse"
       gradientTransform="matrix(0,0.9421926,-1,0,3676.4288,5242.6685)"
       cx="-795.81506"
       cy="4484.2861"
       fx="-795.81506"
       fy="4484.2861"
       r="100.35714" />
    <linearGradient
       id="linearGradient4653">
      <stop
         style="stop-color:#ffffff;stop-opacity:1"
         offset="0"
         id="stop4655" />
      <stop
         id="stop4657"
         offset="0.69999999"
         style="stop-color:#ffff00;stop-opacity:1" />
      <stop
         style="stop-color:#ffff00;stop-opacity:0"
         offset="1"
         id="stop4659" />
    </linearGradient>
    <radialGradient
       inkscape:collect="always"
       xlink:href="#linearGradient25629"
       id="radialGradient32267"
       gradientUnits="userSpaceOnUse"
       gradientTransform="matrix(0,0.9421926,-1,0,3676.4288,5242.6685)"
       cx="-795.81506"
       cy="4484.2861"
       fx="-795.81506"
       fy="4484.2861"
       r="100.35714" />
    <linearGradient
       id="linearGradient4662">
      <stop
         style="stop-color:#ffffff;stop-opacity:1"
         offset="0"
         id="stop4664" />
      <stop
         id="stop4666"
         offset="0.69999999"
         style="stop-color:#ffff00;stop-opacity:1" />
      <stop
         style="stop-color:#ffff00;stop-opacity:0"
         offset="1"
         id="stop4668" />
    </linearGradient>
    <radialGradient
       inkscape:collect="always"
       xlink:href="#linearGradient25629"
       id="radialGradient32269"
       gradientUnits="userSpaceOnUse"
       gradientTransform="matrix(0,0.9421926,-1,0,3676.4288,5242.6685)"
       cx="-795.81506"
       cy="4484.2861"
       fx="-795.81506"
       fy="4484.2861"
       r="100.35714" />
    <linearGradient
       id="linearGradient4671">
      <stop
         style="stop-color:#ffffff;stop-opacity:1"
         offset="0"
         id="stop4673" />
      <stop
         id="stop4675"
         offset="0.69999999"
         style="stop-color:#ffff00;stop-opacity:1" />
      <stop
         style="stop-color:#ffff00;stop-opacity:0"
         offset="1"
         id="stop4677" />
    </linearGradient>
    <radialGradient
       inkscape:collect="always"
       xlink:href="#linearGradient25629"
       id="radialGradient6116"
       gradientUnits="userSpaceOnUse"
       gradientTransform="matrix(0,0.9421926,-1,0,3676.4288,5242.6685)"
       cx="-795.81506"
       cy="4484.2861"
       fx="-795.81506"
       fy="4484.2861"
       r="100.35714" />
  </defs>
  <sodipodi:namedview
     id="base"
     pagecolor="#ffffff"
     bordercolor="#666666"
     borderopacity="1.0"
     inkscape:pageopacity="0.0"
     inkscape:pageshadow="2"
     inkscape:zoom="0.7"
     inkscape:cx="264.01247"
     inkscape:cy="146.25945"
     inkscape:document-units="px"
     inkscape:current-layer="layer1"
     showgrid="false"
     inkscape:window-width="1920"
     inkscape:window-height="1017"
     inkscape:window-x="-8"
     inkscape:window-y="-8"
     inkscape:window-maximized="1" />
  <metadata
     id="metadata4616">
    <rdf:RDF>
      <cc:Work
         rdf:about="">
        <dc:format>image/svg+xml</dc:format>
        <dc:type
           rdf:resource="http://purl.org/dc/dcmitype/StillImage" />
        <dc:title />
      </cc:Work>
    </rdf:RDF>
  </metadata>
  <g
     inkscape:label="Layer 1"
     inkscape:groupmode="layer"
     id="layer1"
     transform="translate(511.99942,-829.57375)">
    <g
       id="g31361"
       transform="matrix(1.3276229,0,0,1.3276229,4972.0861,2634.7495)"
       gds_color="smoke"
       gds_switchable="smoke">
      <rect
         y="-1332.8334"
         x="-3924.905"
         height="269.11905"
         width="565.45239"
         id="rect31363"
         style="opacity:0;color:#000000;fill:#dbe3e2;fill-opacity:1;fill-rule:nonzero;stroke:none;stroke-width:20;marker:none;visibility:visible;display:inline;overflow:visible;enable-background:accumulate" />
      <g
         id="g31365"
         transform="matrix(1.0748991,0,0,1.0748991,-3726.9656,-1218.1729)">
        <path
           transform="matrix(0.12402936,0,0,0.12402936,684.50856,-323.91542)"
           d="m -3697.1429,2730 a 115.71429,115.71429 0 1 1 -231.4286,0 115.71429,115.71429 0 1 1 231.4286,0 z"
           sodipodi:ry="115.71429"
           sodipodi:rx="115.71429"
           sodipodi:cy="2730"
           sodipodi:cx="-3812.8572"
           id="path31367"
           style="opacity:0.14473685;color:#000000;fill:#000000;fill-opacity:1;fill-rule:nonzero;stroke:none;stroke-width:20;marker:none;visibility:visible;display:inline;overflow:visible;enable-background:accumulate"
           sodipodi:type="arc" />
      </g>
      <g
         transform="translate(-3900.8824,-1256.4776)"
         id="g31369">
        <path
           sodipodi:type="arc"
           style="opacity:0.14473685;color:#000000;fill:#000000;fill-opacity:1;fill-rule:nonzero;stroke:none;stroke-width:20;marker:none;visibility:visible;display:inline;overflow:visible;enable-background:accumulate"
           id="path31371"
           sodipodi:cx="-3812.8572"
           sodipodi:cy="2730"
           sodipodi:rx="115.71429"
           sodipodi:ry="115.71429"
           d="m -3697.1429,2730 a 115.71429,115.71429 0 1 1 -231.4286,0 115.71429,115.71429 0 1 1 231.4286,0 z"
           transform="matrix(0.12402936,0,0,0.12402936,684.50856,-323.91542)" />
      </g>
      <g
         transform="translate(-3137.593,-1213.7145)"
         id="g31373">
        <path
           sodipodi:type="arc"
           style="opacity:0.24122805;color:#000000;fill:#000000;fill-opacity:1;fill-rule:nonzero;stroke:none;stroke-width:20;marker:none;visibility:visible;display:inline;overflow:visible;enable-background:accumulate"
           id="path31375"
           sodipodi:cx="-3812.8572"
           sodipodi:cy="2730"
           sodipodi:rx="115.71429"
           sodipodi:ry="115.71429"
           d="m -3697.1429,2730 a 115.71429,115.71429 0 1 1 -231.4286,0 115.71429,115.71429 0 1 1 231.4286,0 z"
           transform="matrix(0.22855611,0,0,0.22855611,374.07323,-609.27345)" />
      </g>
      <g
         id="g31377"
         transform="translate(-3596.2113,-1213.7145)">
        <path
           sodipodi:type="arc"
           style="opacity:0.24122805;color:#000000;fill:#000000;fill-opacity:1;fill-rule:nonzero;stroke:none;stroke-width:20;marker:none;visibility:visible;display:inline;overflow:visible;enable-background:accumulate"
           id="path31379"
           sodipodi:cx="-3812.8572"
           sodipodi:cy="2730"
           sodipodi:rx="115.71429"
           sodipodi:ry="115.71429"
           d="m -3697.1429,2730 a 115.71429,115.71429 0 1 1 -231.4286,0 115.71429,115.71429 0 1 1 231.4286,0 z"
           transform="matrix(0.18935858,0,0,0.18935858,588.18053,-502.26419)" />
      </g>
      <g
         transform="matrix(1.4924207,0,0,1.4924207,-4413.2868,-1199.9362)"
         id="g31381">
        <path
           transform="matrix(0.07176598,0,0,0.07176598,838.2143,-181.2364)"
           d="m -3697.1429,2730 a 115.71429,115.71429 0 1 1 -231.4286,0 115.71429,115.71429 0 1 1 231.4286,0 z"
           sodipodi:ry="115.71429"
           sodipodi:rx="115.71429"
           sodipodi:cy="2730"
           sodipodi:cx="-3812.8572"
           id="path31383"
           style="opacity:0.09210528;color:#000000;fill:#000000;fill-opacity:1;fill-rule:nonzero;stroke:none;stroke-width:20;marker:none;visibility:visible;display:inline;overflow:visible;enable-background:accumulate"
           sodipodi:type="arc" />
      </g>
      <g
         id="g31385"
         transform="translate(-4197.0009,-1158.1225)">
        <path
           sodipodi:type="arc"
           style="opacity:0.09210528;color:#000000;fill:#000000;fill-opacity:1;fill-rule:nonzero;stroke:none;stroke-width:20;marker:none;visibility:visible;display:inline;overflow:visible;enable-background:accumulate"
           id="path31387"
           sodipodi:cx="-3812.8572"
           sodipodi:cy="2730"
           sodipodi:rx="115.71429"
           sodipodi:ry="115.71429"
           d="m -3697.1429,2730 a 115.71429,115.71429 0 1 1 -231.4286,0 115.71429,115.71429 0 1 1 231.4286,0 z"
           transform="matrix(0.07176598,0,0,0.07176598,838.2143,-181.2364)" />
      </g>
      <g
         transform="translate(-2656.5403,-1243.6487)"
         id="g31389">
        <path
           sodipodi:type="arc"
           style="opacity:0.24122805;color:#000000;fill:#000000;fill-opacity:1;fill-rule:nonzero;stroke:none;stroke-width:20;marker:none;visibility:visible;display:inline;overflow:visible;enable-background:accumulate"
           id="path31391"
           sodipodi:cx="-3812.8572"
           sodipodi:cy="2730"
           sodipodi:rx="115.71429"
           sodipodi:ry="115.71429"
           d="m -3697.1429,2730 a 115.71429,115.71429 0 1 1 -231.4286,0 115.71429,115.71429 0 1 1 231.4286,0 z"
           transform="matrix(0.32001702,0,0,0.32001702,0.21251212,-858.96174)" />
      </g>
      <g
         id="g31393"
         transform="matrix(1,0,0,-1,2670.0242,-2888.3237)">
        <g
           id="g31395"
           transform="matrix(1.0748991,0,0,1.0748991,-5231.8503,-1709.9488)">
          <path
             transform="matrix(0.32001702,0,0,0.32001702,0.21251212,-858.96174)"
             d="m -3697.1429,2730 a 115.71429,115.71429 0 1 1 -231.4286,0 115.71429,115.71429 0 1 1 231.4286,0 z"
             sodipodi:ry="115.71429"
             sodipodi:rx="115.71429"
             sodipodi:cy="2730"
             sodipodi:cx="-3812.8572"
             id="path31397"
             style="opacity:0.24122805;color:#000000;fill:#000000;fill-opacity:1;fill-rule:nonzero;stroke:none;stroke-width:20;marker:none;visibility:visible;display:inline;overflow:visible;enable-background:accumulate"
             sodipodi:type="arc" />
        </g>
        <g
           transform="translate(-5300.9066,-1748.2535)"
           id="g31399">
          <path
             sodipodi:type="arc"
             style="opacity:0.24122805;color:#000000;fill:#000000;fill-opacity:1;fill-rule:nonzero;stroke:none;stroke-width:20;marker:none;visibility:visible;display:inline;overflow:visible;enable-background:accumulate"
             id="path31401"
             sodipodi:cx="-3812.8572"
             sodipodi:cy="2730"
             sodipodi:rx="115.71429"
             sodipodi:ry="115.71429"
             d="m -3697.1429,2730 a 115.71429,115.71429 0 1 1 -231.4286,0 115.71429,115.71429 0 1 1 231.4286,0 z"
             transform="matrix(0.32001702,0,0,0.32001702,0.21251212,-858.96174)" />
        </g>
        <g
           transform="translate(-6442.6172,-1705.4904)"
           id="g31403">
          <path
             sodipodi:type="arc"
             style="opacity:0.14473685;color:#000000;fill:#000000;fill-opacity:1;fill-rule:nonzero;stroke:none;stroke-width:20;marker:none;visibility:visible;display:inline;overflow:visible;enable-background:accumulate"
             id="path31405"
             sodipodi:cx="-3812.8572"
             sodipodi:cy="2730"
             sodipodi:rx="115.71429"
             sodipodi:ry="115.71429"
             d="m -3697.1429,2730 a 115.71429,115.71429 0 1 1 -231.4286,0 115.71429,115.71429 0 1 1 231.4286,0 z"
             transform="matrix(0.12402936,0,0,0.12402936,684.50856,-323.91542)" />
        </g>
        <g
           id="g31407"
           transform="translate(-6901.2355,-1705.4904)">
          <path
             sodipodi:type="arc"
             style="opacity:0.09210528;color:#000000;fill:#000000;fill-opacity:1;fill-rule:nonzero;stroke:none;stroke-width:20;marker:none;visibility:visible;display:inline;overflow:visible;enable-background:accumulate"
             id="path31409"
             sodipodi:cx="-3812.8572"
             sodipodi:cy="2730"
             sodipodi:rx="115.71429"
             sodipodi:ry="115.71429"
             d="m -3697.1429,2730 a 115.71429,115.71429 0 1 1 -231.4286,0 115.71429,115.71429 0 1 1 231.4286,0 z"
             transform="matrix(0.07176598,0,0,0.07176598,838.2143,-181.2364)" />
        </g>
        <g
           transform="matrix(1.4924207,0,0,1.4924207,-5187.9366,-1691.7121)"
           id="g31411">
          <path
             transform="matrix(0.26122072,0,0,0.26122072,126.74134,-698.44784)"
             d="m -3697.1429,2730 a 115.71429,115.71429 0 1 1 -231.4286,0 115.71429,115.71429 0 1 1 231.4286,0 z"
             sodipodi:ry="115.71429"
             sodipodi:rx="115.71429"
             sodipodi:cy="2730"
             sodipodi:cx="-3812.8572"
             id="path31413"
             style="opacity:0.24122805;color:#000000;fill:#000000;fill-opacity:1;fill-rule:nonzero;stroke:none;stroke-width:20;marker:none;visibility:visible;display:inline;overflow:visible;enable-background:accumulate"
             sodipodi:type="arc" />
        </g>
        <g
           id="g31415"
           transform="translate(-5597.025,-1649.8984)">
          <path
             sodipodi:type="arc"
             style="opacity:0.24122805;color:#000000;fill:#000000;fill-opacity:1;fill-rule:nonzero;stroke:none;stroke-width:20;marker:none;visibility:visible;display:inline;overflow:visible;enable-background:accumulate"
             id="path31417"
             sodipodi:cx="-3812.8572"
             sodipodi:cy="2730"
             sodipodi:rx="115.71429"
             sodipodi:ry="115.71429"
             d="m -3697.1429,2730 a 115.71429,115.71429 0 1 1 -231.4286,0 115.71429,115.71429 0 1 1 231.4286,0 z"
             transform="matrix(0.26122072,0,0,0.26122072,126.74134,-698.44784)" />
        </g>
        <g
           id="g31419"
           transform="translate(-5961.5645,-1735.4246)">
          <path
             transform="matrix(0.22855611,0,0,0.22855611,374.07323,-609.27345)"
             d="m -3697.1429,2730 a 115.71429,115.71429 0 1 1 -231.4286,0 115.71429,115.71429 0 1 1 231.4286,0 z"
             sodipodi:ry="115.71429"
             sodipodi:rx="115.71429"
             sodipodi:cy="2730"
             sodipodi:cx="-3812.8572"
             id="path31421"
             style="opacity:0.24122805;color:#000000;fill:#000000;fill-opacity:1;fill-rule:nonzero;stroke:none;stroke-width:20;marker:none;visibility:visible;display:inline;overflow:visible;enable-background:accumulate"
             sodipodi:type="arc" />
        </g>
      </g>
      <g
         transform="matrix(1,0,0,-1,1351.6428,-2888.3237)"
         id="g31423">
        <g
           transform="matrix(1.0748991,0,0,1.0748991,-4497.2843,-1709.9488)"
           id="g31425">
          <path
             sodipodi:type="arc"
             style="opacity:0.24122805;color:#000000;fill:#000000;fill-opacity:1;fill-rule:nonzero;stroke:none;stroke-width:20;marker:none;visibility:visible;display:inline;overflow:visible;enable-background:accumulate"
             id="path31427"
             sodipodi:cx="-3812.8572"
             sodipodi:cy="2730"
             sodipodi:rx="115.71429"
             sodipodi:ry="115.71429"
             d="m -3697.1429,2730 a 115.71429,115.71429 0 1 1 -231.4286,0 115.71429,115.71429 0 1 1 231.4286,0 z"
             transform="matrix(0.22855611,0,0,0.22855611,374.07323,-609.27345)" />
        </g>
        <g
           id="g31429"
           transform="translate(-4617.5252,-1748.2535)">
          <path
             transform="matrix(0.22855611,0,0,0.22855611,374.07323,-609.27345)"
             d="m -3697.1429,2730 a 115.71429,115.71429 0 1 1 -231.4286,0 115.71429,115.71429 0 1 1 231.4286,0 z"
             sodipodi:ry="115.71429"
             sodipodi:rx="115.71429"
             sodipodi:cy="2730"
             sodipodi:cx="-3812.8572"
             id="path31431"
             style="opacity:0.24122805;color:#000000;fill:#000000;fill-opacity:1;fill-rule:nonzero;stroke:none;stroke-width:20;marker:none;visibility:visible;display:inline;overflow:visible;enable-background:accumulate"
             sodipodi:type="arc" />
        </g>
        <g
           transform="translate(-3854.2359,-1705.4904)"
           id="g31433">
          <path
             sodipodi:type="arc"
             style="opacity:0.24122805;color:#000000;fill:#000000;fill-opacity:1;fill-rule:nonzero;stroke:none;stroke-width:20;marker:none;visibility:visible;display:inline;overflow:visible;enable-background:accumulate"
             id="path31435"
             sodipodi:cx="-3812.8572"
             sodipodi:cy="2730"
             sodipodi:rx="115.71429"
             sodipodi:ry="115.71429"
             d="m -3697.1429,2730 a 115.71429,115.71429 0 1 1 -231.4286,0 115.71429,115.71429 0 1 1 231.4286,0 z"
             transform="matrix(0.32001702,0,0,0.32001702,0.21251212,-858.96174)" />
        </g>
        <g
           transform="translate(-4312.8541,-1705.4904)"
           id="g31437">
          <path
             transform="matrix(0.26122072,0,0,0.26122072,126.74134,-698.44784)"
             d="m -3697.1429,2730 a 115.71429,115.71429 0 1 1 -231.4286,0 115.71429,115.71429 0 1 1 231.4286,0 z"
             sodipodi:ry="115.71429"
             sodipodi:rx="115.71429"
             sodipodi:cy="2730"
             sodipodi:cx="-3812.8572"
             id="path31439"
             style="opacity:0.24122805;color:#000000;fill:#000000;fill-opacity:1;fill-rule:nonzero;stroke:none;stroke-width:20;marker:none;visibility:visible;display:inline;overflow:visible;enable-background:accumulate"
             sodipodi:type="arc" />
        </g>
        <g
           id="g31441"
           transform="matrix(1.4924207,0,0,1.4924207,-4817.2424,-1691.7121)">
          <path
             sodipodi:type="arc"
             style="opacity:0.24122805;color:#000000;fill:#000000;fill-opacity:1;fill-rule:nonzero;stroke:none;stroke-width:20;marker:none;visibility:visible;display:inline;overflow:visible;enable-background:accumulate"
             id="path31443"
             sodipodi:cx="-3812.8572"
             sodipodi:cy="2730"
             sodipodi:rx="115.71429"
             sodipodi:ry="115.71429"
             d="m -3697.1429,2730 a 115.71429,115.71429 0 1 1 -231.4286,0 115.71429,115.71429 0 1 1 231.4286,0 z"
             transform="matrix(0.18935858,0,0,0.18935858,588.18053,-502.26419)" />
        </g>
        <g
           transform="translate(-4913.6436,-1649.8984)"
           id="g31445">
          <path
             transform="matrix(0.18935858,0,0,0.18935858,588.18053,-502.26419)"
             d="m -3697.1429,2730 a 115.71429,115.71429 0 1 1 -231.4286,0 115.71429,115.71429 0 1 1 231.4286,0 z"
             sodipodi:ry="115.71429"
             sodipodi:rx="115.71429"
             sodipodi:cy="2730"
             sodipodi:cx="-3812.8572"
             id="path31447"
             style="opacity:0.24122805;color:#000000;fill:#000000;fill-opacity:1;fill-rule:nonzero;stroke:none;stroke-width:20;marker:none;visibility:visible;display:inline;overflow:visible;enable-background:accumulate"
             sodipodi:type="arc" />
        </g>
        <g
           transform="translate(-5278.1831,-1735.4246)"
           id="g31449">
          <path
             sodipodi:type="arc"
             style="opacity:0.14473685;color:#000000;fill:#000000;fill-opacity:1;fill-rule:nonzero;stroke:none;stroke-width:20;marker:none;visibility:visible;display:inline;overflow:visible;enable-background:accumulate"
             id="path31451"
             sodipodi:cx="-3812.8572"
             sodipodi:cy="2730"
             sodipodi:rx="115.71429"
             sodipodi:ry="115.71429"
             d="m -3697.1429,2730 a 115.71429,115.71429 0 1 1 -231.4286,0 115.71429,115.71429 0 1 1 231.4286,0 z"
             transform="matrix(0.12402936,0,0,0.12402936,684.50856,-323.91542)" />
        </g>
      </g>
    </g>
    <g
       transform="matrix(4.0265346,0,0,4.0265346,-1833.0004,2944.8585)"
       id="g30957"
       gds_color="fireball">
      <path
         sodipodi:nodetypes="ccccc"
         inkscape:connector-curvature="0"
         id="path30959"
         d="m 328.07392,-525.3363 140.30212,0 0,106.45385 -140.30212,0 z"
         style="opacity:0;color:#000000;fill:#cccccc;fill-opacity:1;fill-rule:nonzero;stroke:none;stroke-width:20;marker:none;visibility:visible;display:inline;overflow:visible;enable-background:accumulate" />
      <g
         id="g30961"
         transform="translate(707.19346,-96.005955)">
        <g
           id="g30963">
          <path
             inkscape:connector-curvature="0"
             style="color:#000000;fill:#ff8655;fill-opacity:1;fill-rule:nonzero;stroke:none;stroke-width:20;marker:none;visibility:visible;display:inline;overflow:visible;enable-background:accumulate"
             d="m 1460,1903.5625 c 0,0 -6.4245,6.4464 -24.2812,12.875 0,0 -13.7586,-0.019 -24.7813,1.9375 -11.4343,0.4896 -23.7748,4.4376 -29.0313,13.7812 -4.4394,7.8935 -3.3411,14.8223 0.5938,20.4376 -0.6799,0.115 -1.3555,0.2169 -2.0312,0.3437 -0.7212,-5.3286 -3.5649,-6.2291 -5.2188,-6.2813 0,-0.2677 -0.1925,-0.3187 -0.4062,-0.2812 -0.3574,0.062 -0.8126,0.375 -0.8126,0.375 0,0 0.5909,3.4608 0.9063,7.375 -3.8647,0.92 -7.6377,2.0219 -11.3437,3.3125 -25.2536,-18.6322 -55.9305,19.338 -56.7188,42.3125 -9.7312,13.458 -16.6928,29.0392 -20.0312,45.9375 -32.3855,7.479 -29.75,38.8325 -29.75,48.25 0,3.6095 -0.4874,6.0021 -0.8126,7.1563 0.4334,-1.0973 1.489,-3.3733 3.8438,-7.1563 9.203,-14.785 13.603,-17.7662 25.25,-7.0625 0.2421,0.2225 0.4815,0.4022 0.7188,0.5625 1.6022,9.9884 4.4581,19.5513 8.4062,28.5313 0.055,1.0106 0.1074,2.0275 0.1875,3.0312 -19.1857,11.0164 -17.2187,31 -17.2187,31 0,0 6.3106,-2.7975 20.75,-10.3438 -7.5065,22.3228 22.9701,51.3479 24.25,66.0626 0.3136,3.6122 0.4791,6.4611 0.5624,8.875 -0.071,1.7797 -0.031,3.8674 -0.031,6.3124 l 0,0.3126 c -0.1721,2.9863 -0.5312,3.7812 -0.5312,3.7812 0,0 0.4302,0.8263 1.2187,1.5 1.3695,5.2621 4.3125,7.6875 4.3125,7.6875 8.5109,9.3913 18.5217,12.9761 28.2188,13.2187 0.6309,1.5184 1.25,2.5938 1.25,2.5938 8.5711,12.1429 24.2949,11.4419 21.4374,2.1562 -0.8152,-2.65 -2.4556,-5.4052 -4.5,-7.9062 9.981,-3.6557 17.8621,-9.7283 20.625,-14.2188 0.8323,-1.3514 1.278,-2.6186 1.4376,-3.8124 5.0916,0.6722 10.2869,1 15.5624,1 10.4203,0 20.5348,-1.3338 30.1563,-3.875 l 1,0 c 13.2557,0 25.9856,-2.2093 37.875,-6.25 31.842,7.9063 61.0375,-11.2151 73.9375,-16.375 14.2857,-5.7147 10.7006,30.6965 37.8438,37.125 27.1426,6.4283 46.4508,-29.2724 63.5937,-27.8438 17.1428,1.4286 41.4155,11.4425 42.8437,7.1562 1.4289,-4.2853 -25.7098,-20.7365 -44.2812,-28.5937 -18.5714,-7.8571 -20.7054,20.0224 -38.5625,18.5937 -17.8572,-1.4283 -23.5804,-32.8568 -46.4375,-35 -0.6582,-0.062 -1.3048,-0.1378 -1.9375,-0.2187 4.0916,-2.3198 7.6779,-5.5332 13.375,-9.0937 11.4285,-7.143 25.7143,-12.8349 10,-11.4063 -12.1282,1.1025 -23.4121,-6.2895 -40.4063,1.4375 1.9094,-4.3606 3.5555,-8.8515 4.9376,-13.4688 12.1793,0.3262 14.3806,-20.9872 21.9062,-24.75 8.0068,-4.0036 21.1385,5.2771 27.4062,-0.1874 7.6957,-0.3779 14.4985,-2.0918 17.4688,-5.2813 2.1006,-0.6184 2.3718,-1.4957 1.4062,-2.5625 0.075,-0.2967 0.1354,-0.5928 0.1563,-0.9062 0.7143,-10.7147 -16.4063,-9.2813 -16.4063,-9.2813 -0.6855,-0.093 13.7742,5.904 5.2188,7.6875 -13.3593,13.6785 -23.4574,3.9352 -24.4375,3.2812 -12.4754,-8.3166 -4.1171,-14.9487 -27.9375,-8.0312 -0.2586,-4.9528 -0.8349,-9.8229 -1.6875,-14.5938 12.1924,-4.2678 28.5505,-7.625 43.7813,-7.625 24.2854,0 11.4284,-12.8665 0,-11.4374 -11.4288,1.4283 -18.5716,-10.0134 -40,-17.1563 -1.9474,-0.649 -3.6785,-1.0802 -5.2813,-1.3437 1.3027,-2.7 2.8229,-5.379 4.5937,-7.9376 12.8576,-18.5712 27.8438,-7.8437 27.8438,-7.8437 0,0 -12.4932,-14.87 -27.0312,-14.4063 -5.4135,0.1733 -11.1177,2.4893 -16.5626,8.4688 -4.7051,-13.3056 -11.7274,-25.5042 -20.5937,-36.125 6.742,-2.866 15.4075,-6.3764 24.125,-9.3125 18.255,-6.1483 31.6003,0.3483 46.875,-16.875 15.2746,-17.2232 7.6617,-21.4971 2.7813,-17.4375 -4.8808,4.0594 -11.4525,19.361 -25.4376,17.9062 -12.6734,-1.3179 -44.7518,-21.2303 -64.5,-20.9687 -2.0424,0.027 -3.9433,0.2791 -5.6874,0.7813 -6.778,1.9484 -11.1399,9.2338 -12.5938,17.7187 -7.2792,-3.9423 -15.0232,-7.1496 -23.125,-9.5 2.0701,-2.776 4.398,-6.7258 7.3125,-12.3437 10.4944,-20.2301 -10.375,-32.4063 -10.375,-32.4063 0,0 1.0077,7.0758 -9.0937,18.1875 -8.1742,8.9911 -30.2299,2.1313 -44.7813,13.625 -0.7331,-5.3137 2.2538,-9.2435 7.9687,-11.625 0.075,-0.031 0.1443,-0.063 0.2188,-0.094 3.8692,-0.6346 7.9104,-1.2749 12.0938,-2.125 3.2614,0.048 4.8525,0.414 3.2812,-0.6874 3.8322,-0.8872 7.717,-1.9955 11.5625,-3.5 C 1462.866,1914.29 1460,1903.5625 1460,1903.5625 z m -40.0312,0.9375 c -5.0227,0 -7.8126,1.2188 -7.8126,1.2188 -20.7138,2.8569 -22.1424,8.5624 -10,8.5624 12.1433,0 32.1338,-7.8526 23.5626,-9.2812 -2.1432,-0.3571 -4.0761,-0.5 -5.75,-0.5 z m 251.5937,17.5625 c -6.5566,0 -7.5093,8.4375 -17.8125,8.4375 -10.3032,0 -15.8999,0 -8.4062,1.875 7.4927,1.8734 14.9763,9.3716 23.4062,5.625 8.4299,-3.7466 3.7584,-0.9316 13.125,5.625 9.3666,6.5566 16.8519,-0.01 25.2812,-9.375 8.4303,-9.3666 6.5553,-10.3099 -1.875,-7.5 -8.4295,2.81 -15.9374,4.6875 -15.9374,4.6875 -13.1136,-9.3665 -11.2247,-9.375 -17.7813,-9.375 z m 59.8437,35.7187 c -31.3805,0.2856 -21.5407,21.875 -5.0624,21.875 18.1825,0 43.4347,-6.0749 31.3124,-14.1562 -12.1212,-8.0812 -15.1562,-7.0625 -15.1562,-7.0625 -4.1669,-0.4735 -7.8474,-0.6852 -11.0938,-0.6563 z m 6.375,69.9688 c -6.5614,-0.1227 -8.5045,22.8303 -29.2187,42.25 0,0 -1.5979,-0.5087 -3.75,-1.1562 0.5647,-2.1958 -0.8738,-4.3394 -3.4063,-5.9376 -6.4827,-4.0911 -12.0937,-7.875 -12.0937,-7.875 -9.7526,-1.1161 -16.226,1.8223 -19.4687,5.9376 -2.4895,0.082 -3.3889,0.9015 -1.6876,2.8437 -2.8017,6.9286 2.1304,15.1272 14.6563,13.9687 9.6366,8.2963 20.986,15.9668 30.0313,15.0626 14.2853,-1.4287 20.0133,-34.2813 27.1562,-44.2813 7.1428,-10 12.8528,4.3084 24.2812,8.5937 11.4291,4.2862 -15.7098,-22.8794 -24.2812,-28.5937 -0.8036,-0.5357 -1.5395,-0.7998 -2.2188,-0.8125 z m -12.625,138 c -3.659,-0.041 -7.9134,1.5756 -13.0624,6.3438 0,0 -6.7137,2.4483 -10.375,5.5 -3.6623,3.0513 10.9872,7.3033 19.5312,3.0312 8.544,-4.272 12.2023,4.8951 23.1875,1.8438 10.9852,-3.0517 12.2187,-9.75 12.2187,-9.75 0,0 -4.879,1.2187 -12.8124,1.2187 -5.4549,0 -10.6366,-8.0974 -18.6876,-8.1875 z m -446.7812,21.5312 c -0.1859,0 -0.3719,0.015 -0.5625,0.031 -0.4067,0.035 -0.8222,0.1216 -1.25,0.25 -6.8456,2.054 -8.25,5.2813 -8.25,5.2813 8.1515,30.9211 19.803,32.7957 19.5313,17.8124 -0.2473,-13.6075 -3.7071,-23.2604 -9.4688,-23.375 z m 61.75,15.4376 c 10.454,8.0778 22.3013,14.442 35.125,18.6562 -5.948,4.7694 -14.0027,10.2434 -21.4688,12 -10.1047,2.3777 -13.4305,-13.4686 -17.5312,-22.125 1.3937,-3.5158 2.7013,-6.287 3.875,-8.5312 z m -29.4062,24.3437 c -0.2404,0.015 -0.4733,0.049 -0.7188,0.094 -7.8572,1.4287 -5.7188,7.8438 -5.7188,7.8438 5,10.7143 19.9956,22.1339 19.2813,13.5625 -0.692,-8.3036 -5.407,-21.9528 -12.8437,-21.5 z m 134.2187,42.375 c -5.4606,-0.1365 -5.4687,4.25 -5.4687,4.25 3.3134,12.4259 10.764,19.0331 16.5624,12.4063 5.7992,-6.6277 -3.3106,-15.7337 -9.9374,-16.5626 -0.4145,-0.052 -0.7923,-0.085 -1.1563,-0.094 z"
             transform="matrix(0.26458334,0,0,0.26458334,-707.19351,-929.91075)"
             id="path30965" />
        </g>
        <g
           id="g30967" />
      </g>
      <g
         id="g30969"
         transform="matrix(-0.5,0.8660254,-0.8660254,-0.5,-149.35598,-498.96121)">
        <path
           style="color:#000000;fill:#ffffff;fill-opacity:1;fill-rule:nonzero;stroke:none;stroke-width:20;marker:none;visibility:visible;display:inline;overflow:visible;enable-background:accumulate"
           d="m -246.88155,-501.20014 c -12.84197,0 -23.25026,10.40828 -23.25026,23.25026 0,0.16494 0.005,0.33197 0.008,0.49609 -1.98133,1.89744 -3.21634,4.56414 -3.21634,7.52409 0,2.8742 1.16125,5.48137 3.04271,7.36701 -0.59222,1.89254 -0.90951,3.90668 -0.90951,5.99445 0,11.07067 8.97979,20.05044 20.05046,20.05044 0.10045,0 0.19756,-0.007 0.29766,-0.008 1.89115,1.00304 4.34873,1.61232 7.03626,1.61232 0.76419,0 1.51304,-0.0556 2.23242,-0.14886 2.91233,1.45788 6.19534,2.28203 9.67383,2.28203 11.95632,0 21.64622,-9.68988 21.64622,-21.6462 0,-1.4334 -0.13932,-2.83649 -0.40514,-4.192 2.79946,-1.61655 4.68809,-4.63786 4.68809,-8.10287 0,-3.31374 -1.72526,-6.22606 -4.32429,-7.88789 0.0279,-0.39634 0.0413,-0.79544 0.0413,-1.1989 0,-7.9552 -5.515,-14.61831 -12.93151,-16.37935 0.0675,-0.41143 0.10749,-0.82624 0.10749,-1.25677 0,-4.28067 -3.47494,-7.7556 -7.7556,-7.7556 -2.2274,0 -4.22513,0.94297 -5.63893,2.44739 -3.1282,-1.56604 -6.65677,-2.44739 -10.39317,-2.44739 z"
           id="path30971"
           inkscape:connector-curvature="0" />
        <path
           sodipodi:type="arc"
           style="color:#000000;fill:#ffcc00;fill-opacity:1;fill-rule:nonzero;stroke:none;stroke-width:20;marker:none;visibility:visible;display:inline;overflow:visible;enable-background:accumulate"
           id="path30973"
           sodipodi:cx="-867.72101"
           sodipodi:cy="4435.3247"
           sodipodi:rx="87.88327"
           sodipodi:ry="87.88327"
           d="m -779.83774,4435.3247 a 87.88327,87.88327 0 1 1 -175.76654,0 87.88327,87.88327 0 1 1 175.76654,0 z"
           transform="matrix(0.26458334,0,0,0.26458334,-17.29762,-1651.4597)" />
        <path
           sodipodi:type="arc"
           style="color:#000000;fill:#ffcc00;fill-opacity:1;fill-rule:nonzero;stroke:none;stroke-width:20;marker:none;visibility:visible;display:inline;overflow:visible;enable-background:accumulate"
           id="path30975"
           sodipodi:cx="-811.15247"
           sodipodi:cy="4524.2183"
           sodipodi:rx="81.822357"
           sodipodi:ry="81.822357"
           d="m -729.33011,4524.2183 a 81.822357,81.822357 0 1 1 -163.64471,0 81.822357,81.822357 0 1 1 163.64471,0 z"
           transform="matrix(0.26458334,0,0,0.26458334,-17.29762,-1651.4597)" />
        <path
           sodipodi:type="arc"
           style="color:#000000;fill:#ffcc00;fill-opacity:1;fill-rule:nonzero;stroke:none;stroke-width:20;marker:none;visibility:visible;display:inline;overflow:visible;enable-background:accumulate"
           id="path30977"
           sodipodi:cx="-883.88348"
           sodipodi:cy="4516.1367"
           sodipodi:rx="75.761444"
           sodipodi:ry="75.761444"
           d="m -808.12204,4516.1367 a 75.761444,75.761444 0 1 1 -151.52289,0 75.761444,75.761444 0 1 1 151.52289,0 z"
           transform="matrix(0.26458334,0,0,0.26458334,-17.29762,-1651.4597)" />
        <path
           sodipodi:type="arc"
           style="color:#000000;fill:#ffcc00;fill-opacity:1;fill-rule:nonzero;stroke:none;stroke-width:20;marker:none;visibility:visible;display:inline;overflow:visible;enable-background:accumulate"
           id="path30979"
           sodipodi:cx="-928.3302"
           sodipodi:cy="4465.6294"
           sodipodi:rx="39.39595"
           sodipodi:ry="39.39595"
           d="m -888.93425,4465.6294 a 39.39595,39.39595 0 1 1 -78.7919,0 39.39595,39.39595 0 1 1 78.7919,0 z"
           transform="matrix(0.26458334,0,0,0.26458334,-17.29762,-1651.4597)" />
        <path
           sodipodi:type="arc"
           style="color:#000000;fill:#ffcc00;fill-opacity:1;fill-rule:nonzero;stroke:none;stroke-width:20;marker:none;visibility:visible;display:inline;overflow:visible;enable-background:accumulate"
           id="path30981"
           sodipodi:cx="-807.11188"
           sodipodi:cy="4376.7358"
           sodipodi:rx="29.294424"
           sodipodi:ry="29.294424"
           d="m -777.81745,4376.7358 a 29.294424,29.294424 0 1 1 -58.58885,0 29.294424,29.294424 0 1 1 58.58885,0 z"
           transform="matrix(0.26458334,0,0,0.26458334,-17.29762,-1651.4597)" />
        <path
           sodipodi:type="arc"
           style="color:#000000;fill:#ffcc00;fill-opacity:1;fill-rule:nonzero;stroke:none;stroke-width:20;marker:none;visibility:visible;display:inline;overflow:visible;enable-background:accumulate"
           id="path30983"
           sodipodi:cx="-748.52301"
           sodipodi:cy="4477.751"
           sodipodi:rx="35.355339"
           sodipodi:ry="35.355339"
           d="m -713.16767,4477.751 a 35.355339,35.355339 0 1 1 -70.71068,0 35.355339,35.355339 0 1 1 70.71068,0 z"
           transform="matrix(0.26458334,0,0,0.26458334,-17.29762,-1651.4597)" />
        <path
           sodipodi:type="arc"
           style="opacity:0.42307691;color:#000000;fill:#ffcc00;fill-opacity:1;fill-rule:nonzero;stroke:none;stroke-width:20;marker:none;visibility:visible;display:inline;overflow:visible;enable-background:accumulate"
           id="path30985"
           sodipodi:cx="-856.15393"
           sodipodi:cy="4572.7056"
           sodipodi:rx="40.86153"
           sodipodi:ry="25.253813"
           d="m -815.2924,4572.7056 a 40.86153,25.253813 0 1 1 -81.72306,0 40.86153,25.253813 0 1 1 81.72306,0 z"
           transform="matrix(0.26458334,0,0,0.26458334,-17.29762,-1651.4597)" />
        <g
           id="g30987"
           transform="matrix(-0.98182419,-0.18979268,0.18979268,-0.98182419,-461.51592,-368.61541)">
          <path
             transform="matrix(0.26458334,0,0,0.26458334,-5e-5,-1025.9167)"
             d="m -729.33012,4443.4058 a 63.63961,63.63961 0 1 1 -127.27922,0 63.63961,63.63961 0 1 1 127.27922,0 z"
             sodipodi:ry="63.63961"
             sodipodi:rx="63.63961"
             sodipodi:cy="4443.4058"
             sodipodi:cx="-792.96973"
             id="path30989"
             style="color:#000000;fill:#ffcc00;fill-opacity:1;fill-rule:nonzero;stroke:none;stroke-width:20;marker:none;visibility:visible;display:inline;overflow:visible;enable-background:accumulate"
             sodipodi:type="arc" />
          <path
             inkscape:connector-curvature="0"
             style="color:#000000;fill:#ffff00;fill-opacity:1;fill-rule:nonzero;stroke:none;stroke-width:20;marker:none;visibility:visible;display:inline;overflow:visible;enable-background:accumulate"
             d="m 1402.9375,1956.5938 c -25.5904,0.5753 -50.2706,14.095 -64,37.875 -0.1911,0.331 -0.378,0.6669 -0.5625,1 -6.8546,4.2914 -13.4834,11.2028 -18.5625,20 -1.4454,2.5034 -2.6635,5.0292 -3.7187,7.5624 -10.2851,6.7738 -19.1706,15.979 -25.75,27.375 -22.5947,39.1351 -9.1975,89.1554 29.9374,111.75 4.7027,2.7151 9.552,4.8993 14.5,6.5938 -0.01,12.2218 6.3143,24.108 17.6563,30.6562 10.3646,5.984 22.5042,6.1196 32.5937,1.4376 -8.3506,1.8699 -17.411,0.741 -25.4062,-3.875 -16.9102,-9.7632 -22.7006,-31.4024 -12.9375,-48.3126 3.7774,-6.5425 9.3193,-11.4176 15.6875,-14.375 -9.3101,2.0857 -17.7285,7.8985 -22.875,16.8126 -3.051,5.2844 -4.5681,11.0493 -4.7188,16.75 -39.2545,-26.242 -51.9188,-78.8298 -27.9687,-120.3126 1.5734,-2.7252 3.2882,-5.3193 5.0937,-7.8124 -0.8367,10.6843 2.2978,19.6819 9.3438,23.75 1.0562,0.6097 2.161,1.1163 3.3125,1.4687 -9.2177,-8.5557 -8.8679,-28.0567 1.4375,-45.9063 10.3051,-17.8488 26.9818,-27.8911 39,-24.1874 -0.8812,-0.8213 -1.8497,-1.5151 -2.9062,-2.125 -3.08,-1.7782 -6.5824,-2.448 -10.3126,-2.125 23.7248,-21.8412 59.7509,-26.821 89.1563,-9.8438 24.5927,14.1986 38.2008,40.0849 37.875,66.5938 6.2667,-31.0214 -7.4528,-63.8955 -36.375,-80.5938 -12.4562,-7.1916 -26.0955,-10.4576 -39.5,-10.1562 z m 96.4687,35.7187 c 6.1254,11.5834 6.3477,25.9398 -0.6874,38.125 -10.8789,18.8428 -34.9386,25.3163 -53.7813,14.4375 -3.5331,-2.0398 -6.6518,-4.5278 -9.2813,-7.375 3.3458,6.3639 8.4694,11.8893 15.1563,15.75 18.8428,10.8789 42.9649,4.4053 53.8437,-14.4375 2.7677,-4.7936 4.3954,-9.9237 5,-15.0937 41.7365,49.7193 27.0651,123.1074 -25.8437,139.1874 4.0577,-16.2701 1.561,-33.7187 -7.2187,-48.2812 7.5287,20.9568 3.8488,45.2632 -11.7813,63.2812 -23.0312,26.5498 -63.2315,29.3749 -89.7813,6.3438 -5.1953,-4.5068 -9.4796,-9.6597 -12.8437,-15.25 3.5638,9.9332 9.6484,19.1239 18.1875,26.5312 26.5498,23.0312 66.7501,20.1748 89.7812,-6.375 4.1643,-4.8004 7.4526,-10.0537 9.9376,-15.5624 8.9274,-1.4074 17.6112,-4.1984 25.7187,-8.25 0.7608,3.8789 2.6885,8.6211 1.0625,11.4374 -7.359,12.7463 -21.0815,19.3228 -33.9688,17.5 13.9071,7.5568 31.4146,2.6941 39.375,-11.0937 4.2092,-7.2904 4.8806,-15.6254 2.625,-23.0937 11.0332,-7.2802 20.5966,-17.1473 27.6563,-29.375 24.2683,-42.034 9.8777,-95.7942 -32.1563,-120.0626 -0.5261,-0.3037 -1.0577,-0.5896 -1.5937,-0.875 -1.5736,-6.4383 -4.784,-12.4888 -9.4063,-17.4687 z"
             transform="matrix(0.17337548,0.19986317,-0.19986317,0.17337548,-27.162399,-506.80347)"
             id="path30991" />
        </g>
        <path
           sodipodi:type="arc"
           style="color:#000000;fill:#ffcc00;fill-opacity:1;fill-rule:nonzero;stroke:none;stroke-width:20;marker:none;visibility:visible;display:inline;overflow:visible;enable-background:accumulate"
           id="path30993"
           sodipodi:cx="-835.35712"
           sodipodi:cy="4468.2144"
           sodipodi:rx="53.214287"
           sodipodi:ry="53.214287"
           d="m -782.14283,4468.2144 a 53.214287,53.214287 0 1 1 -106.42857,0 53.214287,53.214287 0 1 1 106.42857,0 z"
           transform="matrix(0.26458334,0,0,0.26458334,-17.29762,-1651.4597)" />
        <path
           sodipodi:type="arc"
           style="color:#000000;fill:url(#radialGradient6116);fill-opacity:1;fill-rule:nonzero;stroke:none;stroke-width:20;marker:none;visibility:visible;display:inline;overflow:visible;enable-background:accumulate"
           id="path30995"
           sodipodi:cx="-808.21429"
           sodipodi:cy="4495.3569"
           sodipodi:rx="100.35714"
           sodipodi:ry="100.35714"
           d="m -707.85715,4495.3569 a 100.35714,100.35714 0 1 1 -200.71428,0 100.35714,100.35714 0 1 1 200.71428,0 z"
           transform="matrix(0.26458334,0,0,0.26458334,-25.80209,-1655.4285)" />
        <path
           sodipodi:type="arc"
           style="opacity:0.38938054;color:#000000;fill:#ffffff;fill-opacity:1;fill-rule:nonzero;stroke:none;stroke-width:20;marker:none;visibility:visible;display:inline;overflow:visible;enable-background:accumulate"
           id="path30997"
           sodipodi:cx="-812.66772"
           sodipodi:cy="4514.6216"
           sodipodi:rx="41.921329"
           sodipodi:ry="41.921329"
           d="m -770.7464,4514.6216 a 41.921329,41.921329 0 1 1 -83.84265,0 41.921329,41.921329 0 1 1 83.84265,0 z"
           transform="matrix(0.26458334,0,0,0.26458334,-17.29762,-1651.4597)" />
        <path
           sodipodi:type="arc"
           style="opacity:0.38938054;color:#000000;fill:#ffffff;fill-opacity:1;fill-rule:nonzero;stroke:none;stroke-width:20;marker:none;visibility:visible;display:inline;overflow:visible;enable-background:accumulate"
           id="path30999"
           sodipodi:cx="-801.05096"
           sodipodi:cy="4463.6089"
           sodipodi:rx="45.456863"
           sodipodi:ry="45.456863"
           d="m -755.5941,4463.6089 a 45.456863,45.456863 0 1 1 -90.91373,0 45.456863,45.456863 0 1 1 90.91373,0 z"
           transform="matrix(0.26458334,0,0,0.26458334,-15.15946,-1653.3306)" />
        <path
           sodipodi:type="arc"
           style="opacity:0.38938054;color:#000000;fill:#ffffff;fill-opacity:1;fill-rule:nonzero;stroke:none;stroke-width:20;marker:none;visibility:visible;display:inline;overflow:visible;enable-background:accumulate"
           id="path31001"
           sodipodi:cx="-851.55859"
           sodipodi:cy="4500.9849"
           sodipodi:rx="59.598999"
           sodipodi:ry="59.598999"
           d="m -791.95959,4500.9849 a 59.598999,59.598999 0 1 1 -119.198,0 59.598999,59.598999 0 1 1 119.198,0 z"
           transform="matrix(0.26458334,0,0,0.26458334,-22.10847,-1651.727)" />
        <path
           sodipodi:type="arc"
           style="opacity:0.38938054;color:#000000;fill:#ffffff;fill-opacity:1;fill-rule:nonzero;stroke:none;stroke-width:20;marker:none;visibility:visible;display:inline;overflow:visible;enable-background:accumulate"
           id="path31003"
           sodipodi:cx="-841.45709"
           sodipodi:cy="4451.4873"
           sodipodi:rx="35.355339"
           sodipodi:ry="35.355339"
           d="m -806.10175,4451.4873 a 35.355339,35.355339 0 1 1 -70.71068,0 35.355339,35.355339 0 1 1 70.71068,0 z"
           transform="matrix(0.26458334,0,0,0.26458334,-17.03035,-1651.9942)" />
        <path
           sodipodi:type="arc"
           style="opacity:0.38938054;color:#000000;fill:#ffffff;fill-opacity:1;fill-rule:nonzero;stroke:none;stroke-width:20;marker:none;visibility:visible;display:inline;overflow:visible;enable-background:accumulate"
           id="path31005"
           sodipodi:cx="-879.8429"
           sodipodi:cy="4430.2739"
           sodipodi:rx="30.304577"
           sodipodi:ry="30.304577"
           d="m -849.53832,4430.2739 a 30.304577,30.304577 0 1 1 -60.60915,0 30.304577,30.304577 0 1 1 60.60915,0 z"
           transform="matrix(0.26458334,0,0,0.26458334,-17.29762,-1651.4597)" />
        <path
           style="color:#000000;fill:#ffffff;fill-opacity:1;fill-rule:nonzero;stroke:none;stroke-width:20;marker:none;visibility:visible;display:inline;overflow:visible;enable-background:accumulate"
           d="m -216.42966,-477.8672 c 0.1833,0.83466 0.28112,1.70651 0.28112,2.59623 0,5.65218 -3.89896,10.38778 -9.15293,11.67474 1.01847,1.12638 1.60922,1.99397 1.94304,2.69544 4.80954,-1.57499 8.28476,-6.10008 8.28476,-11.43498 0,-1.99691 -0.49478,-3.87397 -1.35599,-5.53143 z"
           id="path31007"
           inkscape:connector-curvature="0" />
        <path
           style="color:#000000;fill:#ffffff;fill-opacity:1;fill-rule:nonzero;stroke:none;stroke-width:20;marker:none;visibility:visible;display:inline;overflow:visible;enable-background:accumulate"
           d="m -262.38448,-465.81212 c -0.51846,1.56247 -0.80201,3.23273 -0.80201,4.96922 0,8.70892 7.05859,15.7675 15.76751,15.7675 8.01443,0 14.63069,-5.97625 15.63522,-13.71698 -2.08781,6.26322 -8.00057,10.78177 -14.96549,10.78177 -8.70893,0 -15.76752,-7.05861 -15.76752,-15.76753 0,-0.68876 0.0466,-1.36853 0.13229,-2.03398 z"
           id="path31009"
           inkscape:connector-curvature="0" />
        <path
           style="color:#000000;fill:#ffffff;fill-opacity:1;fill-rule:nonzero;stroke:none;stroke-width:20;marker:none;visibility:visible;display:inline;overflow:visible;enable-background:accumulate"
           d="m -232.31292,-468.06108 c -0.47418,0 -0.94709,0.0332 -1.4056,0.0909 5.46285,0.69011 9.69036,5.35487 9.69036,11.00503 0,5.64996 -4.22775,10.30642 -9.69036,10.99674 0.45867,0.0578 0.93124,0.0909 1.4056,0.0909 6.12576,0 11.08769,-4.96192 11.08769,-11.08768 0,-6.12577 -4.96193,-11.09597 -11.08769,-11.09597 z"
           id="path31011"
           inkscape:connector-curvature="0" />
        <path
           style="color:#000000;fill:#ffffff;fill-opacity:1;fill-rule:nonzero;stroke:none;stroke-width:20;marker:none;visibility:visible;display:inline;overflow:visible;enable-background:accumulate"
           d="m -239.66338,-483.55574 c -5.16631,0 -9.35964,4.18505 -9.35964,9.35138 0,0.95377 0.14813,1.86986 0.41342,2.73677 -0.004,-0.11104 -0.008,-0.21878 -0.008,-0.33073 0,-5.46153 4.42727,-9.8888 9.8888,-9.8888 3.01111,0 5.70204,1.34974 7.51582,3.47266 -1.50134,-3.16037 -4.71853,-5.34128 -8.45013,-5.34128 z"
           id="path31013"
           inkscape:connector-curvature="0" />
      </g>
    </g>
  </g>
</svg>
